<?xml version="1.0" encoding="UTF-8"?>
<!DOCTYPE svg PUBLIC "-//W3C//DTD SVG 1.1//EN" "http://www.w3.org/Graphics/SVG/1.1/DTD/svg11.dtd">
<svg xmlns="http://www.w3.org/2000/svg" version="1.1" width="259px" height="194px" style="shape-rendering:geometricPrecision; text-rendering:geometricPrecision; image-rendering:optimizeQuality; fill-rule:evenodd; clip-rule:evenodd" xmlns:xlink="http://www.w3.org/1999/xlink">
<g><path style="opacity:1" fill="#000001" d="M -0.5,-0.5 C 85.8333,-0.5 172.167,-0.5 258.5,-0.5C 258.5,7.5 258.5,15.5 258.5,23.5C 254.833,23.5 251.167,23.5 247.5,23.5C 164.833,23.5 82.1667,23.5 -0.5,23.5C -0.5,15.5 -0.5,7.5 -0.5,-0.5 Z"/></g>
<g><path style="opacity:1" fill="#b0bacd" d="M -0.5,24.5 C -0.5,24.1667 -0.5,23.8333 -0.5,23.5C 82.1667,23.5 164.833,23.5 247.5,23.5C 248.167,25.5 248.833,27.5 249.5,29.5C 247.833,29.5 246.167,29.5 244.5,29.5C 244.5,27.8333 244.5,26.1667 244.5,24.5C 189.5,24.5 134.5,24.5 79.5,24.5C 63.5,24.5 47.5,24.5 31.5,24.5C 20.8333,24.5 10.1667,24.5 -0.5,24.5 Z"/></g>
<g><path style="opacity:1" fill="#cedaf7" d="M 79.5,24.5 C 134.5,24.5 189.5,24.5 244.5,24.5C 244.5,26.1667 244.5,27.8333 244.5,29.5C 240.298,29.1832 236.298,29.5166 232.5,30.5C 232.167,30.5 231.833,30.5 231.5,30.5C 225.5,29.1667 219.5,29.1667 213.5,30.5C 212.833,30.5 212.167,30.5 211.5,30.5C 189.615,29.6665 167.615,29.3332 145.5,29.5C 141.902,29.5906 138.569,30.2573 135.5,31.5C 133.012,29.6122 130.012,28.9455 126.5,29.5C 126.5,31.5 126.5,33.5 126.5,35.5C 124.025,34.3126 123.025,32.3126 123.5,29.5C 120.061,29.2529 116.728,29.5863 113.5,30.5C 110.833,29.1667 108.167,29.1667 105.5,30.5C 105.167,30.5 104.833,30.5 104.5,30.5C 101.713,29.5233 98.7131,29.19 95.5,29.5C 95.8174,33.1716 94.1507,34.8383 90.5,34.5C 89.5116,33.205 88.5116,31.8717 87.5,30.5C 85.0521,29.5269 82.3854,29.1936 79.5,29.5C 79.5,27.8333 79.5,26.1667 79.5,24.5 Z"/></g>
<g><path style="opacity:1" fill="#75717d" d="M 135.5,31.5 C 134.833,34.8333 134.167,38.1667 133.5,41.5C 133.5,38.1667 133.5,34.8333 133.5,31.5C 131.5,31.5 129.5,31.5 127.5,31.5C 127.5,32.5 127.5,33.5 127.5,34.5C 131.172,35.0447 130.838,35.3781 126.5,35.5C 126.5,33.5 126.5,31.5 126.5,29.5C 130.012,28.9455 133.012,29.6122 135.5,31.5 Z"/></g>
<g><path style="opacity:1" fill="#5a5b6b" d="M 213.5,30.5 C 219.5,29.1667 225.5,29.1667 231.5,30.5C 231.5,30.8333 231.5,31.1667 231.5,31.5C 225.925,30.5476 220.259,30.2143 214.5,30.5C 214.167,30.5 213.833,30.5 213.5,30.5 Z"/></g>
<g><path style="opacity:1" fill="#58585f" d="M 232.5,30.5 C 236.298,29.5166 240.298,29.1832 244.5,29.5C 246.167,29.5 247.833,29.5 249.5,29.5C 251.424,29.7107 251.757,30.3774 250.5,31.5C 245.025,30.5111 239.358,30.1778 233.5,30.5C 233.167,30.5 232.833,30.5 232.5,30.5 Z"/></g>
<g><path style="opacity:1" fill="#cbd7fd" d="M 31.5,24.5 C 47.5,24.5 63.5,24.5 79.5,24.5C 79.5,26.1667 79.5,27.8333 79.5,29.5C 79.1667,29.5 78.8333,29.5 78.5,29.5C 77.6281,29.9372 76.4614,29.9372 75,29.5C 74.3162,30.7839 74.4829,31.9505 75.5,33C 69.8867,42.0696 68.8867,51.5696 72.5,61.5C 73.4776,61.9767 74.3109,62.6433 75,63.5C 75.3333,62.8333 75.6667,62.1667 76,61.5C 80.9684,62.3416 85.8018,62.3416 90.5,61.5C 91.5,61 92.5,60.5 93.5,60C 92.3044,59.3457 92.3044,58.8457 93.5,58.5C 94.354,59.5217 95.354,60.3551 96.5,61C 100.039,61.2819 103.539,61.7819 107,62.5C 109.006,60.9977 110.672,61.331 112,63.5C 115.097,63.7016 117.431,63.035 119,61.5C 122.245,62.3663 125.245,63.0329 128,63.5C 131.057,61.7336 134.391,60.7336 138,60.5C 141.023,61.162 144.19,61.162 147.5,60.5C 149.641,60.6132 151.475,61.2799 153,62.5C 153.377,61.0577 154.21,60.0577 155.5,59.5C 161.69,59.8229 167.69,59.4896 173.5,58.5C 176.604,59.7752 179.604,59.7752 182.5,58.5C 183.268,57.7375 183.768,56.7375 184,55.5C 184.483,56.448 184.649,57.448 184.5,58.5C 187.167,58.5 189.833,58.5 192.5,58.5C 193.167,54.5 193.833,54.5 194.5,58.5C 199.143,58.006 203.643,58.006 208,58.5C 209.981,58.3708 211.647,57.7042 213,56.5C 214.353,57.7042 216.019,58.3708 218,58.5C 219.5,58.1667 221,57.8333 222.5,57.5C 225.35,52.9669 228.684,48.9669 232.5,45.5C 233.167,45.5 233.833,45.5 234.5,45.5C 235.964,49.0194 236.964,52.6861 237.5,56.5C 238.514,57.7647 240.014,58.4313 242,58.5C 248.407,57.5933 251.907,53.9266 252.5,47.5C 253.5,47.5 254.5,47.5 255.5,47.5C 256.5,47.5 257.5,47.5 258.5,47.5C 258.5,79.5 258.5,111.5 258.5,143.5C 239.81,143.767 221.143,143.434 202.5,142.5C 202.188,120.807 202.522,99.1399 203.5,77.5C 202.99,75.9121 201.99,74.7455 200.5,74C 178.833,73.3333 157.167,73.3333 135.5,74C 134.584,74.3742 133.75,74.8742 133,75.5C 132.5,97.8308 132.333,120.164 132.5,142.5C 123.533,143.383 114.533,143.716 105.5,143.5C 105.167,143.5 104.833,143.5 104.5,143.5C 103.963,137.865 104.63,132.532 106.5,127.5C 106.833,127.5 107.167,127.5 107.5,127.5C 107.712,129.384 108.712,130.717 110.5,131.5C 110.569,129.722 110.903,127.889 111.5,126C 114.572,124.142 117.905,122.976 121.5,122.5C 121.33,121.178 121.663,120.011 122.5,119C 121.584,118.626 120.75,118.126 120,117.5C 116.676,119.579 113.176,121.246 109.5,122.5C 108.272,121.694 107.272,120.694 106.5,119.5C 105.696,116.421 104.696,113.421 103.5,110.5C 104.167,110.5 104.833,110.5 105.5,110.5C 106.117,110.389 106.617,110.056 107,109.5C 107.548,105.83 108.048,102.163 108.5,98.5C 104.167,98.5 99.8333,98.5 95.5,98.5C 95.1977,102.79 95.8643,106.79 97.5,110.5C 97.1771,116.69 97.5104,122.69 98.5,128.5C 98.5,133.5 98.5,138.5 98.5,143.5C 84.2452,144.482 69.9118,144.816 55.5,144.5C 53.4727,144.662 51.4727,144.495 49.5,144C 51.7078,143.809 53.7078,143.309 55.5,142.5C 56.4511,141.081 56.7845,139.415 56.5,137.5C 51.3814,136.897 46.7147,137.564 42.5,139.5C 41.8386,140.718 41.1719,142.051 40.5,143.5C 40.0358,141.025 39.0358,139.025 37.5,137.5C 35.3718,136.371 33.0385,136.204 30.5,137C 28.2489,141.162 25.9156,141.329 23.5,137.5C 18.6718,137.469 13.6718,137.635 8.5,138C 8.5,139.333 8.5,140.667 8.5,142C 7.16667,142.333 5.83333,142.667 4.5,143C 5.05596,143.383 5.38929,143.883 5.5,144.5C 5.16667,144.5 4.83333,144.5 4.5,144.5C 2.83333,144.5 1.16667,144.5 -0.5,144.5C -0.5,104.833 -0.5,65.1667 -0.5,25.5C 6.53157,25.1697 13.5316,25.503 20.5,26.5C 18.0087,27.5407 18.0087,28.3741 20.5,29C 17.2927,30.1354 15.9594,32.1354 16.5,35C 18,35.8333 19.1667,37 20,38.5C 22.0981,37.4326 24.2648,36.9326 26.5,37C 26.6651,38.1169 26.9984,39.2836 27.5,40.5C 27.1543,41.6956 26.6543,41.6956 26,40.5C 25.5172,41.448 25.3505,42.448 25.5,43.5C 23.5,43.5 21.5,43.5 19.5,43.5C 19.5,44.8333 19.5,46.1667 19.5,47.5C 16.4017,47.4125 16.0684,47.9125 18.5,49C 17.5,51.3333 16.5,53.6667 15.5,56C 16.5,56.3333 17.5,56.6667 18.5,57C 26.23,57.2557 33.8967,57.4224 41.5,57.5C 46.8142,56.8219 52.1475,56.3219 57.5,56C 58.8908,53.6097 60.8908,51.9431 63.5,51C 63.1667,50.6667 62.8333,50.3333 62.5,50C 64.5253,45.2173 64.692,40.384 63,35.5C 62.6667,35.8333 62.3333,36.1667 62,36.5C 60.8497,31.5283 57.6831,29.5283 52.5,30.5C 48.5,30.5 44.5,30.5 40.5,30.5C 37.7131,29.5233 34.7131,29.19 31.5,29.5C 31.5,27.8333 31.5,26.1667 31.5,24.5 Z"/></g>
<g><path style="opacity:1" fill="#6b6a77" d="M 126.5,35.5 C 126.5,36.5 126.5,37.5 126.5,38.5C 125.5,38.5 124.5,38.5 123.5,38.5C 123.326,36.139 122.993,33.8056 122.5,31.5C 119.467,31.1315 116.8,31.7982 114.5,33.5C 114.631,32.7611 114.464,32.0944 114,31.5C 113.768,32.7375 113.268,33.7375 112.5,34.5C 112.232,32.901 112.566,31.5676 113.5,30.5C 116.728,29.5863 120.061,29.2529 123.5,29.5C 123.025,32.3126 124.025,34.3126 126.5,35.5 Z"/></g>
<g><path style="opacity:1" fill="#83818b" d="M 211.5,30.5 C 206.167,30.5 200.833,30.5 195.5,30.5C 195.5,31.8333 195.5,33.1667 195.5,34.5C 194.778,33.4489 193.778,32.7822 192.5,32.5C 188.702,31.5166 184.702,31.1832 180.5,31.5C 180.042,34.3938 180.709,36.8938 182.5,39C 181.552,39.4828 180.552,39.6495 179.5,39.5C 180.045,36.0024 179.212,33.0024 177,30.5C 176.209,31.745 175.709,33.0783 175.5,34.5C 174.596,35.209 174.263,36.209 174.5,37.5C 174.167,37.5 173.833,37.5 173.5,37.5C 173.737,36.209 173.404,35.209 172.5,34.5C 172.649,33.448 172.483,32.448 172,31.5C 167,31.5 162,31.5 157,31.5C 156.5,38.1583 156.334,44.825 156.5,51.5C 155.549,52.9187 155.216,54.5853 155.5,56.5C 155.167,56.5 154.833,56.5 154.5,56.5C 154.825,48.9809 154.492,41.6476 153.5,34.5C 153.5,33.5 153.5,32.5 153.5,31.5C 148.167,31.5 142.833,31.5 137.5,31.5C 137.737,32.791 137.404,33.791 136.5,34.5C 135.89,33.609 135.557,32.609 135.5,31.5C 138.569,30.2573 141.902,29.5906 145.5,29.5C 167.615,29.3332 189.615,29.6665 211.5,30.5 Z"/></g>
<g><path style="opacity:1" fill="#757c60" d="M 247.5,23.5 C 251.167,23.5 254.833,23.5 258.5,23.5C 258.5,28.1667 258.5,32.8333 258.5,37.5C 256.852,36.1902 255.186,34.8569 253.5,33.5C 252.817,33.8627 252.15,34.1961 251.5,34.5C 251.167,34.5 250.833,34.5 250.5,34.5C 250.5,33.5 250.5,32.5 250.5,31.5C 251.757,30.3774 251.424,29.7107 249.5,29.5C 248.833,27.5 248.167,25.5 247.5,23.5 Z"/></g>
<g><path style="opacity:1" fill="#a8a1a0" d="M 214.5,30.5 C 220.259,30.2143 225.925,30.5476 231.5,31.5C 231.804,32.1499 232.137,32.8165 232.5,33.5C 229.232,34.487 225.898,34.8204 222.5,34.5C 222.33,35.8221 222.663,36.9887 223.5,38C 226.817,38.4983 230.15,38.665 233.5,38.5C 233.993,40.8056 234.326,43.139 234.5,45.5C 233.833,45.5 233.167,45.5 232.5,45.5C 232.611,44.8826 232.944,44.3826 233.5,44C 231.236,43.7638 229.069,43.2638 227,42.5C 226.25,43.1258 225.416,43.6258 224.5,44C 225.435,46.3806 225.768,48.8806 225.5,51.5C 222.833,51.5 220.167,51.5 217.5,51.5C 216.338,44.5194 215.338,37.5194 214.5,30.5 Z"/></g>
<g><path style="opacity:1" fill="#cfd8f2" d="M -0.5,25.5 C -0.5,25.1667 -0.5,24.8333 -0.5,24.5C 10.1667,24.5 20.8333,24.5 31.5,24.5C 31.5,26.1667 31.5,27.8333 31.5,29.5C 34.7131,29.19 37.7131,29.5233 40.5,30.5C 39.5073,38.6499 39.1739,46.9832 39.5,55.5C 44.1785,55.6658 48.8452,55.4992 53.5,55C 60.4329,51.6282 62.9329,46.1282 61,38.5C 59.2698,34.5699 56.4364,31.9032 52.5,30.5C 57.6831,29.5283 60.8497,31.5283 62,36.5C 62.3333,36.1667 62.6667,35.8333 63,35.5C 64.692,40.384 64.5253,45.2173 62.5,50C 62.8333,50.3333 63.1667,50.6667 63.5,51C 60.8908,51.9431 58.8908,53.6097 57.5,56C 52.1475,56.3219 46.8142,56.8219 41.5,57.5C 33.8967,57.4224 26.23,57.2557 18.5,57C 17.5,56.6667 16.5,56.3333 15.5,56C 16.5,53.6667 17.5,51.3333 18.5,49C 16.0684,47.9125 16.4017,47.4125 19.5,47.5C 19.5,46.1667 19.5,44.8333 19.5,43.5C 21.5,43.5 23.5,43.5 25.5,43.5C 25.3505,42.448 25.5172,41.448 26,40.5C 26.6543,41.6956 27.1543,41.6956 27.5,40.5C 26.9984,39.2836 26.6651,38.1169 26.5,37C 24.2648,36.9326 22.0981,37.4326 20,38.5C 19.1667,37 18,35.8333 16.5,35C 15.9594,32.1354 17.2927,30.1354 20.5,29C 18.0087,28.3741 18.0087,27.5407 20.5,26.5C 13.5316,25.503 6.53157,25.1697 -0.5,25.5 Z"/></g>
<g><path style="opacity:1" fill="#72737c" d="M 34.5,34.5 C 33.5416,34.0472 32.7083,33.3805 32,32.5C 31.6667,35.1667 31.3333,37.8333 31,40.5C 30.6174,41.056 30.1174,41.3893 29.5,41.5C 30.3692,34.262 27.3692,32.5953 20.5,36.5C 19.3691,34.9255 19.2025,33.2588 20,31.5C 23.7436,30.374 27.577,30.2073 31.5,31C 33.4257,31.4224 34.4257,32.5891 34.5,34.5 Z"/></g>
<g><path style="opacity:1" fill="#a59e9b" d="M 233.5,30.5 C 239.358,30.1778 245.025,30.5111 250.5,31.5C 250.5,32.5 250.5,33.5 250.5,34.5C 245.985,34.5167 245.318,36.1834 248.5,39.5C 249.738,41.2143 250.405,43.2143 250.5,45.5C 250.357,47.2624 250.691,48.9291 251.5,50.5C 249.257,51.4742 246.924,51.8076 244.5,51.5C 242.684,46.275 240.851,40.9416 239,35.5C 237.601,34.7734 236.101,34.2734 234.5,34C 233.663,32.9887 233.33,31.8221 233.5,30.5 Z"/></g>
<g><path style="opacity:1" fill="#170e07" d="M 250.5,34.5 C 250.833,34.5 251.167,34.5 251.5,34.5C 251.5,34.8333 251.5,35.1667 251.5,35.5C 249.738,36.2623 248.738,37.5956 248.5,39.5C 245.318,36.1834 245.985,34.5167 250.5,34.5 Z"/></g>
<g><path style="opacity:1" fill="#9c9799" d="M 78.5,29.5 C 78.8333,29.5 79.1667,29.5 79.5,29.5C 82.3854,29.1936 85.0521,29.5269 87.5,30.5C 86.7515,31.531 86.0848,32.6976 85.5,34C 87.1066,35.049 87.7733,36.549 87.5,38.5C 88.8333,38.5 90.1667,38.5 91.5,38.5C 91.5674,37.0413 91.2341,35.7079 90.5,34.5C 94.1507,34.8383 95.8174,33.1716 95.5,29.5C 98.7131,29.19 101.713,29.5233 104.5,30.5C 102.116,37.2097 100.283,44.2097 99,51.5C 96.6194,52.435 94.1194,52.7683 91.5,52.5C 91.7423,49.319 91.7423,46.319 91.5,43.5C 90.7333,47.3419 88.3999,49.0086 84.5,48.5C 84.7852,46.712 84.4519,45.0453 83.5,43.5C 81.8806,46.1879 80.5473,49.0212 79.5,52C 77.5273,52.4955 75.5273,52.6621 73.5,52.5C 72.8761,52.0831 72.5427,51.4164 72.5,50.5C 74.9124,43.5986 76.9124,36.5986 78.5,29.5 Z"/></g>
<g><path style="opacity:1" fill="#07060c" d="M 87.5,30.5 C 88.5116,31.8717 89.5116,33.205 90.5,34.5C 91.2341,35.7079 91.5674,37.0413 91.5,38.5C 90.1667,38.5 88.8333,38.5 87.5,38.5C 87.7733,36.549 87.1066,35.049 85.5,34C 86.0848,32.6976 86.7515,31.531 87.5,30.5 Z"/></g>
<g><path style="opacity:1" fill="#a7a1a0" d="M 211.5,30.5 C 212.167,30.5 212.833,30.5 213.5,30.5C 212.492,35.17 212.825,39.8367 214.5,44.5C 214.182,45.6473 213.516,46.4806 212.5,47C 214.863,47.5885 215.863,49.0885 215.5,51.5C 212.813,51.6641 210.146,51.4974 207.5,51C 206.897,49.1746 206.23,47.3413 205.5,45.5C 204.319,47.1353 204.319,48.802 205.5,50.5C 202.572,51.4841 199.572,51.8174 196.5,51.5C 196.24,45.828 195.907,40.1613 195.5,34.5C 195.5,33.1667 195.5,31.8333 195.5,30.5C 200.833,30.5 206.167,30.5 211.5,30.5 Z"/></g>
<g><path style="opacity:1" fill="#ada597" d="M 258.5,37.5 C 258.5,40.8333 258.5,44.1667 258.5,47.5C 257.5,47.5 256.5,47.5 255.5,47.5C 257.128,43.6445 256.795,39.9779 254.5,36.5C 253.583,35.8728 252.583,35.5394 251.5,35.5C 251.5,35.1667 251.5,34.8333 251.5,34.5C 252.15,34.1961 252.817,33.8627 253.5,33.5C 255.186,34.8569 256.852,36.1902 258.5,37.5 Z"/></g>
<g><path style="opacity:1" fill="#a49d9c" d="M 105.5,30.5 C 108.167,29.1667 110.833,29.1667 113.5,30.5C 112.566,31.5676 112.232,32.901 112.5,34.5C 111.336,40.147 110.169,45.8137 109,51.5C 106.731,51.7259 104.231,52.0592 101.5,52.5C 102.087,45.0645 103.753,37.8979 106.5,31C 106.272,30.6012 105.938,30.4346 105.5,30.5 Z"/></g>
<g><path style="opacity:1" fill="#a49d9c" d="M 153.5,34.5 C 150.167,34.5 146.833,34.5 143.5,34.5C 143.5,35.5 143.5,36.5 143.5,37.5C 146.625,38.4794 149.958,38.8128 153.5,38.5C 153.714,40.1439 153.38,41.6439 152.5,43C 149.447,43.1786 146.447,43.6786 143.5,44.5C 143.167,45.1667 142.833,45.8333 142.5,46.5C 146.107,47.4892 149.774,47.8226 153.5,47.5C 153.714,49.1439 153.38,50.6439 152.5,52C 148.459,52.8265 144.459,52.6599 140.5,51.5C 138.995,48.8694 138.329,49.2027 138.5,52.5C 137.167,52.5 135.833,52.5 134.5,52.5C 134.904,46.4533 135.571,40.4533 136.5,34.5C 137.404,33.791 137.737,32.791 137.5,31.5C 142.833,31.5 148.167,31.5 153.5,31.5C 153.5,32.5 153.5,33.5 153.5,34.5 Z"/></g>
<g><path style="opacity:1" fill="#a39d9d" d="M 192.5,32.5 C 194.465,36.7363 193.132,39.2363 188.5,40C 190.433,40.2511 192.266,40.7511 194,41.5C 194.498,44.8168 194.665,48.1501 194.5,51.5C 191.833,51.5 189.167,51.5 186.5,51.5C 184.47,40.8938 183.803,40.8938 184.5,51.5C 181.833,51.5 179.167,51.5 176.5,51.5C 176.664,48.8127 176.497,46.146 176,43.5C 175.501,48.4889 175.334,53.4889 175.5,58.5C 177.833,58.5 180.167,58.5 182.5,58.5C 179.604,59.7752 176.604,59.7752 173.5,58.5C 173.5,56.5 173.5,54.5 173.5,52.5C 172.167,52.5 170.833,52.5 169.5,52.5C 169.167,48.5 168.833,48.5 168.5,52.5C 165.756,52.7521 163.256,52.0855 161,50.5C 159.56,51.1476 158.06,51.4809 156.5,51.5C 156.334,44.825 156.5,38.1583 157,31.5C 162,31.5 167,31.5 172,31.5C 172.483,32.448 172.649,33.448 172.5,34.5C 169.5,34.5 166.5,34.5 163.5,34.5C 163.5,37.1667 163.5,39.8333 163.5,42.5C 166.5,42.5 169.5,42.5 172.5,42.5C 170.052,43.4731 167.385,43.8064 164.5,43.5C 164.5,44.5 164.5,45.5 164.5,46.5C 167.833,46.5 171.167,46.5 174.5,46.5C 174.5,45.1667 174.5,43.8333 174.5,42.5C 175.89,39.9057 176.223,37.239 175.5,34.5C 175.709,33.0783 176.209,31.745 177,30.5C 179.212,33.0024 180.045,36.0024 179.5,39.5C 180.552,39.6495 181.552,39.4828 182.5,39C 180.709,36.8938 180.042,34.3938 180.5,31.5C 184.702,31.1832 188.702,31.5166 192.5,32.5 Z"/></g>
<g><path style="opacity:1" fill="#0f0c0f" d="M 175.5,34.5 C 176.223,37.239 175.89,39.9057 174.5,42.5C 174.5,40.8333 174.5,39.1667 174.5,37.5C 174.263,36.209 174.596,35.209 175.5,34.5 Z"/></g>
<g><path style="opacity:1" fill="#2d2624" d="M 183.5,34.5 C 184.586,34.62 185.253,35.2867 185.5,36.5C 185.167,37.1667 184.833,37.8333 184.5,38.5C 183.571,37.3112 183.238,35.9778 183.5,34.5 Z"/></g>
<g><path style="opacity:1" fill="#151517" d="M 172.5,34.5 C 173.404,35.209 173.737,36.209 173.5,37.5C 173.784,39.4147 173.451,41.0813 172.5,42.5C 169.5,42.5 166.5,42.5 163.5,42.5C 163.5,39.8333 163.5,37.1667 163.5,34.5C 166.5,34.5 169.5,34.5 172.5,34.5 Z"/></g>
<g><path style="opacity:1" fill="#d8bb9a" d="M 251.5,35.5 C 252.583,35.5394 253.583,35.8728 254.5,36.5C 256.795,39.9779 257.128,43.6445 255.5,47.5C 254.5,47.5 253.5,47.5 252.5,47.5C 251.833,46.8333 251.167,46.1667 250.5,45.5C 250.405,43.2143 249.738,41.2143 248.5,39.5C 248.738,37.5956 249.738,36.2623 251.5,35.5 Z"/></g>
<g><path style="opacity:1" fill="#94939a" d="M 34.5,34.5 C 35.6225,36.2884 35.7891,38.2884 35,40.5C 32.6614,44.6568 29.8281,48.3235 26.5,51.5C 25.3523,50.105 24.3523,50.2716 23.5,52C 27.5408,52.1735 31.5408,52.6735 35.5,53.5C 30.1667,54.8333 24.8333,54.8333 19.5,53.5C 20.1272,52.5832 20.4606,51.5832 20.5,50.5C 23.1667,47.1667 26.1667,44.1667 29.5,41.5C 30.1174,41.3893 30.6174,41.056 31,40.5C 31.3333,37.8333 31.6667,35.1667 32,32.5C 32.7083,33.3805 33.5416,34.0472 34.5,34.5 Z"/></g>
<g><path style="opacity:1" fill="#d3d8f0" d="M 173.5,37.5 C 173.833,37.5 174.167,37.5 174.5,37.5C 174.5,39.1667 174.5,40.8333 174.5,42.5C 174.5,43.8333 174.5,45.1667 174.5,46.5C 171.167,46.5 167.833,46.5 164.5,46.5C 164.5,45.5 164.5,44.5 164.5,43.5C 167.385,43.8064 170.052,43.4731 172.5,42.5C 173.451,41.0813 173.784,39.4147 173.5,37.5 Z"/></g>
<g><path style="opacity:1" fill="#0b090b" d="M 231.5,30.5 C 231.833,30.5 232.167,30.5 232.5,30.5C 232.833,30.5 233.167,30.5 233.5,30.5C 233.33,31.8221 233.663,32.9887 234.5,34C 236.101,34.2734 237.601,34.7734 239,35.5C 240.851,40.9416 242.684,46.275 244.5,51.5C 243.909,52.1515 243.243,52.8182 242.5,53.5C 242.709,54.086 243.043,54.586 243.5,55C 241.671,55.2735 240.171,56.1068 239,57.5C 238.617,56.944 238.117,56.6107 237.5,56.5C 236.964,52.6861 235.964,49.0194 234.5,45.5C 234.326,43.139 233.993,40.8056 233.5,38.5C 230.15,38.665 226.817,38.4983 223.5,38C 222.663,36.9887 222.33,35.8221 222.5,34.5C 225.898,34.8204 229.232,34.487 232.5,33.5C 232.137,32.8165 231.804,32.1499 231.5,31.5C 231.5,31.1667 231.5,30.8333 231.5,30.5 Z"/></g>
<g><path style="opacity:1" fill="#86858e" d="M 40.5,30.5 C 44.5,30.5 48.5,30.5 52.5,30.5C 56.4364,31.9032 59.2698,34.5699 61,38.5C 62.9329,46.1282 60.4329,51.6282 53.5,55C 48.8452,55.4992 44.1785,55.6658 39.5,55.5C 39.1739,46.9832 39.5073,38.6499 40.5,30.5 Z"/></g>
<g><path style="opacity:1" fill="#cbd4f2" d="M 44.5,51.5 C 44.5,46.1667 44.5,40.8333 44.5,35.5C 55.5275,34.401 58.8609,38.901 54.5,49C 51.3924,50.7585 48.059,51.5919 44.5,51.5 Z"/></g>
<g><path style="opacity:1" fill="#212022" d="M 213.5,30.5 C 213.833,30.5 214.167,30.5 214.5,30.5C 215.338,37.5194 216.338,44.5194 217.5,51.5C 220.167,51.5 222.833,51.5 225.5,51.5C 225.768,48.8806 225.435,46.3806 224.5,44C 225.416,43.6258 226.25,43.1258 227,42.5C 229.069,43.2638 231.236,43.7638 233.5,44C 232.944,44.3826 232.611,44.8826 232.5,45.5C 228.684,48.9669 225.35,52.9669 222.5,57.5C 221,57.8333 219.5,58.1667 218,58.5C 216.019,58.3708 214.353,57.7042 213,56.5C 211.647,57.7042 209.981,58.3708 208,58.5C 203.643,58.006 199.143,58.006 194.5,58.5C 193.833,54.5 193.167,54.5 192.5,58.5C 189.833,58.5 187.167,58.5 184.5,58.5C 184.649,57.448 184.483,56.448 184,55.5C 183.768,56.7375 183.268,57.7375 182.5,58.5C 180.167,58.5 177.833,58.5 175.5,58.5C 175.334,53.4889 175.501,48.4889 176,43.5C 176.497,46.146 176.664,48.8127 176.5,51.5C 179.167,51.5 181.833,51.5 184.5,51.5C 183.803,40.8938 184.47,40.8938 186.5,51.5C 189.167,51.5 191.833,51.5 194.5,51.5C 194.665,48.1501 194.498,44.8168 194,41.5C 192.266,40.7511 190.433,40.2511 188.5,40C 193.132,39.2363 194.465,36.7363 192.5,32.5C 193.778,32.7822 194.778,33.4489 195.5,34.5C 195.907,40.1613 196.24,45.828 196.5,51.5C 199.572,51.8174 202.572,51.4841 205.5,50.5C 204.319,48.802 204.319,47.1353 205.5,45.5C 206.23,47.3413 206.897,49.1746 207.5,51C 210.146,51.4974 212.813,51.6641 215.5,51.5C 215.863,49.0885 214.863,47.5885 212.5,47C 213.516,46.4806 214.182,45.6473 214.5,44.5C 212.825,39.8367 212.492,35.17 213.5,30.5 Z"/></g>
<g><path style="opacity:1" fill="#181515" d="M 202.5,36.5 C 203.5,36.5 204.5,36.5 205.5,36.5C 207.14,37.7901 207.64,39.4567 207,41.5C 205.62,38.9422 204.12,38.9422 202.5,41.5C 201.566,39.9052 201.566,38.2385 202.5,36.5 Z"/></g>
<g><path style="opacity:1" fill="#322d2c" d="M 205.5,36.5 C 205.948,34.5354 206.948,34.2021 208.5,35.5C 207.675,36.3857 206.675,36.719 205.5,36.5 Z"/></g>
<g><path style="opacity:1" fill="#282424" d="M 202.5,36.5 C 201.325,36.719 200.325,36.3857 199.5,35.5C 201.052,34.2021 202.052,34.5354 202.5,36.5 Z"/></g>
<g><path style="opacity:1" fill="#aaa9aa" d="M 44.5,51.5 C 47.0303,52.7757 49.6969,52.7757 52.5,51.5C 53.5063,51.9377 53.5063,52.6043 52.5,53.5C 48.8927,54.4892 45.226,54.8226 41.5,54.5C 41.5,47.1667 41.5,39.8333 41.5,32.5C 44.8499,32.335 48.1832,32.5017 51.5,33C 48.854,33.4974 46.1873,33.6641 43.5,33.5C 43.1771,39.69 43.5104,45.69 44.5,51.5 Z"/></g>
<g><path style="opacity:1" fill="#28262d" d="M 250.5,45.5 C 251.167,46.1667 251.833,46.8333 252.5,47.5C 251.907,53.9266 248.407,57.5933 242,58.5C 240.014,58.4313 238.514,57.7647 237.5,56.5C 238.117,56.6107 238.617,56.944 239,57.5C 240.171,56.1068 241.671,55.2735 243.5,55C 243.043,54.586 242.709,54.086 242.5,53.5C 243.243,52.8182 243.909,52.1515 244.5,51.5C 246.924,51.8076 249.257,51.4742 251.5,50.5C 250.691,48.9291 250.357,47.2624 250.5,45.5 Z"/></g>
<g><path style="opacity:1" fill="#4f4d5c" d="M 20.5,50.5 C 20.4606,51.5832 20.1272,52.5832 19.5,53.5C 24.8333,54.8333 30.1667,54.8333 35.5,53.5C 31.5408,52.6735 27.5408,52.1735 23.5,52C 24.3523,50.2716 25.3523,50.105 26.5,51.5C 29.8333,51.5 33.1667,51.5 36.5,51.5C 36.5,52.8333 36.5,54.1667 36.5,55.5C 30.5,55.5 24.5,55.5 18.5,55.5C 18.1201,53.302 18.7868,51.6354 20.5,50.5 Z"/></g>
<g><path style="opacity:1" fill="#232427" d="M 173.5,58.5 C 167.208,59.0531 161.208,58.3864 155.5,56.5C 155.216,54.5853 155.549,52.9187 156.5,51.5C 158.06,51.4809 159.56,51.1476 161,50.5C 163.256,52.0855 165.756,52.7521 168.5,52.5C 168.833,48.5 169.167,48.5 169.5,52.5C 170.833,52.5 172.167,52.5 173.5,52.5C 173.5,54.5 173.5,56.5 173.5,58.5 Z"/></g>
<g><path style="opacity:1" fill="#222125" d="M 104.5,30.5 C 104.833,30.5 105.167,30.5 105.5,30.5C 105.938,30.4346 106.272,30.6012 106.5,31C 103.753,37.8979 102.087,45.0645 101.5,52.5C 104.231,52.0592 106.731,51.7259 109,51.5C 110.169,45.8137 111.336,40.147 112.5,34.5C 113.268,33.7375 113.768,32.7375 114,31.5C 114.464,32.0944 114.631,32.7611 114.5,33.5C 113.176,39.7783 112.176,46.1117 111.5,52.5C 114.272,51.6285 116.938,51.6285 119.5,52.5C 119.089,48.5371 119.922,44.8705 122,41.5C 122.49,42.7932 122.657,44.1266 122.5,45.5C 123.552,45.3505 124.552,45.5172 125.5,46C 124.577,48.0408 124.244,50.2075 124.5,52.5C 127.011,52.162 129.345,52.162 131.5,52.5C 132.539,48.8946 133.205,45.2279 133.5,41.5C 134.167,38.1667 134.833,34.8333 135.5,31.5C 135.557,32.609 135.89,33.609 136.5,34.5C 135.571,40.4533 134.904,46.4533 134.5,52.5C 135.833,52.5 137.167,52.5 138.5,52.5C 138.329,49.2027 138.995,48.8694 140.5,51.5C 144.459,52.6599 148.459,52.8265 152.5,52C 153.38,50.6439 153.714,49.1439 153.5,47.5C 149.774,47.8226 146.107,47.4892 142.5,46.5C 142.833,45.8333 143.167,45.1667 143.5,44.5C 146.447,43.6786 149.447,43.1786 152.5,43C 153.38,41.6439 153.714,40.1439 153.5,38.5C 153.5,37.5 153.5,36.5 153.5,35.5C 149.821,35.0604 146.488,35.727 143.5,37.5C 143.5,36.5 143.5,35.5 143.5,34.5C 146.833,34.5 150.167,34.5 153.5,34.5C 154.492,41.6476 154.825,48.9809 154.5,56.5C 154.586,57.4959 154.252,58.3292 153.5,59C 147.843,59.4994 142.176,59.6661 136.5,59.5C 136.167,55.5 135.833,55.5 135.5,59.5C 132.813,59.6641 130.146,59.4974 127.5,59C 126.458,57.082 125.292,55.2487 124,53.5C 124.592,57.8826 122.759,59.8826 118.5,59.5C 115.5,58.1667 112.5,58.1667 109.5,59.5C 107.616,59.2837 105.949,58.617 104.5,57.5C 99.7258,60.4736 95.7258,59.6403 92.5,55C 88.2885,52.8124 86.6219,54.3124 87.5,59.5C 84.4816,59.6646 81.4816,59.498 78.5,59C 77.0007,56.6721 75.334,54.5054 73.5,52.5C 75.5273,52.6621 77.5273,52.4955 79.5,52C 80.5473,49.0212 81.8806,46.1879 83.5,43.5C 84.4519,45.0453 84.7852,46.712 84.5,48.5C 88.3999,49.0086 90.7333,47.3419 91.5,43.5C 91.7423,46.319 91.7423,49.319 91.5,52.5C 94.1194,52.7683 96.6194,52.435 99,51.5C 100.283,44.2097 102.116,37.2097 104.5,30.5 Z"/></g>
<g><path style="opacity:1" fill="#a5a09d" d="M 126.5,35.5 C 130.838,35.3781 131.172,35.0447 127.5,34.5C 127.5,33.5 127.5,32.5 127.5,31.5C 129.5,31.5 131.5,31.5 133.5,31.5C 133.5,34.8333 133.5,38.1667 133.5,41.5C 133.205,45.2279 132.539,48.8946 131.5,52.5C 129.345,52.162 127.011,52.162 124.5,52.5C 124.244,50.2075 124.577,48.0408 125.5,46C 124.552,45.5172 123.552,45.3505 122.5,45.5C 122.657,44.1266 122.49,42.7932 122,41.5C 119.922,44.8705 119.089,48.5371 119.5,52.5C 116.938,51.6285 114.272,51.6285 111.5,52.5C 112.176,46.1117 113.176,39.7783 114.5,33.5C 116.8,31.7982 119.467,31.1315 122.5,31.5C 122.993,33.8056 123.326,36.139 123.5,38.5C 124.5,38.5 125.5,38.5 126.5,38.5C 126.5,37.5 126.5,36.5 126.5,35.5 Z"/></g>
<g><path style="opacity:1" fill="#070202" d="M 153.5,38.5 C 149.958,38.8128 146.625,38.4794 143.5,37.5C 146.488,35.727 149.821,35.0604 153.5,35.5C 153.5,36.5 153.5,37.5 153.5,38.5 Z"/></g>
<g><path style="opacity:1" fill="#797f8e" d="M 155.5,56.5 C 161.208,58.3864 167.208,59.0531 173.5,58.5C 167.69,59.4896 161.69,59.8229 155.5,59.5C 155.5,58.5 155.5,57.5 155.5,56.5 Z"/></g>
<g><path style="opacity:1" fill="#d0d8f4" d="M 78.5,29.5 C 76.9124,36.5986 74.9124,43.5986 72.5,50.5C 72.5427,51.4164 72.8761,52.0831 73.5,52.5C 75.334,54.5054 77.0007,56.6721 78.5,59C 81.4816,59.498 84.4816,59.6646 87.5,59.5C 86.6219,54.3124 88.2885,52.8124 92.5,55C 95.7258,59.6403 99.7258,60.4736 104.5,57.5C 105.949,58.617 107.616,59.2837 109.5,59.5C 112.5,58.1667 115.5,58.1667 118.5,59.5C 122.759,59.8826 124.592,57.8826 124,53.5C 125.292,55.2487 126.458,57.082 127.5,59C 130.146,59.4974 132.813,59.6641 135.5,59.5C 135.833,55.5 136.167,55.5 136.5,59.5C 142.176,59.6661 147.843,59.4994 153.5,59C 154.252,58.3292 154.586,57.4959 154.5,56.5C 154.833,56.5 155.167,56.5 155.5,56.5C 155.5,57.5 155.5,58.5 155.5,59.5C 154.21,60.0577 153.377,61.0577 153,62.5C 151.475,61.2799 149.641,60.6132 147.5,60.5C 144.19,61.162 141.023,61.162 138,60.5C 134.391,60.7336 131.057,61.7336 128,63.5C 125.245,63.0329 122.245,62.3663 119,61.5C 117.431,63.035 115.097,63.7016 112,63.5C 110.672,61.331 109.006,60.9977 107,62.5C 103.539,61.7819 100.039,61.2819 96.5,61C 95.354,60.3551 94.354,59.5217 93.5,58.5C 92.3044,58.8457 92.3044,59.3457 93.5,60C 92.5,60.5 91.5,61 90.5,61.5C 85.8018,62.3416 80.9684,62.3416 76,61.5C 75.6667,62.1667 75.3333,62.8333 75,63.5C 74.3109,62.6433 73.4776,61.9767 72.5,61.5C 68.8867,51.5696 69.8867,42.0696 75.5,33C 74.4829,31.9505 74.3162,30.7839 75,29.5C 76.4614,29.9372 77.6281,29.9372 78.5,29.5 Z"/></g>
<g><path style="opacity:1" fill="#7eb480" d="M 200.5,77.5 C 200.5,99.8333 200.5,122.167 200.5,144.5C 200.5,145.167 200.167,145.5 199.5,145.5C 198.5,145.5 197.5,145.5 196.5,145.5C 196.811,144.522 197.478,143.855 198.5,143.5C 199.666,122.174 199.833,100.841 199,79.5C 198.626,78.5838 198.126,77.7504 197.5,77C 177.833,76.3333 158.167,76.3333 138.5,77C 138,77.5 137.5,78 137,78.5C 136.5,92.1626 136.333,105.829 136.5,119.5C 136.5,122.5 136.5,125.5 136.5,128.5C 136.334,133.511 136.501,138.511 137,143.5C 137.717,144.044 138.217,144.711 138.5,145.5C 137.5,145.5 136.5,145.5 135.5,145.5C 134.508,145.672 133.842,145.338 133.5,144.5C 134.177,121.961 134.843,99.2942 135.5,76.5C 146.333,76.1667 157.167,75.8333 168,75.5C 179.188,75.5012 190.021,76.1678 200.5,77.5 Z"/></g>
<g><path style="opacity:1" fill="#c4e0e5" d="M 258.5,143.5 C 258.5,143.833 258.5,144.167 258.5,144.5C 241.167,144.5 223.833,144.5 206.5,144.5C 205.081,143.549 203.415,143.216 201.5,143.5C 201.831,121.327 201.497,99.327 200.5,77.5C 190.021,76.1678 179.188,75.5012 168,75.5C 157.167,75.8333 146.333,76.1667 135.5,76.5C 134.843,99.2942 134.177,121.961 133.5,144.5C 123.985,144.827 114.652,144.494 105.5,143.5C 114.533,143.716 123.533,143.383 132.5,142.5C 132.333,120.164 132.5,97.8308 133,75.5C 133.75,74.8742 134.584,74.3742 135.5,74C 157.167,73.3333 178.833,73.3333 200.5,74C 201.99,74.7455 202.99,75.9121 203.5,77.5C 202.522,99.1399 202.188,120.807 202.5,142.5C 221.143,143.434 239.81,143.767 258.5,143.5 Z"/></g>
<g><path style="opacity:1" fill="#5ba546" d="M 192.5,95.5 C 191.596,94.791 191.263,93.791 191.5,92.5C 186.167,92.5 180.833,92.5 175.5,92.5C 175.5,98.8333 175.5,105.167 175.5,111.5C 181.167,111.5 186.833,111.5 192.5,111.5C 194.5,111.5 196.5,111.5 198.5,111.5C 198.5,114.167 198.5,116.833 198.5,119.5C 196.5,119.5 194.5,119.5 192.5,119.5C 192.788,125.229 192.454,130.896 191.5,136.5C 186.208,137.495 180.875,137.828 175.5,137.5C 175.5,139.5 175.5,141.5 175.5,143.5C 172.833,143.5 170.167,143.5 167.5,143.5C 167.5,141.5 167.5,139.5 167.5,137.5C 159.5,137.5 151.5,137.5 143.5,137.5C 143.5,134.5 143.5,131.5 143.5,128.5C 141.167,128.5 138.833,128.5 136.5,128.5C 136.5,125.5 136.5,122.5 136.5,119.5C 138.833,119.5 141.167,119.5 143.5,119.5C 143.5,116.833 143.5,114.167 143.5,111.5C 148.833,111.5 154.167,111.5 159.5,111.5C 159.5,105.167 159.5,98.8333 159.5,92.5C 154.167,92.5 148.833,92.5 143.5,92.5C 143.5,89.8333 143.5,87.1667 143.5,84.5C 151.5,84.5 159.5,84.5 167.5,84.5C 167.5,82.5 167.5,80.5 167.5,78.5C 170.167,78.5 172.833,78.5 175.5,78.5C 175.5,80.5 175.5,82.5 175.5,84.5C 180.833,84.5 186.167,84.5 191.5,84.5C 192.244,88.1185 192.577,91.7852 192.5,95.5 Z"/></g>
<g><path style="opacity:1" fill="#b4dac5" d="M 200.5,77.5 C 201.497,99.327 201.831,121.327 201.5,143.5C 203.415,143.216 205.081,143.549 206.5,144.5C 204.5,144.5 202.5,144.5 200.5,144.5C 200.5,122.167 200.5,99.8333 200.5,77.5 Z"/></g>
<g><path style="opacity:1" fill="#3c3536" d="M 105.5,110.5 C 105.752,107.068 104.419,106.068 101.5,107.5C 101.942,108.739 102.609,109.739 103.5,110.5C 104.696,113.421 105.696,116.421 106.5,119.5C 101.967,120.565 100.634,123.232 102.5,127.5C 103.833,127.5 105.167,127.5 106.5,127.5C 104.63,132.532 103.963,137.865 104.5,143.5C 102.735,144.461 100.735,144.795 98.5,144.5C 98.5,144.167 98.5,143.833 98.5,143.5C 98.5,138.5 98.5,133.5 98.5,128.5C 98.3343,124.154 98.501,119.821 99,115.5C 99.3333,116.833 99.6667,118.167 100,119.5C 104.614,115.335 103.781,112.335 97.5,110.5C 95.8643,106.79 95.1977,102.79 95.5,98.5C 99.8333,98.5 104.167,98.5 108.5,98.5C 108.048,102.163 107.548,105.83 107,109.5C 106.617,110.056 106.117,110.389 105.5,110.5 Z"/></g>
<g><path style="opacity:1" fill="#d0b695" d="M 105.5,110.5 C 104.833,110.5 104.167,110.5 103.5,110.5C 102.609,109.739 101.942,108.739 101.5,107.5C 104.419,106.068 105.752,107.068 105.5,110.5 Z"/></g>
<g><path style="opacity:1" fill="#565256" d="M 97.5,110.5 C 103.781,112.335 104.614,115.335 100,119.5C 99.6667,118.167 99.3333,116.833 99,115.5C 98.501,119.821 98.3343,124.154 98.5,128.5C 97.5104,122.69 97.1771,116.69 97.5,110.5 Z"/></g>
<g><path style="opacity:1" fill="#4f893f" d="M 159.5,119.5 C 162.167,119.5 164.833,119.5 167.5,119.5C 167.5,122.5 167.5,125.5 167.5,128.5C 164.833,128.5 162.167,128.5 159.5,128.5C 159.5,125.5 159.5,122.5 159.5,119.5 Z"/></g>
<g><path style="opacity:1" fill="#444150" d="M 107.5,127.5 C 108.167,125.833 108.833,124.167 109.5,122.5C 113.176,121.246 116.676,119.579 120,117.5C 120.75,118.126 121.584,118.626 122.5,119C 121.663,120.011 121.33,121.178 121.5,122.5C 117.905,122.976 114.572,124.142 111.5,126C 110.903,127.889 110.569,129.722 110.5,131.5C 108.712,130.717 107.712,129.384 107.5,127.5 Z"/></g>
<g><path style="opacity:1" fill="#49301b" d="M 106.5,119.5 C 107.272,120.694 108.272,121.694 109.5,122.5C 108.833,124.167 108.167,125.833 107.5,127.5C 107.167,127.5 106.833,127.5 106.5,127.5C 105.167,127.5 103.833,127.5 102.5,127.5C 100.634,123.232 101.967,120.565 106.5,119.5 Z"/></g>
<g><path style="opacity:1" fill="#a4b3d4" d="M 37.5,137.5 C 34.3695,136.908 32.0361,137.908 30.5,140.5C 28.0721,141.212 25.7388,142.212 23.5,143.5C 22.5713,142.311 22.238,140.978 22.5,139.5C 18.1667,139.5 13.8333,139.5 9.5,139.5C 10.0838,142.285 9.08382,143.952 6.5,144.5C 6.16667,144.5 5.83333,144.5 5.5,144.5C 5.38929,143.883 5.05596,143.383 4.5,143C 5.83333,142.667 7.16667,142.333 8.5,142C 8.5,140.667 8.5,139.333 8.5,138C 13.6718,137.635 18.6718,137.469 23.5,137.5C 25.9156,141.329 28.2489,141.162 30.5,137C 33.0385,136.204 35.3718,136.371 37.5,137.5 Z"/></g>
<g><path style="opacity:1" fill="#1b314b" d="M 37.5,137.5 C 37.5,139.833 37.5,142.167 37.5,144.5C 37.5,146.167 37.5,147.833 37.5,149.5C 37.1667,149.5 36.8333,149.5 36.5,149.5C 36.5,148.833 36.5,148.167 36.5,147.5C 36.5,144.5 36.5,141.5 36.5,138.5C 34.3146,138.704 32.3146,139.37 30.5,140.5C 32.0361,137.908 34.3695,136.908 37.5,137.5 Z"/></g>
<g><path style="opacity:1" fill="#344564" d="M 30.5,140.5 C 28.6329,141.76 27.2995,143.427 26.5,145.5C 25.8826,145.389 25.3826,145.056 25,144.5C 24.7679,145.737 24.2679,146.737 23.5,147.5C 23.1788,145.952 22.1788,145.285 20.5,145.5C 19.948,139.031 18.948,139.031 17.5,145.5C 16.1667,145.5 14.8333,145.5 13.5,145.5C 13.5,143.833 13.5,142.167 13.5,140.5C 12.5,140.5 11.5,140.5 10.5,140.5C 10.5,142.167 10.5,143.833 10.5,145.5C 9.16667,145.5 7.83333,145.5 6.5,145.5C 6.5,145.167 6.5,144.833 6.5,144.5C 9.08382,143.952 10.0838,142.285 9.5,139.5C 13.8333,139.5 18.1667,139.5 22.5,139.5C 22.238,140.978 22.5713,142.311 23.5,143.5C 25.7388,142.212 28.0721,141.212 30.5,140.5 Z"/></g>
<g><path style="opacity:1" fill="#82a3ca" d="M 37.5,137.5 C 39.0358,139.025 40.0358,141.025 40.5,143.5C 41.1719,142.051 41.8386,140.718 42.5,139.5C 43.0031,144.5 43.3364,144.167 43.5,138.5C 47.5,138.5 51.5,138.5 55.5,138.5C 55.5,139.833 55.5,141.167 55.5,142.5C 52.8127,142.336 50.146,142.503 47.5,143C 46.7476,143.671 46.4142,144.504 46.5,145.5C 45.5,145.5 44.5,145.5 43.5,145.5C 43.7373,146.791 43.404,147.791 42.5,148.5C 42.7678,146.901 42.4345,145.568 41.5,144.5C 40.1667,144.5 38.8333,144.5 37.5,144.5C 37.5,142.167 37.5,139.833 37.5,137.5 Z"/></g>
<g><path style="opacity:1" fill="#70bc5e" d="M 196.5,145.5 C 177.167,145.5 157.833,145.5 138.5,145.5C 138.217,144.711 137.717,144.044 137,143.5C 136.501,138.511 136.334,133.511 136.5,128.5C 138.833,128.5 141.167,128.5 143.5,128.5C 143.5,131.5 143.5,134.5 143.5,137.5C 151.5,137.5 159.5,137.5 167.5,137.5C 167.5,139.5 167.5,141.5 167.5,143.5C 170.167,143.5 172.833,143.5 175.5,143.5C 175.5,141.5 175.5,139.5 175.5,137.5C 180.875,137.828 186.208,137.495 191.5,136.5C 192.454,130.896 192.788,125.229 192.5,119.5C 194.5,119.5 196.5,119.5 198.5,119.5C 198.5,116.833 198.5,114.167 198.5,111.5C 196.5,111.5 194.5,111.5 192.5,111.5C 192.5,106.167 192.5,100.833 192.5,95.5C 192.577,91.7852 192.244,88.1185 191.5,84.5C 186.167,84.5 180.833,84.5 175.5,84.5C 175.5,82.5 175.5,80.5 175.5,78.5C 172.833,78.5 170.167,78.5 167.5,78.5C 167.5,80.5 167.5,82.5 167.5,84.5C 159.5,84.5 151.5,84.5 143.5,84.5C 143.5,87.1667 143.5,89.8333 143.5,92.5C 143.5,98.8333 143.5,105.167 143.5,111.5C 143.5,114.167 143.5,116.833 143.5,119.5C 141.167,119.5 138.833,119.5 136.5,119.5C 136.333,105.829 136.5,92.1626 137,78.5C 137.5,78 138,77.5 138.5,77C 158.167,76.3333 177.833,76.3333 197.5,77C 198.126,77.7504 198.626,78.5838 199,79.5C 199.833,100.841 199.666,122.174 198.5,143.5C 197.478,143.855 196.811,144.522 196.5,145.5 Z"/></g>
<g><path style="opacity:1" fill="#548b44" d="M 143.5,92.5 C 148.833,92.5 154.167,92.5 159.5,92.5C 159.5,98.8333 159.5,105.167 159.5,111.5C 154.167,111.5 148.833,111.5 143.5,111.5C 143.5,105.167 143.5,98.8333 143.5,92.5 Z"/></g>
<g><path style="opacity:1" fill="#548b44" d="M 192.5,95.5 C 192.5,100.833 192.5,106.167 192.5,111.5C 186.833,111.5 181.167,111.5 175.5,111.5C 175.5,105.167 175.5,98.8333 175.5,92.5C 180.833,92.5 186.167,92.5 191.5,92.5C 191.263,93.791 191.596,94.791 192.5,95.5 Z"/></g>
<g><path style="opacity:1" fill="#92b0e1" d="M 36.5,147.5 C 35.5284,149.493 34.1951,149.826 32.5,148.5C 32.6602,146.801 32.4935,145.134 32,143.5C 31.2828,144.044 30.7828,144.711 30.5,145.5C 29.1667,146.833 27.8333,146.833 26.5,145.5C 27.2995,143.427 28.6329,141.76 30.5,140.5C 32.3146,139.37 34.3146,138.704 36.5,138.5C 36.5,141.5 36.5,144.5 36.5,147.5 Z"/></g>
<g><path style="opacity:1" fill="#1e3758" d="M 55.5,142.5 C 55.5,141.167 55.5,139.833 55.5,138.5C 51.5,138.5 47.5,138.5 43.5,138.5C 43.3364,144.167 43.0031,144.5 42.5,139.5C 46.7147,137.564 51.3814,136.897 56.5,137.5C 56.7845,139.415 56.4511,141.081 55.5,142.5 Z"/></g>
<g><path style="opacity:1" fill="#749087" d="M 98.5,143.5 C 98.5,143.833 98.5,144.167 98.5,144.5C 84.3431,145.496 70.0097,145.829 55.5,145.5C 55.5,145.167 55.5,144.833 55.5,144.5C 69.9118,144.816 84.2452,144.482 98.5,143.5 Z"/></g>
<g><path style="opacity:1" fill="#38414c" d="M 55.5,142.5 C 53.7078,143.309 51.7078,143.809 49.5,144C 51.4727,144.495 53.4727,144.662 55.5,144.5C 55.5,144.833 55.5,145.167 55.5,145.5C 54.9569,145.56 54.6236,145.893 54.5,146.5C 55.1925,147.518 55.8592,148.518 56.5,149.5C 56.1667,149.5 55.8333,149.5 55.5,149.5C 52.2797,148.36 49.2797,147.026 46.5,145.5C 46.4142,144.504 46.7476,143.671 47.5,143C 50.146,142.503 52.8127,142.336 55.5,142.5 Z"/></g>
<g><path style="opacity:1" fill="#5e794f" d="M 104.5,143.5 C 104.833,143.5 105.167,143.5 105.5,143.5C 114.652,144.494 123.985,144.827 133.5,144.5C 133.842,145.338 134.508,145.672 135.5,145.5C 136.751,147.22 138.251,147.553 140,146.5C 146.956,147.201 153.956,147.868 161,148.5C 162.606,146.016 164.106,146.016 165.5,148.5C 166.944,147.019 167.611,147.352 167.5,149.5C 165.901,149.232 164.568,149.566 163.5,150.5C 162.833,150.833 162.167,151.167 161.5,151.5C 161.53,150.503 161.03,149.836 160,149.5C 158.042,148.949 156.042,148.615 154,148.5C 141.064,148.865 127.898,149.198 114.5,149.5C 112.616,149.284 110.949,148.617 109.5,147.5C 105.408,149.512 101.075,150.012 96.5,149C 96.9574,148.586 97.2907,148.086 97.5,147.5C 96.5,147.167 95.5,146.833 94.5,146.5C 91.4118,147.514 88.2452,148.181 85,148.5C 75.6914,149.451 66.5247,149.784 57.5,149.5C 57.1667,149.5 56.8333,149.5 56.5,149.5C 55.8592,148.518 55.1925,147.518 54.5,146.5C 54.6236,145.893 54.9569,145.56 55.5,145.5C 70.0097,145.829 84.3431,145.496 98.5,144.5C 100.735,144.795 102.735,144.461 104.5,143.5 Z"/></g>
<g><path style="opacity:1" fill="#a1abd4" d="M 23.5,147.5 C 23.5,147.833 23.5,148.167 23.5,148.5C 22.5,148.5 21.5,148.5 20.5,148.5C 20.7373,149.791 20.404,150.791 19.5,151.5C 18.2223,151.782 17.2223,152.449 16.5,153.5C 16.5,151.833 16.5,150.167 16.5,148.5C 15.1667,148.5 13.8333,148.5 12.5,148.5C 12.5,149.833 12.5,151.167 12.5,152.5C 11.5,152.5 10.5,152.5 9.5,152.5C 9.5,151.167 9.5,149.833 9.5,148.5C 8.5,148.5 7.5,148.5 6.5,148.5C 5.16667,147.5 5.16667,146.5 6.5,145.5C 7.83333,145.5 9.16667,145.5 10.5,145.5C 10.5,143.833 10.5,142.167 10.5,140.5C 11.5,140.5 12.5,140.5 13.5,140.5C 13.5,142.167 13.5,143.833 13.5,145.5C 14.8333,145.5 16.1667,145.5 17.5,145.5C 18.948,139.031 19.948,139.031 20.5,145.5C 22.1788,145.285 23.1788,145.952 23.5,147.5 Z"/></g>
<g><path style="opacity:1" fill="#598745" d="M 135.5,145.5 C 136.5,145.5 137.5,145.5 138.5,145.5C 157.833,145.5 177.167,145.5 196.5,145.5C 197.5,145.5 198.5,145.5 199.5,145.5C 198.833,146.5 198.167,147.5 197.5,148.5C 195.735,149.461 193.735,149.795 191.5,149.5C 190.816,147.815 189.483,146.815 187.5,146.5C 182.701,147.117 178.034,147.784 173.5,148.5C 171.735,149.461 169.735,149.795 167.5,149.5C 167.611,147.352 166.944,147.019 165.5,148.5C 164.106,146.016 162.606,146.016 161,148.5C 153.956,147.868 146.956,147.201 140,146.5C 138.251,147.553 136.751,147.22 135.5,145.5 Z"/></g>
<g><path style="opacity:1" fill="#627d55" d="M 200.5,144.5 C 202.5,144.5 204.5,144.5 206.5,144.5C 223.833,144.5 241.167,144.5 258.5,144.5C 258.5,146.833 258.5,149.167 258.5,151.5C 257.527,151.013 256.527,150.513 255.5,150C 238.666,150.134 221.999,149.3 205.5,147.5C 204.808,148.025 204.308,148.692 204,149.5C 201.959,148.577 199.792,148.244 197.5,148.5C 198.167,147.5 198.833,146.5 199.5,145.5C 200.167,145.5 200.5,145.167 200.5,144.5 Z"/></g>
<g><path style="opacity:1" fill="#5c6e41" d="M 191.5,149.5 C 185.441,149.746 179.441,149.413 173.5,148.5C 178.034,147.784 182.701,147.117 187.5,146.5C 189.483,146.815 190.816,147.815 191.5,149.5 Z"/></g>
<g><path style="opacity:1" fill="#647e58" d="M -0.5,144.5 C 1.16667,144.5 2.83333,144.5 4.5,144.5C 4.66212,146.527 4.49546,148.527 4,150.5C 2.58609,149.587 1.08609,149.587 -0.5,150.5C -0.5,148.5 -0.5,146.5 -0.5,144.5 Z"/></g>
<g><path style="opacity:1" fill="#baaee0" d="M 46.5,145.5 C 49.2797,147.026 52.2797,148.36 55.5,149.5C 56.7752,152.604 56.7752,155.604 55.5,158.5C 55.8795,155.433 54.8795,154.433 52.5,155.5C 51.7625,150.663 49.0958,149.329 44.5,151.5C 43.0815,150.995 42.4148,149.995 42.5,148.5C 43.404,147.791 43.7373,146.791 43.5,145.5C 44.5,145.5 45.5,145.5 46.5,145.5 Z"/></g>
<g><path style="opacity:1" fill="#595c37" d="M 161.5,151.5 C 151.656,150.751 141.656,150.918 131.5,152C 130.627,153.045 129.627,153.878 128.5,154.5C 127.653,153.034 126.32,152.2 124.5,152C 118.672,151.44 112.838,150.94 107,150.5C 103.242,150.72 99.742,151.054 96.5,151.5C 93.6075,149.929 90.4408,149.263 87,149.5C 77.7876,150.565 68.2876,151.565 58.5,152.5C 58.4431,151.391 58.1098,150.391 57.5,149.5C 66.5247,149.784 75.6914,149.451 85,148.5C 88.2452,148.181 91.4118,147.514 94.5,146.5C 95.5,146.833 96.5,147.167 97.5,147.5C 97.2907,148.086 96.9574,148.586 96.5,149C 101.075,150.012 105.408,149.512 109.5,147.5C 110.949,148.617 112.616,149.284 114.5,149.5C 127.898,149.198 141.064,148.865 154,148.5C 156.042,148.615 158.042,148.949 160,149.5C 161.03,149.836 161.53,150.503 161.5,151.5 Z"/></g>
<g><path style="opacity:1" fill="#5a5736" d="M 258.5,151.5 C 258.5,152.167 258.5,152.833 258.5,153.5C 256.971,152.653 255.304,151.986 253.5,151.5C 249.389,153.346 245.056,153.846 240.5,153C 238.768,151.347 236.601,150.514 234,150.5C 228.699,150.683 223.366,150.683 218,150.5C 213.236,151.314 208.402,151.981 203.5,152.5C 199.452,152.809 195.286,152.475 191,151.5C 189.019,151.629 187.353,152.296 186,153.5C 183.518,150.176 180.685,149.842 177.5,152.5C 176.5,151.833 175.5,151.167 174.5,150.5C 170.875,151.264 167.208,151.264 163.5,150.5C 164.568,149.566 165.901,149.232 167.5,149.5C 169.735,149.795 171.735,149.461 173.5,148.5C 179.441,149.413 185.441,149.746 191.5,149.5C 193.735,149.795 195.735,149.461 197.5,148.5C 199.792,148.244 201.959,148.577 204,149.5C 204.308,148.692 204.808,148.025 205.5,147.5C 221.999,149.3 238.666,150.134 255.5,150C 256.527,150.513 257.527,151.013 258.5,151.5 Z"/></g>
<g><path style="opacity:1" fill="#4e412e" d="M 4.5,144.5 C 4.83333,144.5 5.16667,144.5 5.5,144.5C 5.83333,144.5 6.16667,144.5 6.5,144.5C 6.5,144.833 6.5,145.167 6.5,145.5C 5.16667,146.5 5.16667,147.5 6.5,148.5C 8.00237,150.829 7.3357,152.163 4.5,152.5C 2.67761,152.831 1.01094,153.498 -0.5,154.5C -0.5,153.167 -0.5,151.833 -0.5,150.5C 1.08609,149.587 2.58609,149.587 4,150.5C 4.49546,148.527 4.66212,146.527 4.5,144.5 Z"/></g>
<g><path style="opacity:1" fill="#321e2f" d="M 6.5,148.5 C 7.5,148.5 8.5,148.5 9.5,148.5C 9.5,149.833 9.5,151.167 9.5,152.5C 8.16667,153.167 6.83333,153.833 5.5,154.5C 4.66175,154.158 4.32842,153.492 4.5,152.5C 7.3357,152.163 8.00237,150.829 6.5,148.5 Z"/></g>
<g><path style="opacity:1" fill="#180e18" d="M 16.5,153.5 C 14.901,153.768 13.5676,153.434 12.5,152.5C 12.5,151.167 12.5,149.833 12.5,148.5C 13.8333,148.5 15.1667,148.5 16.5,148.5C 16.5,150.167 16.5,151.833 16.5,153.5 Z"/></g>
<g><path style="opacity:1" fill="#4b4932" d="M 26.5,145.5 C 27.8333,146.833 29.1667,146.833 30.5,145.5C 31.4345,146.568 31.7678,147.901 31.5,149.5C 30.8365,151.042 30.1698,152.709 29.5,154.5C 28.8333,154.167 28.1667,153.833 27.5,153.5C 26.7022,155.078 26.2022,156.744 26,158.5C 25.7679,157.263 25.2679,156.263 24.5,155.5C 24.9234,154.735 25.2568,153.902 25.5,153C 24.1567,151.36 23.4901,149.86 23.5,148.5C 23.5,148.167 23.5,147.833 23.5,147.5C 24.2679,146.737 24.7679,145.737 25,144.5C 25.3826,145.056 25.8826,145.389 26.5,145.5 Z"/></g>
<g><path style="opacity:1" fill="#d5a6d6" d="M 19.5,151.5 C 20.1834,153.176 21.5168,153.843 23.5,153.5C 23.5,154.5 23.5,155.5 23.5,156.5C 19.5,155.833 17.8333,157.5 18.5,161.5C 17.5,161.5 16.5,161.5 15.5,161.5C 15.5,160.167 15.5,158.833 15.5,157.5C 14.1667,157.5 12.8333,157.5 11.5,157.5C 11.5,158.833 11.5,160.167 11.5,161.5C 10.5,161.5 9.5,161.5 8.5,161.5C 8.5,159.833 8.5,158.167 8.5,156.5C 7.5,156.5 6.5,156.5 5.5,156.5C 5.5,155.833 5.5,155.167 5.5,154.5C 6.83333,153.833 8.16667,153.167 9.5,152.5C 10.5,152.5 11.5,152.5 12.5,152.5C 13.5676,153.434 14.901,153.768 16.5,153.5C 17.2223,152.449 18.2223,151.782 19.5,151.5 Z"/></g>
<g><path style="opacity:1" fill="#442827" d="M 23.5,148.5 C 23.4901,149.86 24.1567,151.36 25.5,153C 25.2568,153.902 24.9234,154.735 24.5,155.5C 22.7222,157.805 21.0555,160.305 19.5,163C 17.4325,163.687 15.4325,163.52 13.5,162.5C 8.88731,165.504 5.55398,164.671 3.5,160C 4.83333,159 4.83333,158 3.5,157C 4.09442,156.536 4.76109,156.369 5.5,156.5C 6.5,156.5 7.5,156.5 8.5,156.5C 8.5,158.167 8.5,159.833 8.5,161.5C 9.5,161.5 10.5,161.5 11.5,161.5C 11.5,160.167 11.5,158.833 11.5,157.5C 12.8333,157.5 14.1667,157.5 15.5,157.5C 15.5,158.833 15.5,160.167 15.5,161.5C 16.5,161.5 17.5,161.5 18.5,161.5C 17.8333,157.5 19.5,155.833 23.5,156.5C 23.5,155.5 23.5,154.5 23.5,153.5C 21.5168,153.843 20.1834,153.176 19.5,151.5C 20.404,150.791 20.7373,149.791 20.5,148.5C 21.5,148.5 22.5,148.5 23.5,148.5 Z"/></g>
<g><path style="opacity:1" fill="#43222d" d="M 32.5,148.5 C 32.5,152.833 32.5,157.167 32.5,161.5C 33.8333,161.5 35.1667,161.5 36.5,161.5C 36.5,157.5 36.5,153.5 36.5,149.5C 36.8333,149.5 37.1667,149.5 37.5,149.5C 37.9926,151.806 38.3259,154.139 38.5,156.5C 42.2148,156.423 45.8815,156.756 49.5,157.5C 49.4208,156.07 49.7542,154.736 50.5,153.5C 47.6336,152.792 44.8003,152.125 42,151.5C 41.5034,149.19 41.3367,146.857 41.5,144.5C 42.4345,145.568 42.7678,146.901 42.5,148.5C 42.4148,149.995 43.0815,150.995 44.5,151.5C 49.0958,149.329 51.7625,150.663 52.5,155.5C 51.9218,157.38 50.5885,158.38 48.5,158.5C 45.56,156.854 43.2267,157.354 41.5,160C 43.0664,160.608 44.3998,161.442 45.5,162.5C 43.6583,162.277 41.825,161.943 40,161.5C 37.3211,162.895 34.4877,163.561 31.5,163.5C 31.5,158.833 31.5,154.167 31.5,149.5C 31.7678,147.901 31.4345,146.568 30.5,145.5C 30.7828,144.711 31.2828,144.044 32,143.5C 32.4935,145.134 32.6602,146.801 32.5,148.5 Z"/></g>
<g><path style="opacity:1" fill="#dcafdf" d="M 36.5,147.5 C 36.5,148.167 36.5,148.833 36.5,149.5C 36.5,153.5 36.5,157.5 36.5,161.5C 35.1667,161.5 33.8333,161.5 32.5,161.5C 32.5,157.167 32.5,152.833 32.5,148.5C 34.1951,149.826 35.5284,149.493 36.5,147.5 Z"/></g>
<g><path style="opacity:1" fill="#65533e" d="M 37.5,144.5 C 38.8333,144.5 40.1667,144.5 41.5,144.5C 41.3367,146.857 41.5034,149.19 42,151.5C 44.8003,152.125 47.6336,152.792 50.5,153.5C 49.7542,154.736 49.4208,156.07 49.5,157.5C 45.8815,156.756 42.2148,156.423 38.5,156.5C 38.3259,154.139 37.9926,151.806 37.5,149.5C 37.5,147.833 37.5,146.167 37.5,144.5 Z"/></g>
<g><path style="opacity:1" fill="#835e42" d="M 161.5,151.5 C 162.167,151.167 162.833,150.833 163.5,150.5C 167.208,151.264 170.875,151.264 174.5,150.5C 175.5,151.167 176.5,151.833 177.5,152.5C 180.685,149.842 183.518,150.176 186,153.5C 187.353,152.296 189.019,151.629 191,151.5C 195.286,152.475 199.452,152.809 203.5,152.5C 208.402,151.981 213.236,151.314 218,150.5C 223.366,150.683 228.699,150.683 234,150.5C 236.601,150.514 238.768,151.347 240.5,153C 245.056,153.846 249.389,153.346 253.5,151.5C 255.304,151.986 256.971,152.653 258.5,153.5C 258.5,158.833 258.5,164.167 258.5,169.5C 244.833,169.5 231.167,169.5 217.5,169.5C 221.829,168.939 226.162,168.106 230.5,167C 229.551,166.383 228.718,166.549 228,167.5C 227.56,165.924 226.727,164.59 225.5,163.5C 225.709,162.914 226.043,162.414 226.5,162C 225.1,160.562 223.433,159.729 221.5,159.5C 222.014,161.698 223.014,163.698 224.5,165.5C 222.862,166.958 221.195,167.292 219.5,166.5C 215.015,167.196 210.515,167.863 206,168.5C 204.5,168 203,167.5 201.5,167C 202.711,166.107 202.711,165.274 201.5,164.5C 199.95,166.959 197.95,167.626 195.5,166.5C 187.425,168.573 179.425,168.573 171.5,166.5C 167.946,168.484 164.28,168.817 160.5,167.5C 155.701,168.117 151.034,168.784 146.5,169.5C 121.5,169.5 96.5,169.5 71.5,169.5C 72.0065,168.141 73.0065,167.141 74.5,166.5C 72.4694,164.522 70.8028,164.522 69.5,166.5C 68.2798,165.289 67.1131,165.289 66,166.5C 65.6758,164.431 64.8425,164.098 63.5,165.5C 63.0941,164.443 63.0941,163.109 63.5,161.5C 65.8239,161.995 67.9906,161.995 70,161.5C 70.9503,162.022 71.7836,162.689 72.5,163.5C 73.5237,162.147 74.857,161.48 76.5,161.5C 76.67,162.822 76.3366,163.989 75.5,165C 76.3133,166.885 77.6467,167.551 79.5,167C 79.6022,164.671 79.2689,162.171 78.5,159.5C 79.8221,159.33 80.9887,159.663 82,160.5C 82.5,160 83,159.5 83.5,159C 79.8061,158.722 76.1394,158.722 72.5,159C 69.6958,156.399 70.0292,154.899 73.5,154.5C 73.8333,158.5 74.1667,158.5 74.5,154.5C 80.3623,153.208 86.3623,152.208 92.5,151.5C 92.238,152.978 92.5713,154.311 93.5,155.5C 94.7362,154.754 96.0695,154.421 97.5,154.5C 97.762,155.978 97.4287,157.311 96.5,158.5C 95.0013,156.198 93.668,156.531 92.5,159.5C 90.5841,158.752 88.5841,158.752 86.5,159.5C 86.6495,160.552 86.4828,161.552 86,162.5C 84.8647,162.727 83.698,163.06 82.5,163.5C 85.5661,167.489 87.2327,166.823 87.5,161.5C 91.4397,161.818 95.2731,161.818 99,161.5C 100.257,161.85 100.591,162.517 100,163.5C 98.3523,164.717 96.519,165.55 94.5,166C 96.4731,168.015 98.1397,167.848 99.5,165.5C 101.249,168.127 102.916,168.127 104.5,165.5C 103.752,163.668 102.752,162.001 101.5,160.5C 103.078,159.702 104.744,159.202 106.5,159C 104.101,158.289 101.768,158.456 99.5,159.5C 98.5481,157.955 98.2148,156.288 98.5,154.5C 101.763,153.862 104.929,153.862 108,154.5C 108.667,153.833 109.333,153.167 110,152.5C 110.388,153.428 111.055,154.095 112,154.5C 113.44,153.852 114.94,153.519 116.5,153.5C 116.351,154.552 116.517,155.552 117,156.5C 118.049,154.893 119.549,154.227 121.5,154.5C 121.833,158.5 122.167,158.5 122.5,154.5C 124.5,154.5 126.5,154.5 128.5,154.5C 129.627,153.878 130.627,153.045 131.5,152C 141.656,150.918 151.656,150.751 161.5,151.5 Z"/></g>
<g><path style="opacity:1" fill="#78583f" d="M 31.5,149.5 C 31.5,154.167 31.5,158.833 31.5,163.5C 34.4877,163.561 37.3211,162.895 40,161.5C 41.825,161.943 43.6583,162.277 45.5,162.5C 45.8333,162.5 46.1667,162.5 46.5,162.5C 49.0241,163.8 51.6908,163.8 54.5,162.5C 55.1667,161.167 56.1667,160.167 57.5,159.5C 58.4742,157.257 58.8076,154.924 58.5,152.5C 68.2876,151.565 77.7876,150.565 87,149.5C 90.4408,149.263 93.6075,149.929 96.5,151.5C 99.742,151.054 103.242,150.72 107,150.5C 112.838,150.94 118.672,151.44 124.5,152C 126.32,152.2 127.653,153.034 128.5,154.5C 126.5,154.5 124.5,154.5 122.5,154.5C 122.167,158.5 121.833,158.5 121.5,154.5C 119.549,154.227 118.049,154.893 117,156.5C 116.517,155.552 116.351,154.552 116.5,153.5C 114.94,153.519 113.44,153.852 112,154.5C 111.055,154.095 110.388,153.428 110,152.5C 109.333,153.167 108.667,153.833 108,154.5C 104.929,153.862 101.763,153.862 98.5,154.5C 98.2148,156.288 98.5481,157.955 99.5,159.5C 101.768,158.456 104.101,158.289 106.5,159C 104.744,159.202 103.078,159.702 101.5,160.5C 102.752,162.001 103.752,163.668 104.5,165.5C 102.916,168.127 101.249,168.127 99.5,165.5C 98.1397,167.848 96.4731,168.015 94.5,166C 96.519,165.55 98.3523,164.717 100,163.5C 100.591,162.517 100.257,161.85 99,161.5C 95.2731,161.818 91.4397,161.818 87.5,161.5C 87.2327,166.823 85.5661,167.489 82.5,163.5C 83.698,163.06 84.8647,162.727 86,162.5C 86.4828,161.552 86.6495,160.552 86.5,159.5C 88.5841,158.752 90.5841,158.752 92.5,159.5C 93.668,156.531 95.0013,156.198 96.5,158.5C 97.4287,157.311 97.762,155.978 97.5,154.5C 96.0695,154.421 94.7362,154.754 93.5,155.5C 92.5713,154.311 92.238,152.978 92.5,151.5C 86.3623,152.208 80.3623,153.208 74.5,154.5C 74.1667,158.5 73.8333,158.5 73.5,154.5C 70.0292,154.899 69.6958,156.399 72.5,159C 76.1394,158.722 79.8061,158.722 83.5,159C 83,159.5 82.5,160 82,160.5C 80.9887,159.663 79.8221,159.33 78.5,159.5C 79.2689,162.171 79.6022,164.671 79.5,167C 77.6467,167.551 76.3133,166.885 75.5,165C 76.3366,163.989 76.67,162.822 76.5,161.5C 74.857,161.48 73.5237,162.147 72.5,163.5C 71.7836,162.689 70.9503,162.022 70,161.5C 67.9906,161.995 65.8239,161.995 63.5,161.5C 63.0941,163.109 63.0941,164.443 63.5,165.5C 64.8425,164.098 65.6758,164.431 66,166.5C 67.1131,165.289 68.2798,165.289 69.5,166.5C 70.8028,164.522 72.4694,164.522 74.5,166.5C 73.0065,167.141 72.0065,168.141 71.5,169.5C 47.5,169.5 23.5,169.5 -0.5,169.5C -0.5,164.5 -0.5,159.5 -0.5,154.5C 1.01094,153.498 2.67761,152.831 4.5,152.5C 4.32842,153.492 4.66175,154.158 5.5,154.5C 5.5,155.167 5.5,155.833 5.5,156.5C 4.76109,156.369 4.09442,156.536 3.5,157C 4.83333,158 4.83333,159 3.5,160C 5.55398,164.671 8.88731,165.504 13.5,162.5C 15.4325,163.52 17.4325,163.687 19.5,163C 21.0555,160.305 22.7222,157.805 24.5,155.5C 25.2679,156.263 25.7679,157.263 26,158.5C 26.2022,156.744 26.7022,155.078 27.5,153.5C 28.1667,153.833 28.8333,154.167 29.5,154.5C 30.1698,152.709 30.8365,151.042 31.5,149.5 Z"/></g>
<g><path style="opacity:1" fill="#3b1a25" d="M 55.5,149.5 C 55.8333,149.5 56.1667,149.5 56.5,149.5C 56.8333,149.5 57.1667,149.5 57.5,149.5C 58.1098,150.391 58.4431,151.391 58.5,152.5C 58.8076,154.924 58.4742,157.257 57.5,159.5C 56.1667,160.167 55.1667,161.167 54.5,162.5C 51.6908,163.8 49.0241,163.8 46.5,162.5C 50.4157,163.039 53.4157,161.706 55.5,158.5C 56.7752,155.604 56.7752,152.604 55.5,149.5 Z"/></g>
<g><path style="opacity:1" fill="#e0a6d3" d="M 55.5,158.5 C 53.4157,161.706 50.4157,163.039 46.5,162.5C 46.1667,162.5 45.8333,162.5 45.5,162.5C 44.3998,161.442 43.0664,160.608 41.5,160C 43.2267,157.354 45.56,156.854 48.5,158.5C 50.5885,158.38 51.9218,157.38 52.5,155.5C 54.8795,154.433 55.8795,155.433 55.5,158.5 Z"/></g>
<g><path style="opacity:1" fill="#7d6350" d="M 217.5,169.5 C 193.833,169.5 170.167,169.5 146.5,169.5C 151.034,168.784 155.701,168.117 160.5,167.5C 164.28,168.817 167.946,168.484 171.5,166.5C 179.425,168.573 187.425,168.573 195.5,166.5C 197.95,167.626 199.95,166.959 201.5,164.5C 202.711,165.274 202.711,166.107 201.5,167C 203,167.5 204.5,168 206,168.5C 210.515,167.863 215.015,167.196 219.5,166.5C 221.195,167.292 222.862,166.958 224.5,165.5C 223.014,163.698 222.014,161.698 221.5,159.5C 223.433,159.729 225.1,160.562 226.5,162C 226.043,162.414 225.709,162.914 225.5,163.5C 226.727,164.59 227.56,165.924 228,167.5C 228.718,166.549 229.551,166.383 230.5,167C 226.162,168.106 221.829,168.939 217.5,169.5 Z"/></g>
<g><path style="opacity:1" fill="#000000" d="M -0.5,169.5 C 23.5,169.5 47.5,169.5 71.5,169.5C 96.5,169.5 121.5,169.5 146.5,169.5C 170.167,169.5 193.833,169.5 217.5,169.5C 231.167,169.5 244.833,169.5 258.5,169.5C 258.5,177.5 258.5,185.5 258.5,193.5C 172.167,193.5 85.8333,193.5 -0.5,193.5C -0.5,185.5 -0.5,177.5 -0.5,169.5 Z"/></g>
</svg>
