<?xml version="1.0" encoding="UTF-8"?>
<!DOCTYPE svg PUBLIC "-//W3C//DTD SVG 1.1//EN" "http://www.w3.org/Graphics/SVG/1.1/DTD/svg11.dtd">
<svg xmlns="http://www.w3.org/2000/svg" version="1.1" width="299px" height="168px" style="shape-rendering:geometricPrecision; text-rendering:geometricPrecision; image-rendering:optimizeQuality; fill-rule:evenodd; clip-rule:evenodd" xmlns:xlink="http://www.w3.org/1999/xlink">
<g><path style="opacity:1" fill="#8eadfa" d="M 36.5,-0.5 C 42.8333,-0.5 49.1667,-0.5 55.5,-0.5C 55.5,2.5 55.5,5.5 55.5,8.5C 49.1667,8.5 42.8333,8.5 36.5,8.5C 36.5,5.5 36.5,2.5 36.5,-0.5 Z"/></g>
<g><path style="opacity:1" fill="#8caef9" d="M 114.5,-0.5 C 128.167,-0.5 141.833,-0.5 155.5,-0.5C 155.5,2.5 155.5,5.5 155.5,8.5C 142.167,8.5 128.833,8.5 115.5,8.5C 114.523,5.7131 114.19,2.7131 114.5,-0.5 Z"/></g>
<g><path style="opacity:1" fill="#8daef9" d="M 171.5,-0.5 C 185.167,-0.5 198.833,-0.5 212.5,-0.5C 212.5,2.5 212.5,5.5 212.5,8.5C 199.167,8.5 185.833,8.5 172.5,8.5C 171.981,5.46467 171.647,2.46467 171.5,-0.5 Z"/></g>
<g><path style="opacity:1" fill="#8daef9" d="M 233.5,-0.5 C 239.833,-0.5 246.167,-0.5 252.5,-0.5C 252.5,2.5 252.5,5.5 252.5,8.5C 246.167,8.5 239.833,8.5 233.5,8.5C 233.5,5.5 233.5,2.5 233.5,-0.5 Z"/></g>
<g><path style="opacity:1" fill="#727376" d="M 55.5,-0.5 C 61.8333,-0.5 68.1667,-0.5 74.5,-0.5C 75.0545,3.01215 74.3878,6.01215 72.5,8.5C 71.7515,6.66754 70.7515,5.00087 69.5,3.5C 70.8333,3.5 72.1667,3.5 73.5,3.5C 73.5,2.5 73.5,1.5 73.5,0.5C 68.7863,0.173375 64.1196,0.506709 59.5,1.5C 62.6417,2.16738 65.6417,2.83404 68.5,3.5C 65.5,3.5 62.5,3.5 59.5,3.5C 59.5,5.16667 59.5,6.83333 59.5,8.5C 58.1667,8.5 56.8333,8.5 55.5,8.5C 55.5,5.5 55.5,2.5 55.5,-0.5 Z"/></g>
<g><path style="opacity:1" fill="#a6a6a6" d="M 69.5,3.5 C 69.1667,3.5 68.8333,3.5 68.5,3.5C 65.6417,2.83404 62.6417,2.16738 59.5,1.5C 64.1196,0.506709 68.7863,0.173375 73.5,0.5C 73.5,1.5 73.5,2.5 73.5,3.5C 72.1667,3.5 70.8333,3.5 69.5,3.5 Z"/></g>
<g><path style="opacity:1" fill="#947749" d="M 16.5,-0.5 C 22.8333,-0.5 29.1667,-0.5 35.5,-0.5C 35.5,2.83333 35.5,6.16667 35.5,9.5C 42.1667,9.5 48.8333,9.5 55.5,9.5C 62.1667,9.5 68.8333,9.5 75.5,9.5C 75.5,10.5 75.5,11.5 75.5,12.5C 77.1033,12.3118 78.4366,12.8118 79.5,14C 58.836,14.5 38.1694,14.6666 17.5,14.5C 17.5,15.5 17.5,16.5 17.5,17.5C 36.0825,18.8106 36.0825,19.4773 17.5,19.5C 16.5184,16.0381 16.185,12.3714 16.5,8.5C 17.3719,5.57852 17.3719,2.57852 16.5,-0.5 Z"/></g>
<g><path style="opacity:1" fill="#727170" d="M 272.5,-0.5 C 280.833,-0.5 289.167,-0.5 297.5,-0.5C 297.5,2.16667 297.5,4.83333 297.5,7.5C 297.167,7.5 296.833,7.5 296.5,7.5C 293.065,6.10837 290.065,6.77504 287.5,9.5C 282.489,9.66593 277.489,9.49926 272.5,9C 272.322,6.04544 272.322,2.87878 272.5,-0.5 Z"/></g>
<g><path style="opacity:1" fill="#787877" d="M 1.5,-0.5 C 6.5,-0.5 11.5,-0.5 16.5,-0.5C 17.3719,2.57852 17.3719,5.57852 16.5,8.5C 15.5489,9.91866 15.2155,11.5853 15.5,13.5C 10.7447,14.0851 6.078,15.0851 1.5,16.5C 1.5,10.8333 1.5,5.16667 1.5,-0.5 Z"/></g>
<g><path style="opacity:1" fill="#1f201f" d="M 68.5,3.5 C 68.8333,3.5 69.1667,3.5 69.5,3.5C 70.7515,5.00087 71.7515,6.66754 72.5,8.5C 68.1667,8.5 63.8333,8.5 59.5,8.5C 59.5,6.83333 59.5,5.16667 59.5,3.5C 62.5,3.5 65.5,3.5 68.5,3.5 Z"/></g>
<g><path style="opacity:1" fill="#ebd45b" d="M 108.5,4.5 C 110.273,7.67601 109.273,9.34268 105.5,9.5C 103.446,9.63466 101.779,8.96799 100.5,7.5C 102.416,5.02301 105.083,4.02301 108.5,4.5 Z"/></g>
<g><path style="opacity:1" fill="#666666" d="M 76.5,-0.5 C 89.1667,-0.5 101.833,-0.5 114.5,-0.5C 114.19,2.7131 114.523,5.7131 115.5,8.5C 115.5,8.83333 115.5,9.16667 115.5,9.5C 114.833,9.5 114.167,9.5 113.5,9.5C 112.833,9.5 112.167,9.5 111.5,9.5C 110.85,7.56475 110.517,5.56475 110.5,3.5C 112.117,4.58935 112.95,6.25602 113,8.5C 113.497,5.85397 113.664,3.1873 113.5,0.5C 107.833,0.5 102.167,0.5 96.5,0.5C 96.5,2.5 96.5,4.5 96.5,6.5C 95.1805,7.94183 93.5138,8.60849 91.5,8.5C 91.762,7.02218 91.4287,5.68884 90.5,4.5C 87.5788,3.59339 84.5788,3.26006 81.5,3.5C 85.3525,2.83365 89.3525,2.16699 93.5,1.5C 88.2079,0.505153 82.8746,0.17182 77.5,0.5C 77.5,1.5 77.5,2.5 77.5,3.5C 78.5,3.5 79.5,3.5 80.5,3.5C 79.7659,4.70792 79.4326,6.04125 79.5,7.5C 78.8501,7.80393 78.1835,8.13727 77.5,8.5C 76.5159,5.57186 76.1826,2.57186 76.5,-0.5 Z"/></g>
<g><path style="opacity:1" fill="#949390" d="M 110.5,3.5 C 109.833,3.5 109.167,3.5 108.5,3.5C 105.428,3.18259 102.428,3.51592 99.5,4.5C 99.0234,5.93098 98.3567,7.26431 97.5,8.5C 96.7025,8.04311 96.3691,7.37644 96.5,6.5C 96.5,4.5 96.5,2.5 96.5,0.5C 102.167,0.5 107.833,0.5 113.5,0.5C 113.664,3.1873 113.497,5.85397 113,8.5C 112.95,6.25602 112.117,4.58935 110.5,3.5 Z"/></g>
<g><path style="opacity:1" fill="#a4a4a4" d="M 81.5,3.5 C 81.1667,3.5 80.8333,3.5 80.5,3.5C 79.5,3.5 78.5,3.5 77.5,3.5C 77.5,2.5 77.5,1.5 77.5,0.5C 82.8746,0.17182 88.2079,0.505153 93.5,1.5C 89.3525,2.16699 85.3525,2.83365 81.5,3.5 Z"/></g>
<g><path style="opacity:1" fill="#4b3c29" d="M 213.5,-0.5 C 213.833,-0.5 214.167,-0.5 214.5,-0.5C 214.5,2.16667 214.5,4.83333 214.5,7.5C 220.5,7.5 226.5,7.5 232.5,7.5C 232.5,4.83333 232.5,2.16667 232.5,-0.5C 232.833,-0.5 233.167,-0.5 233.5,-0.5C 233.5,2.5 233.5,5.5 233.5,8.5C 233.5,8.83333 233.5,9.16667 233.5,9.5C 226.833,9.5 220.167,9.5 213.5,9.5C 213.5,6.16667 213.5,2.83333 213.5,-0.5 Z"/></g>
<g><path style="opacity:1" fill="#886026" d="M 214.5,-0.5 C 220.5,-0.5 226.5,-0.5 232.5,-0.5C 232.5,2.16667 232.5,4.83333 232.5,7.5C 226.5,7.5 220.5,7.5 214.5,7.5C 214.5,4.83333 214.5,2.16667 214.5,-0.5 Z"/></g>
<g><path style="opacity:1" fill="#9da3b9" d="M 35.5,-0.5 C 35.8333,-0.5 36.1667,-0.5 36.5,-0.5C 36.5,2.5 36.5,5.5 36.5,8.5C 42.8333,8.5 49.1667,8.5 55.5,8.5C 55.5,8.83333 55.5,9.16667 55.5,9.5C 48.8333,9.5 42.1667,9.5 35.5,9.5C 35.5,6.16667 35.5,2.83333 35.5,-0.5 Z"/></g>
<g><path style="opacity:1" fill="#584937" d="M 74.5,-0.5 C 75.1667,-0.5 75.8333,-0.5 76.5,-0.5C 76.1826,2.57186 76.5159,5.57186 77.5,8.5C 78.1835,8.13727 78.8501,7.80393 79.5,7.5C 83.2984,8.48342 87.2984,8.81675 91.5,8.5C 93.5138,8.60849 95.1805,7.94183 96.5,6.5C 96.3691,7.37644 96.7025,8.04311 97.5,8.5C 98.3567,7.26431 99.0234,5.93098 99.5,4.5C 102.428,3.51592 105.428,3.18259 108.5,3.5C 108.5,3.83333 108.5,4.16667 108.5,4.5C 105.083,4.02301 102.416,5.02301 100.5,7.5C 92.4363,9.42155 84.103,10.0882 75.5,9.5C 68.8333,9.5 62.1667,9.5 55.5,9.5C 55.5,9.16667 55.5,8.83333 55.5,8.5C 56.8333,8.5 58.1667,8.5 59.5,8.5C 63.8333,8.5 68.1667,8.5 72.5,8.5C 74.3878,6.01215 75.0545,3.01215 74.5,-0.5 Z"/></g>
<g><path style="opacity:1" fill="#1c1c1b" d="M 80.5,3.5 C 80.8333,3.5 81.1667,3.5 81.5,3.5C 84.5788,3.26006 87.5788,3.59339 90.5,4.5C 91.4287,5.68884 91.762,7.02218 91.5,8.5C 87.2984,8.81675 83.2984,8.48342 79.5,7.5C 79.4326,6.04125 79.7659,4.70792 80.5,3.5 Z"/></g>
<g><path style="opacity:1" fill="#b99237" d="M 108.5,4.5 C 108.5,4.16667 108.5,3.83333 108.5,3.5C 109.167,3.5 109.833,3.5 110.5,3.5C 110.517,5.56475 110.85,7.56475 111.5,9.5C 109.5,10.8333 107.5,10.8333 105.5,9.5C 109.273,9.34268 110.273,7.67601 108.5,4.5 Z"/></g>
<g><path style="opacity:1" fill="#99a3c2" d="M 155.5,-0.5 C 155.833,-0.5 156.167,-0.5 156.5,-0.5C 156.364,9.92354 156.031,20.2569 155.5,30.5C 155.5,29.8333 155.167,29.5 154.5,29.5C 154.5,29.1667 154.5,28.8333 154.5,28.5C 154.5,22.1667 154.5,15.8333 154.5,9.5C 141.5,9.5 128.5,9.5 115.5,9.5C 115.5,9.16667 115.5,8.83333 115.5,8.5C 128.833,8.5 142.167,8.5 155.5,8.5C 155.5,5.5 155.5,2.5 155.5,-0.5 Z"/></g>
<g><path style="opacity:1" fill="#9ba0b6" d="M 252.5,-0.5 C 252.833,-0.5 253.167,-0.5 253.5,-0.5C 253.5,2.83333 253.5,6.16667 253.5,9.5C 246.833,9.5 240.167,9.5 233.5,9.5C 233.5,9.16667 233.5,8.83333 233.5,8.5C 239.833,8.5 246.167,8.5 252.5,8.5C 252.5,5.5 252.5,2.5 252.5,-0.5 Z"/></g>
<g><path style="opacity:1" fill="#857556" d="M 113.5,9.5 C 114.167,9.5 114.833,9.5 115.5,9.5C 128.5,9.5 141.5,9.5 154.5,9.5C 154.5,15.8333 154.5,22.1667 154.5,28.5C 108.167,28.5 61.8333,28.5 15.5,28.5C 15.5,28.1667 15.5,27.8333 15.5,27.5C 61.5,27.5 107.5,27.5 153.5,27.5C 153.5,26.5 153.5,25.5 153.5,24.5C 152.833,23.8333 152.167,23.1667 151.5,22.5C 152.833,22.5 153.5,21.8333 153.5,20.5C 153.5,19.5 153.5,18.5 153.5,17.5C 153.5,16.5 153.5,15.5 153.5,14.5C 153.768,12.901 153.434,11.5676 152.5,10.5C 139.323,10.8288 126.323,10.4955 113.5,9.5 Z"/></g>
<g><path style="opacity:1" fill="#9a7d4d" d="M 253.5,-0.5 C 259.833,-0.5 266.167,-0.5 272.5,-0.5C 272.322,2.87878 272.322,6.04544 272.5,9C 277.489,9.49926 282.489,9.66593 287.5,9.5C 287.595,11.7857 288.262,13.7857 289.5,15.5C 272.82,17.1845 255.82,18.1845 238.5,18.5C 217.212,17.5113 195.879,17.178 174.5,17.5C 174.5,14.8333 174.5,12.1667 174.5,9.5C 187.5,9.5 200.5,9.5 213.5,9.5C 220.167,9.5 226.833,9.5 233.5,9.5C 240.167,9.5 246.833,9.5 253.5,9.5C 253.5,6.16667 253.5,2.83333 253.5,-0.5 Z"/></g>
<g><path style="opacity:1" fill="#e45077" d="M 296.5,7.5 C 296.736,10.6085 296.403,13.6085 295.5,16.5C 293.435,16.4828 291.435,16.1495 289.5,15.5C 288.262,13.7857 287.595,11.7857 287.5,9.5C 290.065,6.77504 293.065,6.10837 296.5,7.5 Z"/></g>
<g><path style="opacity:1" fill="#83663f" d="M 152.5,10.5 C 153.434,11.5676 153.768,12.901 153.5,14.5C 142.828,14.6665 132.161,14.4998 121.5,14C 132.059,13.1959 142.392,12.0292 152.5,10.5 Z"/></g>
<g><path style="opacity:1" fill="#9ca1c0" d="M 212.5,-0.5 C 212.833,-0.5 213.167,-0.5 213.5,-0.5C 213.5,2.83333 213.5,6.16667 213.5,9.5C 200.5,9.5 187.5,9.5 174.5,9.5C 174.5,12.1667 174.5,14.8333 174.5,17.5C 174.5,17.8333 174.5,18.1667 174.5,18.5C 174.5,20.1667 174.5,21.8333 174.5,23.5C 174.5,23.8333 174.5,24.1667 174.5,24.5C 174.5,25.5 174.5,26.5 174.5,27.5C 174.5,28.1667 174.5,28.8333 174.5,29.5C 174.5,42.1667 174.5,54.8333 174.5,67.5C 180.645,68.4902 186.978,68.8235 193.5,68.5C 187.433,69.1847 181.266,69.8514 175,70.5C 174.667,70.1667 174.333,69.8333 174,69.5C 173.768,70.7375 173.268,71.7375 172.5,72.5C 172.823,66.31 172.49,60.31 171.5,54.5C 172.153,39.5247 172.487,24.1913 172.5,8.5C 185.833,8.5 199.167,8.5 212.5,8.5C 212.5,5.5 212.5,2.5 212.5,-0.5 Z"/></g>
<g><path style="opacity:1" fill="#a28352" d="M 100.5,7.5 C 101.779,8.96799 103.446,9.63466 105.5,9.5C 107.5,10.8333 109.5,10.8333 111.5,9.5C 112.167,9.5 112.833,9.5 113.5,9.5C 126.323,10.4955 139.323,10.8288 152.5,10.5C 142.392,12.0292 132.059,13.1959 121.5,14C 132.161,14.4998 142.828,14.6665 153.5,14.5C 153.5,15.5 153.5,16.5 153.5,17.5C 113.543,17.2705 73.543,17.6038 33.5,18.5C 40.1419,19.3309 46.8085,19.8309 53.5,20C 52.4804,21.5557 51.147,22.7224 49.5,23.5C 38.7845,22.1863 28.1178,22.1863 17.5,23.5C 17.5,22.1667 17.5,20.8333 17.5,19.5C 36.0825,19.4773 36.0825,18.8106 17.5,17.5C 17.5,16.5 17.5,15.5 17.5,14.5C 38.1694,14.6666 58.836,14.5 79.5,14C 78.4366,12.8118 77.1033,12.3118 75.5,12.5C 75.5,11.5 75.5,10.5 75.5,9.5C 84.103,10.0882 92.4363,9.42155 100.5,7.5 Z"/></g>
<g><path style="opacity:1" fill="#806437" d="M 81.5,12.5 C 90.8598,13.1755 100.193,13.1755 109.5,12.5C 112.955,12.4213 116.288,12.9213 119.5,14C 113.167,14.1667 106.833,14.3333 100.5,14.5C 93.7963,14.4964 87.463,13.8298 81.5,12.5 Z"/></g>
<g><path style="opacity:1" fill="#836538" d="M 289.5,15.5 C 291.435,16.1495 293.435,16.4828 295.5,16.5C 295.042,20.9583 294.042,25.2916 292.5,29.5C 291.662,29.1583 291.328,28.4916 291.5,27.5C 292.404,26.791 292.737,25.791 292.5,24.5C 274.779,24.2863 274.446,23.2863 291.5,21.5C 291.709,20.914 292.043,20.414 292.5,20C 253.096,19.8273 213.762,19.3273 174.5,18.5C 174.5,18.1667 174.5,17.8333 174.5,17.5C 195.879,17.178 217.212,17.5113 238.5,18.5C 255.82,18.1845 272.82,17.1845 289.5,15.5 Z"/></g>
<g><path style="opacity:1" fill="#a08452" d="M 153.5,20.5 C 153.5,21.8333 152.833,22.5 151.5,22.5C 126.167,22.5 100.833,22.5 75.5,22.5C 75.5,21.5 75.5,20.5 75.5,19.5C 101.074,19.828 126.574,19.4946 152,18.5C 152.278,19.4158 152.778,20.0825 153.5,20.5 Z"/></g>
<g><path style="opacity:1" fill="#686766" d="M 0.5,-0.5 C 0.833333,-0.5 1.16667,-0.5 1.5,-0.5C 1.5,5.16667 1.5,10.8333 1.5,16.5C 6.078,15.0851 10.7447,14.0851 15.5,13.5C 15.2155,11.5853 15.5489,9.91866 16.5,8.5C 16.185,12.3714 16.5184,16.0381 17.5,19.5C 17.5,20.8333 17.5,22.1667 17.5,23.5C 17.5,23.8333 17.5,24.1667 17.5,24.5C 17.2178,25.7777 16.5511,26.7777 15.5,27.5C 15.5,27.8333 15.5,28.1667 15.5,28.5C 10.5,28.5 5.5,28.5 0.5,28.5C 0.5,18.8333 0.5,9.16667 0.5,-0.5 Z"/></g>
<g><path style="opacity:1" fill="#836838" d="M 174.5,24.5 C 174.5,24.1667 174.5,23.8333 174.5,23.5C 191.428,22.8401 208.428,22.5068 225.5,22.5C 242.648,22.339 259.648,22.839 276.5,24C 242.502,24.5 208.502,24.6667 174.5,24.5 Z"/></g>
<g><path style="opacity:1" fill="#856938" d="M 153.5,17.5 C 153.5,18.5 153.5,19.5 153.5,20.5C 152.778,20.0825 152.278,19.4158 152,18.5C 126.574,19.4946 101.074,19.828 75.5,19.5C 75.5,20.5 75.5,21.5 75.5,22.5C 100.833,22.5 126.167,22.5 151.5,22.5C 152.167,23.1667 152.833,23.8333 153.5,24.5C 108.167,24.5 62.8333,24.5 17.5,24.5C 17.5,24.1667 17.5,23.8333 17.5,23.5C 28.1178,22.1863 38.7845,22.1863 49.5,23.5C 51.147,22.7224 52.4804,21.5557 53.5,20C 46.8085,19.8309 40.1419,19.3309 33.5,18.5C 73.543,17.6038 113.543,17.2705 153.5,17.5 Z"/></g>
<g><path style="opacity:1" fill="#a28353" d="M 17.5,24.5 C 62.8333,24.5 108.167,24.5 153.5,24.5C 153.5,25.5 153.5,26.5 153.5,27.5C 107.5,27.5 61.5,27.5 15.5,27.5C 16.5511,26.7777 17.2178,25.7777 17.5,24.5 Z"/></g>
<g><path style="opacity:1" fill="#a08352" d="M 174.5,18.5 C 213.762,19.3273 253.096,19.8273 292.5,20C 292.043,20.414 291.709,20.914 291.5,21.5C 274.446,23.2863 274.779,24.2863 292.5,24.5C 292.737,25.791 292.404,26.791 291.5,27.5C 287.167,27.5 282.833,27.5 278.5,27.5C 243.833,27.5 209.167,27.5 174.5,27.5C 174.5,26.5 174.5,25.5 174.5,24.5C 208.502,24.6667 242.502,24.5 276.5,24C 259.648,22.839 242.648,22.339 225.5,22.5C 208.428,22.5068 191.428,22.8401 174.5,23.5C 174.5,21.8333 174.5,20.1667 174.5,18.5 Z"/></g>
<g><path style="opacity:1" fill="#694a50" d="M 296.5,7.5 C 296.833,7.5 297.167,7.5 297.5,7.5C 297.5,54.1667 297.5,100.833 297.5,147.5C 297.167,147.5 296.833,147.5 296.5,147.5C 296.5,141.833 296.5,136.167 296.5,130.5C 296.5,124.833 296.5,119.167 296.5,113.5C 296.5,107.5 296.5,101.5 296.5,95.5C 296.5,85.8333 296.5,76.1667 296.5,66.5C 296.5,65.5 296.5,64.5 296.5,63.5C 296.5,53.8333 296.5,44.1667 296.5,34.5C 294.833,34.5 293.167,34.5 291.5,34.5C 292.038,32.8828 292.371,31.2161 292.5,29.5C 294.042,25.2916 295.042,20.9583 295.5,16.5C 296.403,13.6085 296.736,10.6085 296.5,7.5 Z"/></g>
<g><path style="opacity:1" fill="#050403" d="M 297.5,-0.5 C 297.833,-0.5 298.167,-0.5 298.5,-0.5C 298.5,55.5 298.5,111.5 298.5,167.5C 297.833,167.5 297.167,167.5 296.5,167.5C 296.5,165.5 296.5,163.5 296.5,161.5C 296.401,158.763 296.735,156.096 297.5,153.5C 297.5,151.5 297.5,149.5 297.5,147.5C 297.5,100.833 297.5,54.1667 297.5,7.5C 297.5,4.83333 297.5,2.16667 297.5,-0.5 Z"/></g>
<g><path style="opacity:1" fill="#796c4f" d="M 174.5,27.5 C 209.167,27.5 243.833,27.5 278.5,27.5C 277.081,28.4511 275.415,28.7845 273.5,28.5C 273.832,68.3368 273.499,108.004 272.5,147.5C 272.5,108.167 272.5,68.8333 272.5,29.5C 246.339,28.5022 220.005,28.1688 193.5,28.5C 193.5,41.5 193.5,54.5 193.5,67.5C 193.5,67.8333 193.5,68.1667 193.5,68.5C 186.978,68.8235 180.645,68.4902 174.5,67.5C 180.5,67.5 186.5,67.5 192.5,67.5C 192.5,54.8333 192.5,42.1667 192.5,29.5C 186.474,28.5565 180.474,28.5565 174.5,29.5C 174.5,28.8333 174.5,28.1667 174.5,27.5 Z"/></g>
<g><path style="opacity:1" fill="#7e829a" d="M 0.5,28.5 C 5.5,28.5 10.5,28.5 15.5,28.5C 61.8333,28.5 108.167,28.5 154.5,28.5C 154.5,28.8333 154.5,29.1667 154.5,29.5C 103.5,29.5 52.5,29.5 1.5,29.5C 1.5,36.1667 1.5,42.8333 1.5,49.5C 1.5,49.8333 1.5,50.1667 1.5,50.5C 1.5,53.5 1.5,56.5 1.5,59.5C 1.5,68.8333 1.5,78.1667 1.5,87.5C 32.1667,87.5 62.8333,87.5 93.5,87.5C 94.1667,87.5 94.8333,87.5 95.5,87.5C 89.021,88.4907 82.3543,88.824 75.5,88.5C 50.5,88.5 25.5,88.5 0.5,88.5C 0.5,68.5 0.5,48.5 0.5,28.5 Z"/></g>
<g><path style="opacity:1" fill="#848a9f" d="M 272.5,29.5 C 272.167,29.5 271.833,29.5 271.5,29.5C 268.833,29.5 266.167,29.5 263.5,29.5C 240.5,29.5 217.5,29.5 194.5,29.5C 194.829,42.3443 194.495,55.011 193.5,67.5C 193.5,54.5 193.5,41.5 193.5,28.5C 220.005,28.1688 246.339,28.5022 272.5,29.5 Z"/></g>
<g><path style="opacity:1" fill="#93b4fb" d="M 154.5,29.5 C 155.167,29.5 155.5,29.8333 155.5,30.5C 155.5,30.8333 155.5,31.1667 155.5,31.5C 154.912,33.9071 153.912,36.2404 152.5,38.5C 153.025,39.1924 153.692,39.6924 154.5,40C 150.544,41.1139 150.544,41.9473 154.5,42.5C 154.649,43.552 154.483,44.552 154,45.5C 153.107,44.2888 152.274,44.2888 151.5,45.5C 152.689,46.4287 154.022,46.762 155.5,46.5C 155.671,49.7973 155.005,50.1306 153.5,47.5C 152.217,50.3719 152.217,53.2053 153.5,56C 151.514,55.2059 149.681,55.7059 148,57.5C 146.82,56.3159 145.32,55.6493 143.5,55.5C 141.667,55.5854 140.334,56.2521 139.5,57.5C 138.533,56.1938 137.199,55.5271 135.5,55.5C 135.5,54.5 135.5,53.5 135.5,52.5C 127.5,52.5 119.5,52.5 111.5,52.5C 111.5,53.5 111.5,54.5 111.5,55.5C 92.8333,55.5 74.1667,55.5 55.5,55.5C 55.5,52.8333 55.5,50.1667 55.5,47.5C 52.8333,47.5 50.1667,47.5 47.5,47.5C 47.5,50.1667 47.5,52.8333 47.5,55.5C 42.1667,55.5 36.8333,55.5 31.5,55.5C 31.5,54.5 31.5,53.5 31.5,52.5C 25.9066,52.1934 20.4066,52.5268 15,53.5C 14.1667,52 13,50.8333 11.5,50C 8.18323,49.5017 4.8499,49.335 1.5,49.5C 1.5,42.8333 1.5,36.1667 1.5,29.5C 52.5,29.5 103.5,29.5 154.5,29.5 Z"/></g>
<g><path style="opacity:1" fill="#93b4fc" d="M 263.5,29.5 C 266.167,29.5 268.833,29.5 271.5,29.5C 271.5,38.1667 271.5,46.8333 271.5,55.5C 268.833,55.5 266.167,55.5 263.5,55.5C 263.5,54.5 263.5,53.5 263.5,52.5C 258.167,52.5 252.833,52.5 247.5,52.5C 247.5,53.5 247.5,54.5 247.5,55.5C 242.167,55.5 236.833,55.5 231.5,55.5C 231.5,54.5 231.5,53.5 231.5,52.5C 228.833,52.5 226.167,52.5 223.5,52.5C 223.5,53.5 223.5,54.5 223.5,55.5C 215.5,55.5 207.5,55.5 199.5,55.5C 199.813,52.7531 199.48,50.0865 198.5,47.5C 197.671,52.4671 197.171,57.4671 197,62.5C 196.667,62.1667 196.333,61.8333 196,61.5C 195.333,51.1667 195.333,40.8333 196,30.5C 196.333,30.8333 196.667,31.1667 197,31.5C 219.264,30.8384 241.431,30.1717 263.5,29.5 Z"/></g>
<g><path style="opacity:1" fill="#685a46" d="M 156.5,-0.5 C 157.5,-0.5 158.5,-0.5 159.5,-0.5C 160.514,0.764682 162.014,1.43135 164,1.5C 165.5,1.33333 167,1.16667 168.5,1C 169.056,0.617425 169.389,0.117425 169.5,-0.5C 170.167,-0.5 170.833,-0.5 171.5,-0.5C 171.647,2.46467 171.981,5.46467 172.5,8.5C 172.487,24.1913 172.153,39.5247 171.5,54.5C 171.213,65.2181 171.546,75.8848 172.5,86.5C 166.833,86.5 161.167,86.5 155.5,86.5C 156.676,68.2952 156.676,49.9619 155.5,31.5C 155.5,31.1667 155.5,30.8333 155.5,30.5C 156.031,20.2569 156.364,9.92354 156.5,-0.5 Z"/></g>
<g><path style="opacity:1" fill="#9da7cc" d="M 159.5,47.5 C 162.833,47.5 166.167,47.5 169.5,47.5C 169.5,48.5 169.5,49.5 169.5,50.5C 166.167,50.5 162.833,50.5 159.5,50.5C 159.5,49.5 159.5,48.5 159.5,47.5 Z"/></g>
<g><path style="opacity:1" fill="#9da9ce" d="M 159.5,42.5 C 162.833,42.5 166.167,42.5 169.5,42.5C 169.5,43.5 169.5,44.5 169.5,45.5C 166.167,45.5 162.833,45.5 159.5,45.5C 159.5,44.5 159.5,43.5 159.5,42.5 Z"/></g>
<g><path style="opacity:1" fill="#9fa3c1" d="M 159.5,37.5 C 162.833,37.5 166.167,37.5 169.5,37.5C 169.5,38.5 169.5,39.5 169.5,40.5C 166.167,40.5 162.833,40.5 159.5,40.5C 159.5,39.5 159.5,38.5 159.5,37.5 Z"/></g>
<g><path style="opacity:1" fill="#9ca3bf" d="M 159.5,32.5 C 162.833,32.5 166.167,32.5 169.5,32.5C 169.5,33.5 169.5,34.5 169.5,35.5C 166.167,35.5 162.833,35.5 159.5,35.5C 159.5,34.5 159.5,33.5 159.5,32.5 Z"/></g>
<g><path style="opacity:1" fill="#99a1c2" d="M 159.5,27.5 C 162.833,27.5 166.167,27.5 169.5,27.5C 169.5,28.5 169.5,29.5 169.5,30.5C 166.167,30.5 162.833,30.5 159.5,30.5C 159.5,29.5 159.5,28.5 159.5,27.5 Z"/></g>
<g><path style="opacity:1" fill="#969dc4" d="M 159.5,22.5 C 162.833,22.5 166.167,22.5 169.5,22.5C 169.5,23.5 169.5,24.5 169.5,25.5C 166.167,25.5 162.833,25.5 159.5,25.5C 159.5,24.5 159.5,23.5 159.5,22.5 Z"/></g>
<g><path style="opacity:1" fill="#969dbf" d="M 159.5,17.5 C 162.833,17.5 166.167,17.5 169.5,17.5C 169.5,18.5 169.5,19.5 169.5,20.5C 166.167,20.5 162.833,20.5 159.5,20.5C 159.5,19.5 159.5,18.5 159.5,17.5 Z"/></g>
<g><path style="opacity:1" fill="#9baddd" d="M 159.5,13.5 C 162.572,13.1826 165.572,13.5159 168.5,14.5C 167,14.8333 165.5,15.1667 164,15.5C 162.014,15.4313 160.514,14.7647 159.5,13.5 Z"/></g>
<g><path style="opacity:1" fill="#9eaadd" d="M 159.5,8.5 C 162.898,8.17964 166.232,8.51298 169.5,9.5C 167.833,9.83333 166.167,10.1667 164.5,10.5C 162.36,10.4439 160.694,9.77725 159.5,8.5 Z"/></g>
<g><path style="opacity:1" fill="#9caddb" d="M 159.5,3.5 C 162.572,3.18259 165.572,3.51592 168.5,4.5C 167,4.83333 165.5,5.16667 164,5.5C 162.014,5.43135 160.514,4.76468 159.5,3.5 Z"/></g>
<g><path style="opacity:1" fill="#97969e" d="M 159.5,-0.5 C 162.833,-0.5 166.167,-0.5 169.5,-0.5C 169.389,0.117425 169.056,0.617425 168.5,1C 167,1.16667 165.5,1.33333 164,1.5C 162.014,1.43135 160.514,0.764682 159.5,-0.5 Z"/></g>
<g><path style="opacity:1" fill="#da526f" d="M 291.5,34.5 C 293.167,34.5 294.833,34.5 296.5,34.5C 296.5,44.1667 296.5,53.8333 296.5,63.5C 294.833,63.5 293.167,63.5 291.5,63.5C 290.25,63.4226 289.417,62.756 289,61.5C 288.177,52.9896 288.343,44.6563 289.5,36.5C 289.782,44.8359 290.116,53.1692 290.5,61.5C 292.144,61.2865 293.644,61.6198 295,62.5C 295.667,55.5 295.667,48.5 295,41.5C 294.5,40.3333 293.667,39.5 292.5,39C 293.624,38.7508 294.624,38.2508 295.5,37.5C 293.955,36.5481 292.288,36.2148 290.5,36.5C 290.833,35.8333 291.167,35.1667 291.5,34.5 Z"/></g>
<g><path style="opacity:1" fill="#f14877" d="M 289.5,36.5 C 289.833,36.5 290.167,36.5 290.5,36.5C 292.288,36.2148 293.955,36.5481 295.5,37.5C 294.624,38.2508 293.624,38.7508 292.5,39C 293.667,39.5 294.5,40.3333 295,41.5C 295.667,48.5 295.667,55.5 295,62.5C 293.644,61.6198 292.144,61.2865 290.5,61.5C 290.116,53.1692 289.782,44.8359 289.5,36.5 Z"/></g>
<g><path style="opacity:1" fill="#9ea8cd" d="M 159.5,52.5 C 162.833,52.5 166.167,52.5 169.5,52.5C 169.5,53.5 169.5,54.5 169.5,55.5C 166.167,55.5 162.833,55.5 159.5,55.5C 159.5,54.5 159.5,53.5 159.5,52.5 Z"/></g>
<g><path style="opacity:1" fill="#947648" d="M 278.5,27.5 C 282.833,27.5 287.167,27.5 291.5,27.5C 291.328,28.4916 291.662,29.1583 292.5,29.5C 292.371,31.2161 292.038,32.8828 291.5,34.5C 291.167,35.1667 290.833,35.8333 290.5,36.5C 290.167,36.5 289.833,36.5 289.5,36.5C 288.343,44.6563 288.177,52.9896 289,61.5C 289.417,62.756 290.25,63.4226 291.5,63.5C 291.5,64.5 291.5,65.5 291.5,66.5C 290.25,66.5774 289.417,67.244 289,68.5C 288.333,77.5 288.333,86.5 289,95.5C 290.011,96.3366 291.178,96.67 292.5,96.5C 292.5,101.833 292.5,107.167 292.5,112.5C 289.058,114.434 287.724,117.434 288.5,121.5C 288.833,123.5 289.167,125.5 289.5,127.5C 290.141,128.993 291.141,129.993 292.5,130.5C 292.5,136.167 292.5,141.833 292.5,147.5C 291.167,149.5 291.167,151.5 292.5,153.5C 292.5,155.5 292.5,157.5 292.5,159.5C 292.5,160.167 292.5,160.833 292.5,161.5C 292.5,163.5 292.5,165.5 292.5,167.5C 279.833,167.5 267.167,167.5 254.5,167.5C 262.44,165.692 270.773,164.859 279.5,165C 277.699,164.683 277.366,164.016 278.5,163C 272.141,162.831 265.807,162.331 259.5,161.5C 270.234,160.742 280.9,159.576 291.5,158C 282.173,157.5 272.839,157.334 263.5,157.5C 263.5,154.167 263.5,150.833 263.5,147.5C 264.833,147.5 266.167,147.5 267.5,147.5C 268.5,147.5 269.5,147.5 270.5,147.5C 271.167,147.5 271.833,147.5 272.5,147.5C 273.499,108.004 273.832,68.3368 273.5,28.5C 275.415,28.7845 277.081,28.4511 278.5,27.5 Z"/></g>
<g><path style="opacity:1" fill="#947647" d="M 174.5,67.5 C 174.5,54.8333 174.5,42.1667 174.5,29.5C 180.474,28.5565 186.474,28.5565 192.5,29.5C 192.5,42.1667 192.5,54.8333 192.5,67.5C 186.5,67.5 180.5,67.5 174.5,67.5 Z"/></g>
<g><path style="opacity:1" fill="#ea4a79" d="M 1.5,50.5 C 7.85519,49.8733 9.85519,52.54 7.5,58.5C 5.60395,59.4656 3.60395,59.7989 1.5,59.5C 1.5,56.5 1.5,53.5 1.5,50.5 Z"/></g>
<g><path style="opacity:1" fill="#717c8a" d="M 141.5,60.5 C 141.5,59.5 141.5,58.5 141.5,57.5C 142.93,57.5792 144.264,57.2458 145.5,56.5C 146.833,58.1667 146.833,59.8333 145.5,61.5C 144.914,61.2907 144.414,60.9574 144,60.5C 142.887,62.3293 141.387,63.1626 139.5,63C 140.381,62.2917 141.047,61.4584 141.5,60.5 Z"/></g>
<g><path style="opacity:1" fill="#9daecb" d="M 159.5,57.5 C 162.833,57.5 166.167,57.5 169.5,57.5C 169.5,58.5 169.5,59.5 169.5,60.5C 166.167,60.5 162.833,60.5 159.5,60.5C 159.5,59.5 159.5,58.5 159.5,57.5 Z"/></g>
<g><path style="opacity:1" fill="#7b818a" d="M 171.5,54.5 C 172.49,60.31 172.823,66.31 172.5,72.5C 172.434,77.6376 173.1,82.6376 174.5,87.5C 173.508,87.6716 172.842,87.3382 172.5,86.5C 171.546,75.8848 171.213,65.2181 171.5,54.5 Z"/></g>
<g><path style="opacity:1" fill="#98b7f9" d="M 139.5,57.5 C 140.167,57.5 140.833,57.5 141.5,57.5C 141.5,58.5 141.5,59.5 141.5,60.5C 139.589,60.5743 138.422,61.5743 138,63.5C 137.667,63.1667 137.333,62.8333 137,62.5C 136.508,63.549 136.674,64.549 137.5,65.5C 137.192,66.3081 136.692,66.9747 136,67.5C 133.281,66.5562 130.448,66.2229 127.5,66.5C 127.5,65.5 127.5,64.5 127.5,63.5C 121.914,63.7419 116.581,64.9085 111.5,67C 105.509,67.4995 99.5092,67.6662 93.5,67.5C 93.5,74.1667 93.5,80.8333 93.5,87.5C 62.8333,87.5 32.1667,87.5 1.5,87.5C 1.5,78.1667 1.5,68.8333 1.5,59.5C 3.60395,59.7989 5.60395,59.4656 7.5,58.5C 9.85519,52.54 7.85519,49.8733 1.5,50.5C 1.5,50.1667 1.5,49.8333 1.5,49.5C 4.8499,49.335 8.18323,49.5017 11.5,50C 13,50.8333 14.1667,52 15,53.5C 20.4066,52.5268 25.9066,52.1934 31.5,52.5C 31.5,53.5 31.5,54.5 31.5,55.5C 36.8333,55.5 42.1667,55.5 47.5,55.5C 47.5,52.8333 47.5,50.1667 47.5,47.5C 50.1667,47.5 52.8333,47.5 55.5,47.5C 55.5,50.1667 55.5,52.8333 55.5,55.5C 74.1667,55.5 92.8333,55.5 111.5,55.5C 111.5,54.5 111.5,53.5 111.5,52.5C 119.5,52.5 127.5,52.5 135.5,52.5C 135.5,53.5 135.5,54.5 135.5,55.5C 137.199,55.5271 138.533,56.1938 139.5,57.5 Z"/></g>
<g><path style="opacity:1" fill="#a2b1e0" d="M 159.5,62.5 C 162.572,62.1826 165.572,62.5159 168.5,63.5C 167,63.8333 165.5,64.1667 164,64.5C 162.014,64.4313 160.514,63.7647 159.5,62.5 Z"/></g>
<g><path style="opacity:1" fill="#98b7f8" d="M 263.5,29.5 C 241.431,30.1717 219.264,30.8384 197,31.5C 196.667,31.1667 196.333,30.8333 196,30.5C 195.333,40.8333 195.333,51.1667 196,61.5C 196.333,61.8333 196.667,62.1667 197,62.5C 197.171,57.4671 197.671,52.4671 198.5,47.5C 199.48,50.0865 199.813,52.7531 199.5,55.5C 207.5,55.5 215.5,55.5 223.5,55.5C 223.5,54.5 223.5,53.5 223.5,52.5C 226.167,52.5 228.833,52.5 231.5,52.5C 231.5,53.5 231.5,54.5 231.5,55.5C 236.833,55.5 242.167,55.5 247.5,55.5C 247.5,54.5 247.5,53.5 247.5,52.5C 252.833,52.5 258.167,52.5 263.5,52.5C 263.5,53.5 263.5,54.5 263.5,55.5C 266.167,55.5 268.833,55.5 271.5,55.5C 271.818,60.0323 271.485,64.3656 270.5,68.5C 265.489,69.6593 260.489,69.8259 255.5,69C 254.577,71.0408 254.244,73.2075 254.5,75.5C 255.038,77.1172 255.371,78.7839 255.5,80.5C 254.662,80.8417 254.328,81.5084 254.5,82.5C 254.5,84.8333 254.5,87.1667 254.5,89.5C 253.833,89.1667 253.167,88.8333 252.5,88.5C 246.69,87.5104 240.69,87.1771 234.5,87.5C 234.823,80.9779 234.49,74.6446 233.5,68.5C 227.013,67.346 220.346,67.1794 213.5,68C 212.522,74.4102 212.189,80.9102 212.5,87.5C 199.833,87.5 187.167,87.5 174.5,87.5C 173.1,82.6376 172.434,77.6376 172.5,72.5C 173.268,71.7375 173.768,70.7375 174,69.5C 174.333,69.8333 174.667,70.1667 175,70.5C 181.266,69.8514 187.433,69.1847 193.5,68.5C 193.5,68.1667 193.5,67.8333 193.5,67.5C 194.495,55.011 194.829,42.3443 194.5,29.5C 217.5,29.5 240.5,29.5 263.5,29.5 Z"/></g>
<g><path style="opacity:1" fill="#966f71" d="M 291.5,63.5 C 293.167,63.5 294.833,63.5 296.5,63.5C 296.5,64.5 296.5,65.5 296.5,66.5C 294.833,66.5 293.167,66.5 291.5,66.5C 291.5,65.5 291.5,64.5 291.5,63.5 Z"/></g>
<g><path style="opacity:1" fill="#a4b5dd" d="M 159.5,67.5 C 162.898,67.1796 166.232,67.513 169.5,68.5C 167.833,68.8333 166.167,69.1667 164.5,69.5C 162.36,69.4439 160.694,68.7773 159.5,67.5 Z"/></g>
<g><path style="opacity:1" fill="#99b6f3" d="M 155.5,31.5 C 156.676,49.9619 156.676,68.2952 155.5,86.5C 154.662,86.8417 154.328,87.5084 154.5,88.5C 154.167,88.5 153.833,88.5 153.5,88.5C 153.167,88.5 152.833,88.5 152.5,88.5C 150.477,88.2847 148.144,88.2847 145.5,88.5C 145.92,86.9064 146.586,85.4064 147.5,84C 147.011,82.8615 146.678,81.6948 146.5,80.5C 147.117,80.3893 147.617,80.056 148,79.5C 150.641,70.3096 147.474,66.9763 138.5,69.5C 137.063,71.0212 136.396,72.8546 136.5,75C 138.369,78.1225 139.369,81.6225 139.5,85.5C 131.903,87.4668 123.903,88.1335 115.5,87.5C 115.5,81.1667 115.5,74.8333 115.5,68.5C 113.167,68.5 110.833,68.5 108.5,68.5C 106.167,68.5 103.833,68.5 101.5,68.5C 99.5,68.5 97.5,68.5 95.5,68.5C 95.5,74.8333 95.5,81.1667 95.5,87.5C 94.8333,87.5 94.1667,87.5 93.5,87.5C 93.5,80.8333 93.5,74.1667 93.5,67.5C 99.5092,67.6662 105.509,67.4995 111.5,67C 116.581,64.9085 121.914,63.7419 127.5,63.5C 127.5,64.5 127.5,65.5 127.5,66.5C 130.448,66.2229 133.281,66.5562 136,67.5C 136.692,66.9747 137.192,66.3081 137.5,65.5C 136.674,64.549 136.508,63.549 137,62.5C 137.333,62.8333 137.667,63.1667 138,63.5C 138.422,61.5743 139.589,60.5743 141.5,60.5C 141.047,61.4584 140.381,62.2917 139.5,63C 141.387,63.1626 142.887,62.3293 144,60.5C 144.414,60.9574 144.914,61.2907 145.5,61.5C 146.833,59.8333 146.833,58.1667 145.5,56.5C 144.264,57.2458 142.93,57.5792 141.5,57.5C 140.833,57.5 140.167,57.5 139.5,57.5C 140.334,56.2521 141.667,55.5854 143.5,55.5C 145.32,55.6493 146.82,56.3159 148,57.5C 149.681,55.7059 151.514,55.2059 153.5,56C 152.217,53.2053 152.217,50.3719 153.5,47.5C 155.005,50.1306 155.671,49.7973 155.5,46.5C 154.022,46.762 152.689,46.4287 151.5,45.5C 152.274,44.2888 153.107,44.2888 154,45.5C 154.483,44.552 154.649,43.552 154.5,42.5C 150.544,41.9473 150.544,41.1139 154.5,40C 153.692,39.6924 153.025,39.1924 152.5,38.5C 153.912,36.2404 154.912,33.9071 155.5,31.5 Z"/></g>
<g><path style="opacity:1" fill="#363147" d="M 146.5,80.5 C 146.479,78.4786 146.479,76.4786 146.5,74.5C 144.105,73.4775 143.105,74.4775 143.5,77.5C 140.795,77.3802 140.128,78.3802 141.5,80.5C 145.42,80.849 146.086,82.1823 143.5,84.5C 141.262,81.5673 140.262,81.9007 140.5,85.5C 140.167,85.5 139.833,85.5 139.5,85.5C 139.369,81.6225 138.369,78.1225 136.5,75C 136.396,72.8546 137.063,71.0212 138.5,69.5C 147.474,66.9763 150.641,70.3096 148,79.5C 147.617,80.056 147.117,80.3893 146.5,80.5 Z"/></g>
<g><path style="opacity:1" fill="#a6b5e8" d="M 159.5,72.5 C 171.5,73.1667 171.5,73.8333 159.5,74.5C 159.5,73.8333 159.5,73.1667 159.5,72.5 Z"/></g>
<g><path style="opacity:1" fill="#837d79" d="M 159.5,72.5 C 162.625,71.5206 165.958,71.1872 169.5,71.5C 169.5,72.8333 169.5,74.1667 169.5,75.5C 165.958,75.8128 162.625,75.4794 159.5,74.5C 171.5,73.8333 171.5,73.1667 159.5,72.5 Z"/></g>
<g><path style="opacity:1" fill="#705e42" d="M 257.5,72.5 C 260.337,74.4023 263.671,75.069 267.5,74.5C 268.376,74.3691 269.043,74.7025 269.5,75.5C 265.353,76.167 261.353,76.8337 257.5,77.5C 260.337,79.4023 263.671,80.069 267.5,79.5C 268.376,79.3691 269.043,79.7025 269.5,80.5C 264.682,81.8124 260.015,81.8124 255.5,80.5C 255.371,78.7839 255.038,77.1172 254.5,75.5C 255.451,74.0813 255.784,72.4147 255.5,70.5C 260.179,70.3342 264.845,70.5008 269.5,71C 265.312,71.1762 261.312,71.6762 257.5,72.5 Z"/></g>
<g><path style="opacity:1" fill="#71778f" d="M 108.5,69.5 C 108.5,69.1667 108.5,68.8333 108.5,68.5C 110.833,68.5 113.167,68.5 115.5,68.5C 115.5,74.8333 115.5,81.1667 115.5,87.5C 115.167,87.5 114.833,87.5 114.5,87.5C 114.823,81.31 114.49,75.31 113.5,69.5C 111.833,69.5 110.167,69.5 108.5,69.5 Z"/></g>
<g><path style="opacity:1" fill="#a5b6e5" d="M 159.5,77.5 C 171.5,78.1667 171.5,78.8333 159.5,79.5C 159.5,78.8333 159.5,78.1667 159.5,77.5 Z"/></g>
<g><path style="opacity:1" fill="#8f7578" d="M 146.5,80.5 C 146.678,81.6948 147.011,82.8615 147.5,84C 146.586,85.4064 145.92,86.9064 145.5,88.5C 144.5,88.5 143.5,88.5 142.5,88.5C 142.218,87.2223 141.551,86.2223 140.5,85.5C 140.262,81.9007 141.262,81.5673 143.5,84.5C 146.086,82.1823 145.42,80.849 141.5,80.5C 140.128,78.3802 140.795,77.3802 143.5,77.5C 143.105,74.4775 144.105,73.4775 146.5,74.5C 146.479,76.4786 146.479,78.4786 146.5,80.5 Z"/></g>
<g><path style="opacity:1" fill="#c58127" d="M 214.5,69.5 C 220.5,69.5 226.5,69.5 232.5,69.5C 232.5,74.8333 232.5,80.1667 232.5,85.5C 231.209,85.7373 230.209,85.404 229.5,84.5C 231.965,82.9314 231.798,81.2647 229,79.5C 224.958,79.6283 220.791,80.2949 216.5,81.5C 217.115,83.3838 218.448,84.3838 220.5,84.5C 223.071,83.6473 225.738,83.6473 228.5,84.5C 225.515,85.1821 222.515,86.1821 219.5,87.5C 218.069,87.0234 216.736,86.3567 215.5,85.5C 214.549,80.2302 214.215,74.8968 214.5,69.5 Z"/></g>
<g><path style="opacity:1" fill="#f2d269" d="M 225.5,71.5 C 228.553,72.2795 230.22,74.2795 230.5,77.5C 224.735,79.2515 223.068,77.2515 225.5,71.5 Z"/></g>
<g><path style="opacity:1" fill="#f8e773" d="M 219.5,72.5 C 220.5,72.5 221.5,72.5 222.5,72.5C 222.978,75.2776 221.978,77.2776 219.5,78.5C 216.839,76.5138 216.839,74.5138 219.5,72.5 Z"/></g>
<g><path style="opacity:1" fill="#a7b6e0" d="M 257.5,77.5 C 261.329,76.931 264.663,77.5977 267.5,79.5C 263.671,80.069 260.337,79.4023 257.5,77.5 Z"/></g>
<g><path style="opacity:1" fill="#898077" d="M 159.5,77.5 C 162.625,76.5206 165.958,76.1872 169.5,76.5C 169.5,77.8333 169.5,79.1667 169.5,80.5C 165.958,80.8128 162.625,80.4794 159.5,79.5C 171.5,78.8333 171.5,78.1667 159.5,77.5 Z"/></g>
<g><path style="opacity:1" fill="#eb4b76" d="M 291.5,66.5 C 293.167,66.5 294.833,66.5 296.5,66.5C 296.5,76.1667 296.5,85.8333 296.5,95.5C 295.292,96.2341 293.959,96.5674 292.5,96.5C 291.178,96.67 290.011,96.3366 289,95.5C 288.333,86.5 288.333,77.5 289,68.5C 289.417,67.244 290.25,66.5774 291.5,66.5 Z"/></g>
<g><path style="opacity:1" fill="#a6b0da" d="M 159.5,82.5 C 162.898,82.1796 166.232,82.513 169.5,83.5C 167.833,83.8333 166.167,84.1667 164.5,84.5C 162.36,84.4439 160.694,83.7773 159.5,82.5 Z"/></g>
<g><path style="opacity:1" fill="#f0cd64" d="M 229.5,84.5 C 229.167,84.5 228.833,84.5 228.5,84.5C 225.738,83.6473 223.071,83.6473 220.5,84.5C 218.448,84.3838 217.115,83.3838 216.5,81.5C 220.791,80.2949 224.958,79.6283 229,79.5C 231.798,81.2647 231.965,82.9314 229.5,84.5 Z"/></g>
<g><path style="opacity:1" fill="#4f3b23" d="M 101.5,68.5 C 103.833,68.5 106.167,68.5 108.5,68.5C 108.5,68.8333 108.5,69.1667 108.5,69.5C 107.883,69.6107 107.383,69.944 107,70.5C 106.501,75.8229 106.334,81.1563 106.5,86.5C 108.833,86.5 111.167,86.5 113.5,86.5C 113.5,80.8333 113.5,75.1667 113.5,69.5C 114.49,75.31 114.823,81.31 114.5,87.5C 112.866,88.1611 111.033,88.4944 109,88.5C 106.625,88.5963 104.459,88.0963 102.5,87C 104.044,80.6749 103.711,74.5083 101.5,68.5 Z"/></g>
<g><path style="opacity:1" fill="#8b754d" d="M 108.5,69.5 C 110.167,69.5 111.833,69.5 113.5,69.5C 113.5,75.1667 113.5,80.8333 113.5,86.5C 111.167,86.5 108.833,86.5 106.5,86.5C 106.334,81.1563 106.501,75.8229 107,70.5C 107.383,69.944 107.883,69.6107 108.5,69.5 Z"/></g>
<g><path style="opacity:1" fill="#d8cabf" d="M 108.5,76.5 C 109.833,76.5 111.167,76.5 112.5,76.5C 112.664,79.1873 112.497,81.854 112,84.5C 110.007,82.1825 108.841,79.5158 108.5,76.5 Z"/></g>
<g><path style="opacity:1" fill="#aeacbf" d="M 139.5,85.5 C 139.833,85.5 140.167,85.5 140.5,85.5C 141.551,86.2223 142.218,87.2223 142.5,88.5C 133.318,88.8266 124.318,88.4933 115.5,87.5C 123.903,88.1335 131.903,87.4668 139.5,85.5 Z"/></g>
<g><path style="opacity:1" fill="#4c4135" d="M 155.5,86.5 C 161.167,86.5 166.833,86.5 172.5,86.5C 172.842,87.3382 173.508,87.6716 174.5,87.5C 174.5,88.1667 174.833,88.5 175.5,88.5C 175.5,89.5 175.5,90.5 175.5,91.5C 175.5,92.1667 175.5,92.8333 175.5,93.5C 175.5,94.5 175.5,95.5 175.5,96.5C 175.5,97.1667 175.5,97.8333 175.5,98.5C 175.5,99.5 175.5,100.5 175.5,101.5C 175.5,101.833 175.5,102.167 175.5,102.5C 175.5,103.833 175.5,105.167 175.5,106.5C 174.833,107.5 174.167,108.5 173.5,109.5C 166.978,109.823 160.645,109.49 154.5,108.5C 154.5,108.167 154.5,107.833 154.5,107.5C 160.833,107.5 167.167,107.5 173.5,107.5C 173.005,101.225 173.005,94.8913 173.5,88.5C 167.167,88.5 160.833,88.5 154.5,88.5C 154.328,87.5084 154.662,86.8417 155.5,86.5 Z"/></g>
<g><path style="opacity:1" fill="#acafc7" d="M 233.5,68.5 C 226.978,68.1765 220.645,68.5098 214.5,69.5C 213.51,75.6446 213.177,81.9779 213.5,88.5C 200.833,88.5 188.167,88.5 175.5,88.5C 174.833,88.5 174.5,88.1667 174.5,87.5C 187.167,87.5 199.833,87.5 212.5,87.5C 212.189,80.9102 212.522,74.4102 213.5,68C 220.346,67.1794 227.013,67.346 233.5,68.5 Z"/></g>
<g><path style="opacity:1" fill="#8a5422" d="M 214.5,69.5 C 214.215,74.8968 214.549,80.2302 215.5,85.5C 216.736,86.3567 218.069,87.0234 219.5,87.5C 222.515,86.1821 225.515,85.1821 228.5,84.5C 228.833,84.5 229.167,84.5 229.5,84.5C 230.209,85.404 231.209,85.7373 232.5,85.5C 232.586,86.4959 232.252,87.3292 231.5,88C 225.509,88.4995 219.509,88.6662 213.5,88.5C 213.177,81.9779 213.51,75.6446 214.5,69.5 Z"/></g>
<g><path style="opacity:1" fill="#afafc6" d="M 233.5,68.5 C 234.49,74.6446 234.823,80.9779 234.5,87.5C 240.69,87.1771 246.69,87.5104 252.5,88.5C 246.167,88.5 239.833,88.5 233.5,88.5C 233.5,81.8333 233.5,75.1667 233.5,68.5 Z"/></g>
<g><path style="opacity:1" fill="#a1a6c4" d="M 267.5,86.5 C 267.5,87.5 267.5,88.5 267.5,89.5C 264.167,89.5 260.833,89.5 257.5,89.5C 257.5,88.5 257.5,87.5 257.5,86.5C 260.833,86.5 264.167,86.5 267.5,86.5 Z"/></g>
<g><path style="opacity:1" fill="#726146" d="M 254.5,82.5 C 255.467,83.8062 256.801,84.4729 258.5,84.5C 261.5,84.5 264.5,84.5 267.5,84.5C 270.167,85.1667 270.167,85.8333 267.5,86.5C 264.167,86.5 260.833,86.5 257.5,86.5C 257.5,87.5 257.5,88.5 257.5,89.5C 260.833,89.5 264.167,89.5 267.5,89.5C 270.167,90.1667 270.167,90.8333 267.5,91.5C 264.167,91.5 260.833,91.5 257.5,91.5C 257.5,92.5 257.5,93.5 257.5,94.5C 260.833,94.5 264.167,94.5 267.5,94.5C 270.167,95.1667 270.167,95.8333 267.5,96.5C 264.167,96.5 260.833,96.5 257.5,96.5C 257.5,97.5 257.5,98.5 257.5,99.5C 261.042,99.8128 264.375,99.4794 267.5,98.5C 268.289,98.7828 268.956,99.2828 269.5,100C 264.649,100.174 259.982,100.674 255.5,101.5C 254.642,97.7763 254.309,93.7763 254.5,89.5C 254.5,87.1667 254.5,84.8333 254.5,82.5 Z"/></g>
<g><path style="opacity:1" fill="#a28255" d="M 214.5,69.5 C 220.645,68.5098 226.978,68.1765 233.5,68.5C 233.5,75.1667 233.5,81.8333 233.5,88.5C 239.833,88.5 246.167,88.5 252.5,88.5C 252.5,89.5 252.5,90.5 252.5,91.5C 226.868,91.7196 201.201,91.7196 175.5,91.5C 175.5,90.5 175.5,89.5 175.5,88.5C 188.167,88.5 200.833,88.5 213.5,88.5C 219.509,88.6662 225.509,88.4995 231.5,88C 232.252,87.3292 232.586,86.4959 232.5,85.5C 232.5,80.1667 232.5,74.8333 232.5,69.5C 226.5,69.5 220.5,69.5 214.5,69.5 Z"/></g>
<g><path style="opacity:1" fill="#7d6436" d="M 175.5,91.5 C 201.201,91.7196 226.868,91.7196 252.5,91.5C 252.5,92.1667 252.5,92.8333 252.5,93.5C 226.833,93.5 201.167,93.5 175.5,93.5C 175.5,92.8333 175.5,92.1667 175.5,91.5 Z"/></g>
<g><path style="opacity:1" fill="#99a2b1" d="M 252.5,88.5 C 253.167,88.8333 253.833,89.1667 254.5,89.5C 254.309,93.7763 254.642,97.7763 255.5,101.5C 254.72,104.382 254.387,107.048 254.5,109.5C 254.5,108.167 253.833,107.5 252.5,107.5C 252.5,107.167 252.5,106.833 252.5,106.5C 252.5,105.5 252.5,104.5 252.5,103.5C 252.5,102.833 252.5,102.167 252.5,101.5C 252.5,98.8333 252.5,96.1667 252.5,93.5C 252.5,92.8333 252.5,92.1667 252.5,91.5C 252.5,90.5 252.5,89.5 252.5,88.5 Z"/></g>
<g><path style="opacity:1" fill="#9ba6bf" d="M 267.5,91.5 C 267.5,92.5 267.5,93.5 267.5,94.5C 264.167,94.5 260.833,94.5 257.5,94.5C 257.5,93.5 257.5,92.5 257.5,91.5C 260.833,91.5 264.167,91.5 267.5,91.5 Z"/></g>
<g><path style="opacity:1" fill="#54422a" d="M 0.5,88.5 C 25.5,88.5 50.5,88.5 75.5,88.5C 75.5,88.8333 75.5,89.1667 75.5,89.5C 73.8008,89.3398 72.1341,89.5065 70.5,90C 73.404,94.3296 74.7374,99.1629 74.5,104.5C 73.325,104.281 72.325,104.614 71.5,105.5C 72.6888,106.429 74.0222,106.762 75.5,106.5C 101.5,106.5 127.5,106.5 153.5,106.5C 153.5,105.5 153.5,104.5 153.5,103.5C 153.5,98.5 153.5,93.5 153.5,88.5C 153.833,88.5 154.167,88.5 154.5,88.5C 154.5,94.8333 154.5,101.167 154.5,107.5C 121.5,107.5 88.5,107.5 55.5,107.5C 58.2869,106.523 61.2869,106.19 64.5,106.5C 64.8333,98.5 65.1667,98.5 65.5,106.5C 66.8333,106.5 68.1667,106.5 69.5,106.5C 69.5,102.5 69.5,98.5 69.5,94.5C 67.1727,94.2471 65.1727,94.9137 63.5,96.5C 62.5713,95.3112 62.238,93.9778 62.5,92.5C 52.791,92.2035 52.4577,91.3701 61.5,90C 57.5,89.3333 53.5,89.3333 49.5,90C 50.624,90.2492 51.624,90.7492 52.5,91.5C 49.5719,92.4841 46.5719,92.8174 43.5,92.5C 43.1667,97.8333 42.8333,97.8333 42.5,92.5C 38.4852,92.2759 37.8185,93.4425 40.5,96C 40.2196,97.395 39.5529,98.5617 38.5,99.5C 38.003,96.4243 37.6697,93.091 37.5,89.5C 35.8333,89.5 34.1667,89.5 32.5,89.5C 32.5,90.5 32.5,91.5 32.5,92.5C 29.5,92.5 26.5,92.5 23.5,92.5C 23.3068,96.449 22.8068,96.449 22,92.5C 20.8526,95.3988 20.0192,98.3988 19.5,101.5C 19.8178,102.647 20.4844,103.481 21.5,104C 19.5,104.667 17.5,104.667 15.5,104C 14.4844,103.481 13.8178,102.647 13.5,101.5C 15.7016,98.1068 17.0349,94.4401 17.5,90.5C 18.4503,88.9002 15.1169,88.9002 7.5,90.5C 8.92229,91.5472 10.4223,91.5472 12,90.5C 13.8261,91.0104 13.9928,91.8438 12.5,93C 10.5659,93.0116 8.56593,92.845 6.5,92.5C 1.27041,93.065 1.27041,93.8983 6.5,95C 4.86586,95.4935 3.19919,95.6602 1.5,95.5C 1.5,99.5 1.5,103.5 1.5,107.5C 1.5,107.833 1.5,108.167 1.5,108.5C 1.16667,108.5 0.833333,108.5 0.5,108.5C 0.681732,101.713 0.681732,95.0462 0.5,88.5 Z"/></g>
<g><path style="opacity:1" fill="#7b6136" d="M 75.5,89.5 C 89.465,91.3199 103.798,92.1532 118.5,92C 104.226,93.4304 89.8923,93.9304 75.5,93.5C 75.5,94.5 75.5,95.5 75.5,96.5C 79.5,97.1667 79.5,97.8333 75.5,98.5C 75.5,99.5 75.5,100.5 75.5,101.5C 79.5,101.833 79.5,102.167 75.5,102.5C 75.5,103.833 75.5,105.167 75.5,106.5C 74.0222,106.762 72.6888,106.429 71.5,105.5C 72.325,104.614 73.325,104.281 74.5,104.5C 74.7374,99.1629 73.404,94.3296 70.5,90C 72.1341,89.5065 73.8008,89.3398 75.5,89.5 Z"/></g>
<g><path style="opacity:1" fill="#85693b" d="M 152.5,88.5 C 152.833,88.5 153.167,88.5 153.5,88.5C 153.5,93.5 153.5,98.5 153.5,103.5C 129.9,103.757 106.233,103.424 82.5,102.5C 92.2876,101.979 101.954,100.812 111.5,99C 100.833,98.6667 90.1667,98.3333 79.5,98C 103.768,96.5292 128.101,96.0292 152.5,96.5C 152.5,95.5 152.5,94.5 152.5,93.5C 142.06,93.1985 131.727,92.8652 121.5,92.5C 131.728,91.1818 141.894,91.1818 152,92.5C 152.49,91.2068 152.657,89.8734 152.5,88.5 Z"/></g>
<g><path style="opacity:1" fill="#816435" d="M 175.5,98.5 C 175.5,97.8333 175.5,97.1667 175.5,96.5C 200.212,96.8236 224.878,96.4902 249.5,95.5C 250.386,96.325 250.719,97.325 250.5,98.5C 225.532,98.1654 200.532,98.1654 175.5,98.5 Z"/></g>
<g><path style="opacity:1" fill="#9ea9bf" d="M 267.5,96.5 C 267.5,97.1667 267.5,97.8333 267.5,98.5C 264.375,99.4794 261.042,99.8128 257.5,99.5C 257.5,98.5 257.5,97.5 257.5,96.5C 260.833,96.5 264.167,96.5 267.5,96.5 Z"/></g>
<g><path style="opacity:1" fill="#abb2d4" d="M 271.5,29.5 C 271.833,29.5 272.167,29.5 272.5,29.5C 272.5,68.8333 272.5,108.167 272.5,147.5C 271.833,147.5 271.167,147.5 270.5,147.5C 270.5,146.5 270.5,145.5 270.5,144.5C 271.254,119.079 271.254,93.7461 270.5,68.5C 271.485,64.3656 271.818,60.0323 271.5,55.5C 271.5,46.8333 271.5,38.1667 271.5,29.5 Z"/></g>
<g><path style="opacity:1" fill="#9c7f4f" d="M 101.5,68.5 C 103.711,74.5083 104.044,80.6749 102.5,87C 104.459,88.0963 106.625,88.5963 109,88.5C 111.033,88.4944 112.866,88.1611 114.5,87.5C 114.833,87.5 115.167,87.5 115.5,87.5C 124.318,88.4933 133.318,88.8266 142.5,88.5C 143.5,88.5 144.5,88.5 145.5,88.5C 148.144,88.2847 150.477,88.2847 152.5,88.5C 152.657,89.8734 152.49,91.2068 152,92.5C 141.894,91.1818 131.728,91.1818 121.5,92.5C 131.727,92.8652 142.06,93.1985 152.5,93.5C 152.5,94.5 152.5,95.5 152.5,96.5C 128.101,96.0292 103.768,96.5292 79.5,98C 90.1667,98.3333 100.833,98.6667 111.5,99C 101.954,100.812 92.2876,101.979 82.5,102.5C 106.233,103.424 129.9,103.757 153.5,103.5C 153.5,104.5 153.5,105.5 153.5,106.5C 127.5,106.5 101.5,106.5 75.5,106.5C 75.5,105.167 75.5,103.833 75.5,102.5C 79.5,102.167 79.5,101.833 75.5,101.5C 75.5,100.5 75.5,99.5 75.5,98.5C 79.5,97.8333 79.5,97.1667 75.5,96.5C 75.5,95.5 75.5,94.5 75.5,93.5C 89.8923,93.9304 104.226,93.4304 118.5,92C 103.798,92.1532 89.465,91.3199 75.5,89.5C 75.5,89.1667 75.5,88.8333 75.5,88.5C 82.3543,88.824 89.021,88.4907 95.5,87.5C 95.5,81.1667 95.5,74.8333 95.5,68.5C 97.5,68.5 99.5,68.5 101.5,68.5 Z"/></g>
<g><path style="opacity:1" fill="#9f8252" d="M 175.5,93.5 C 201.167,93.5 226.833,93.5 252.5,93.5C 252.5,96.1667 252.5,98.8333 252.5,101.5C 226.833,101.5 201.167,101.5 175.5,101.5C 175.5,100.5 175.5,99.5 175.5,98.5C 200.532,98.1654 225.532,98.1654 250.5,98.5C 250.719,97.325 250.386,96.325 249.5,95.5C 224.878,96.4902 200.212,96.8236 175.5,96.5C 175.5,95.5 175.5,94.5 175.5,93.5 Z"/></g>
<g><path style="opacity:1" fill="#7c6132" d="M 175.5,102.5 C 175.5,102.167 175.5,101.833 175.5,101.5C 201.167,101.5 226.833,101.5 252.5,101.5C 252.5,102.167 252.5,102.833 252.5,103.5C 226.833,103.333 201.166,103 175.5,102.5 Z"/></g>
<g><path style="opacity:1" fill="#96794b" d="M 154.5,88.5 C 160.833,88.5 167.167,88.5 173.5,88.5C 173.005,94.8913 173.005,101.225 173.5,107.5C 167.167,107.5 160.833,107.5 154.5,107.5C 154.5,101.167 154.5,94.8333 154.5,88.5 Z"/></g>
<g><path style="opacity:1" fill="#a0824d" d="M 175.5,102.5 C 201.166,103 226.833,103.333 252.5,103.5C 252.5,104.5 252.5,105.5 252.5,106.5C 226.683,106.418 201.016,106.418 175.5,106.5C 175.5,105.167 175.5,103.833 175.5,102.5 Z"/></g>
<g><path style="opacity:1" fill="#5e4b2d" d="M 55.5,107.5 C 37.5,107.5 19.5,107.5 1.5,107.5C 1.5,103.5 1.5,99.5 1.5,95.5C 3.19919,95.6602 4.86586,95.4935 6.5,95C 1.27041,93.8983 1.27041,93.065 6.5,92.5C 8.56593,92.845 10.5659,93.0116 12.5,93C 13.9928,91.8438 13.8261,91.0104 12,90.5C 10.4223,91.5472 8.92229,91.5472 7.5,90.5C 15.1169,88.9002 18.4503,88.9002 17.5,90.5C 17.0349,94.4401 15.7016,98.1068 13.5,101.5C 13.8178,102.647 14.4844,103.481 15.5,104C 17.5,104.667 19.5,104.667 21.5,104C 20.4844,103.481 19.8178,102.647 19.5,101.5C 20.0192,98.3988 20.8526,95.3988 22,92.5C 22.8068,96.449 23.3068,96.449 23.5,92.5C 26.5,92.5 29.5,92.5 32.5,92.5C 32.5,91.5 32.5,90.5 32.5,89.5C 34.1667,89.5 35.8333,89.5 37.5,89.5C 37.6697,93.091 38.003,96.4243 38.5,99.5C 39.5529,98.5617 40.2196,97.395 40.5,96C 37.8185,93.4425 38.4852,92.2759 42.5,92.5C 42.8333,97.8333 43.1667,97.8333 43.5,92.5C 46.5719,92.8174 49.5719,92.4841 52.5,91.5C 51.624,90.7492 50.624,90.2492 49.5,90C 53.5,89.3333 57.5,89.3333 61.5,90C 52.4577,91.3701 52.791,92.2035 62.5,92.5C 62.238,93.9778 62.5713,95.3112 63.5,96.5C 65.1727,94.9137 67.1727,94.2471 69.5,94.5C 69.5,98.5 69.5,102.5 69.5,106.5C 68.1667,106.5 66.8333,106.5 65.5,106.5C 65.1667,98.5 64.8333,98.5 64.5,106.5C 61.2869,106.19 58.2869,106.523 55.5,107.5 Z"/></g>
<g><path style="opacity:1" fill="#a8b8f0" d="M 296.5,95.5 C 296.5,101.5 296.5,107.5 296.5,113.5C 295.292,112.766 293.959,112.433 292.5,112.5C 292.5,107.167 292.5,101.833 292.5,96.5C 293.959,96.5674 295.292,96.2341 296.5,95.5 Z"/></g>
<g><path style="opacity:1" fill="#818797" d="M 1.5,107.5 C 19.5,107.5 37.5,107.5 55.5,107.5C 88.5,107.5 121.5,107.5 154.5,107.5C 154.5,107.833 154.5,108.167 154.5,108.5C 122.167,108.5 89.8333,108.5 57.5,108.5C 40.5,108.5 23.5,108.5 6.5,108.5C 6.5,111.167 6.5,113.833 6.5,116.5C 4.95819,115.699 3.29152,115.366 1.5,115.5C 1.5,113.167 1.5,110.833 1.5,108.5C 1.5,108.167 1.5,107.833 1.5,107.5 Z"/></g>
<g><path style="opacity:1" fill="#a1bffb" d="M 57.5,108.5 C 89.3307,109.332 121.331,109.832 153.5,110C 152.112,110.889 152.278,111.389 154,111.5C 158.446,110.588 162.946,110.255 167.5,110.5C 167.504,130.456 168.171,130.456 169.5,110.5C 170.666,121.485 170.832,132.485 170,143.5C 168.717,148.657 168.05,153.99 168,159.5C 167.503,156.854 167.336,154.187 167.5,151.5C 138.167,151.5 108.833,151.5 79.5,151.5C 76.8333,151.5 74.1667,151.5 71.5,151.5C 71.6495,150.448 71.4828,149.448 71,148.5C 70.5034,150.81 70.3367,153.143 70.5,155.5C 69.448,155.649 68.448,155.483 67.5,155C 67.5451,152.364 67.7118,149.53 68,146.5C 70.0828,145.035 69.9162,144.035 67.5,143.5C 64.9717,145.874 61.9717,146.874 58.5,146.5C 58.373,142.738 57.7063,139.072 56.5,135.5C 53.5788,136.407 50.5788,136.74 47.5,136.5C 47.5,133.167 47.5,129.833 47.5,126.5C 44.6146,126.194 41.9479,126.527 39.5,127.5C 31.8333,127.5 24.1667,127.5 16.5,127.5C 16.5,124.167 16.5,120.833 16.5,117.5C 13.1667,117.5 9.83333,117.5 6.5,117.5C 6.5,117.167 6.5,116.833 6.5,116.5C 6.5,113.833 6.5,111.167 6.5,108.5C 23.5,108.5 40.5,108.5 57.5,108.5 Z"/></g>
<g><path style="opacity:1" fill="#a2bff9" d="M 252.5,107.5 C 253.833,107.5 254.5,108.167 254.5,109.5C 254.497,117.328 254.831,124.995 255.5,132.5C 254.584,137.11 254.417,141.776 255,146.5C 256.707,147.138 258.54,147.138 260.5,146.5C 261.414,149.728 261.747,153.061 261.5,156.5C 258.5,156.5 255.5,156.5 252.5,156.5C 252.5,159.833 252.5,163.167 252.5,166.5C 249.615,166.194 246.948,166.527 244.5,167.5C 227.833,167.5 211.167,167.5 194.5,167.5C 194.5,147.833 194.5,128.167 194.5,108.5C 214.007,108.83 233.341,108.497 252.5,107.5 Z"/></g>
<g><path style="opacity:1" fill="#645849" d="M 270.5,68.5 C 271.254,93.7461 271.254,119.079 270.5,144.5C 269.609,143.89 268.609,143.557 267.5,143.5C 266.486,142.235 264.986,141.569 263,141.5C 261.014,141.569 259.514,142.235 258.5,143.5C 257.596,142.791 257.263,141.791 257.5,140.5C 261.555,140.824 265.555,140.491 269.5,139.5C 269.043,138.702 268.376,138.369 267.5,138.5C 266.817,136.824 265.483,136.157 263.5,136.5C 265.369,135.835 267.369,135.169 269.5,134.5C 269.058,133.261 268.391,132.261 267.5,131.5C 264.5,131.5 261.5,131.5 258.5,131.5C 257.778,131.918 257.278,132.584 257,133.5C 256.617,132.944 256.117,132.611 255.5,132.5C 254.831,124.995 254.497,117.328 254.5,109.5C 254.387,107.048 254.72,104.382 255.5,101.5C 259.982,100.674 264.649,100.174 269.5,100C 268.956,99.2828 268.289,98.7828 267.5,98.5C 267.5,97.8333 267.5,97.1667 267.5,96.5C 270.167,95.8333 270.167,95.1667 267.5,94.5C 267.5,93.5 267.5,92.5 267.5,91.5C 270.167,90.8333 270.167,90.1667 267.5,89.5C 267.5,88.5 267.5,87.5 267.5,86.5C 270.167,85.8333 270.167,85.1667 267.5,84.5C 266.486,83.2353 264.986,82.5687 263,82.5C 261.014,82.5687 259.514,83.2353 258.5,84.5C 256.801,84.4729 255.467,83.8062 254.5,82.5C 254.328,81.5084 254.662,80.8417 255.5,80.5C 260.015,81.8124 264.682,81.8124 269.5,80.5C 269.043,79.7025 268.376,79.3691 267.5,79.5C 264.663,77.5977 261.329,76.931 257.5,77.5C 261.353,76.8337 265.353,76.167 269.5,75.5C 269.043,74.7025 268.376,74.3691 267.5,74.5C 264.663,72.5977 261.329,71.931 257.5,72.5C 261.312,71.6762 265.312,71.1762 269.5,71C 264.845,70.5008 260.179,70.3342 255.5,70.5C 255.784,72.4147 255.451,74.0813 254.5,75.5C 254.244,73.2075 254.577,71.0408 255.5,69C 260.489,69.8259 265.489,69.6593 270.5,68.5 Z"/></g>
<g><path style="opacity:1" fill="#a1abc9" d="M 257.5,111.5 C 260.833,111.5 264.167,111.5 267.5,111.5C 267.5,112.5 267.5,113.5 267.5,114.5C 264.167,114.5 260.833,114.5 257.5,114.5C 257.5,113.5 257.5,112.5 257.5,111.5 Z"/></g>
<g><path style="opacity:1" fill="#9faece" d="M 257.5,106.5 C 260.833,106.5 264.167,106.5 267.5,106.5C 267.5,107.5 267.5,108.5 267.5,109.5C 264.482,109.665 261.482,109.498 258.5,109C 257.748,108.329 257.414,107.496 257.5,106.5 Z"/></g>
<g><path style="opacity:1" fill="#a1a6c1" d="M 257.5,101.5 C 260.833,101.5 264.167,101.5 267.5,101.5C 267.5,102.5 267.5,103.5 267.5,104.5C 264.167,104.5 260.833,104.5 257.5,104.5C 257.5,103.5 257.5,102.5 257.5,101.5 Z"/></g>
<g><path style="opacity:1" fill="#a7b4da" d="M 267.5,84.5 C 264.5,84.5 261.5,84.5 258.5,84.5C 259.514,83.2353 261.014,82.5687 263,82.5C 264.986,82.5687 266.486,83.2353 267.5,84.5 Z"/></g>
<g><path style="opacity:1" fill="#a3b1da" d="M 257.5,72.5 C 261.329,71.931 264.663,72.5977 267.5,74.5C 263.671,75.069 260.337,74.4023 257.5,72.5 Z"/></g>
<g><path style="opacity:1" fill="#a3aed0" d="M 257.5,116.5 C 260.833,116.5 264.167,116.5 267.5,116.5C 267.5,117.5 267.5,118.5 267.5,119.5C 264.167,119.5 260.833,119.5 257.5,119.5C 257.5,118.5 257.5,117.5 257.5,116.5 Z"/></g>
<g><path style="opacity:1" fill="#020203" d="M -0.5,-0.5 C -0.166667,-0.5 0.166667,-0.5 0.5,-0.5C 0.5,9.16667 0.5,18.8333 0.5,28.5C 0.5,48.5 0.5,68.5 0.5,88.5C 0.681732,95.0462 0.681732,101.713 0.5,108.5C 0.5,128.167 0.5,147.833 0.5,167.5C 0.166667,167.5 -0.166667,167.5 -0.5,167.5C -0.5,111.5 -0.5,55.5 -0.5,-0.5 Z"/></g>
<g><path style="opacity:1" fill="#74777d" d="M 6.5,117.5 C 9.83333,117.5 13.1667,117.5 16.5,117.5C 16.5,120.833 16.5,124.167 16.5,127.5C 13.5118,125.727 10.1785,125.06 6.5,125.5C 6.5,122.833 6.5,120.167 6.5,117.5 Z"/></g>
<g><path style="opacity:1" fill="#a8afd3" d="M 257.5,121.5 C 260.833,121.5 264.167,121.5 267.5,121.5C 267.5,122.5 267.5,123.5 267.5,124.5C 264.482,124.665 261.482,124.498 258.5,124C 257.748,123.329 257.414,122.496 257.5,121.5 Z"/></g>
<g><path style="opacity:1" fill="#8f7346" d="M 252.5,106.5 C 252.5,106.833 252.5,107.167 252.5,107.5C 232.833,107.5 213.167,107.5 193.5,107.5C 193.5,120.833 193.5,134.167 193.5,147.5C 192.681,150.305 192.181,153.305 192,156.5C 191.502,153.183 191.335,149.85 191.5,146.5C 190.5,146.5 189.5,146.5 188.5,146.5C 188.167,150.5 187.833,150.5 187.5,146.5C 183.158,146.261 178.824,145.927 174.5,145.5C 174.828,133.322 174.495,121.322 173.5,109.5C 174.167,108.5 174.833,107.5 175.5,106.5C 201.016,106.418 226.683,106.418 252.5,106.5 Z"/></g>
<g><path style="opacity:1" fill="#e94e79" d="M 292.5,112.5 C 293.959,112.433 295.292,112.766 296.5,113.5C 296.5,119.167 296.5,124.833 296.5,130.5C 295.167,130.5 293.833,130.5 292.5,130.5C 291.141,129.993 290.141,128.993 289.5,127.5C 289.167,125.5 288.833,123.5 288.5,121.5C 287.724,117.434 289.058,114.434 292.5,112.5 Z"/></g>
<g><path style="opacity:1" fill="#aab3e0" d="M 257.5,126.5 C 261.375,126.085 265.042,126.585 268.5,128C 266.667,128.167 264.833,128.333 263,128.5C 260.705,128.453 258.871,127.787 257.5,126.5 Z"/></g>
<g><path style="opacity:1" fill="#776750" d="M 258.5,131.5 C 259.514,132.765 261.014,133.431 263,133.5C 264.986,133.431 266.486,132.765 267.5,131.5C 268.391,132.261 269.058,133.261 269.5,134.5C 267.369,135.169 265.369,135.835 263.5,136.5C 261.712,136.215 260.045,136.548 258.5,137.5C 261.428,138.484 264.428,138.817 267.5,138.5C 268.376,138.369 269.043,138.702 269.5,139.5C 265.555,140.491 261.555,140.824 257.5,140.5C 257.263,141.791 257.596,142.791 258.5,143.5C 261.5,143.5 264.5,143.5 267.5,143.5C 268.609,143.557 269.609,143.89 270.5,144.5C 270.5,145.5 270.5,146.5 270.5,147.5C 269.5,147.5 268.5,147.5 267.5,147.5C 265.393,146.532 263.059,146.198 260.5,146.5C 258.54,147.138 256.707,147.138 255,146.5C 254.417,141.776 254.584,137.11 255.5,132.5C 256.117,132.611 256.617,132.944 257,133.5C 257.278,132.584 257.778,131.918 258.5,131.5 Z"/></g>
<g><path style="opacity:1" fill="#adc0e6" d="M 258.5,131.5 C 261.5,131.5 264.5,131.5 267.5,131.5C 266.486,132.765 264.986,133.431 263,133.5C 261.014,133.431 259.514,132.765 258.5,131.5 Z"/></g>
<g><path style="opacity:1" fill="#5d5d5d" d="M 0.5,108.5 C 0.833333,108.5 1.16667,108.5 1.5,108.5C 1.5,110.833 1.5,113.167 1.5,115.5C 3.29152,115.366 4.95819,115.699 6.5,116.5C 6.5,116.833 6.5,117.167 6.5,117.5C 6.5,120.167 6.5,122.833 6.5,125.5C 10.1785,125.06 13.5118,125.727 16.5,127.5C 16.3359,130.187 16.5026,132.854 17,135.5C 20.5116,134.905 24.0116,135.405 27.5,137C 26.5562,139.719 26.2229,142.552 26.5,145.5C 30.7675,145.797 34.9341,145.464 39,144.5C 39.5133,145.527 40.0133,146.527 40.5,147.5C 27.5,147.5 14.5,147.5 1.5,147.5C 1.5,154.167 1.5,160.833 1.5,167.5C 1.16667,167.5 0.833333,167.5 0.5,167.5C 0.5,147.833 0.5,128.167 0.5,108.5 Z"/></g>
<g><path style="opacity:1" fill="#b2bce5" d="M 263.5,136.5 C 265.483,136.157 266.817,136.824 267.5,138.5C 264.428,138.817 261.428,138.484 258.5,137.5C 260.045,136.548 261.712,136.215 263.5,136.5 Z"/></g>
<g><path style="opacity:1" fill="#787878" d="M 6.5,137.5 C 12.8421,137.334 19.1754,137.5 25.5,138C 24.8875,140.147 24.2208,142.314 23.5,144.5C 17.9048,144.123 12.2381,144.123 6.5,144.5C 6.5,142.167 6.5,139.833 6.5,137.5 Z"/></g>
<g><path style="opacity:1" fill="#acc0f1" d="M 292.5,130.5 C 293.833,130.5 295.167,130.5 296.5,130.5C 296.5,136.167 296.5,141.833 296.5,147.5C 295.167,147.5 293.833,147.5 292.5,147.5C 292.5,141.833 292.5,136.167 292.5,130.5 Z"/></g>
<g><path style="opacity:1" fill="#9aa3b7" d="M 252.5,107.5 C 233.341,108.497 214.007,108.83 194.5,108.5C 194.5,128.167 194.5,147.833 194.5,167.5C 194.167,167.5 193.833,167.5 193.5,167.5C 193.5,160.833 193.5,154.167 193.5,147.5C 193.5,134.167 193.5,120.833 193.5,107.5C 213.167,107.5 232.833,107.5 252.5,107.5 Z"/></g>
<g><path style="opacity:1" fill="#aebedf" d="M 267.5,143.5 C 264.5,143.5 261.5,143.5 258.5,143.5C 259.514,142.235 261.014,141.569 263,141.5C 264.986,141.569 266.486,142.235 267.5,143.5 Z"/></g>
<g><path style="opacity:1" fill="#a7bdec" d="M 39.5,127.5 C 41.9479,126.527 44.6146,126.194 47.5,126.5C 47.5,129.833 47.5,133.167 47.5,136.5C 50.5788,136.74 53.5788,136.407 56.5,135.5C 57.7063,139.072 58.373,142.738 58.5,146.5C 61.9717,146.874 64.9717,145.874 67.5,143.5C 69.9162,144.035 70.0828,145.035 68,146.5C 67.7118,149.53 67.5451,152.364 67.5,155C 68.448,155.483 69.448,155.649 70.5,155.5C 70.3367,153.143 70.5034,150.81 71,148.5C 71.4828,149.448 71.6495,150.448 71.5,151.5C 74.1667,151.5 76.8333,151.5 79.5,151.5C 77.5564,155.944 76.5564,160.611 76.5,165.5C 92.5357,164.849 108.202,165.516 123.5,167.5C 107.5,167.5 91.5,167.5 75.5,167.5C 75.5,164.167 75.5,160.833 75.5,157.5C 72.1667,157.5 68.8333,157.5 65.5,157.5C 65.5,154.167 65.5,150.833 65.5,147.5C 62.1667,147.5 58.8333,147.5 55.5,147.5C 55.5,144.167 55.5,140.833 55.5,137.5C 52.5,137.5 49.5,137.5 46.5,137.5C 46.5,134.167 46.5,130.833 46.5,127.5C 44.1667,127.5 41.8333,127.5 39.5,127.5 Z"/></g>
<g><path style="opacity:1" fill="#a6c1f8" d="M 57.5,108.5 C 89.8333,108.5 122.167,108.5 154.5,108.5C 160.645,109.49 166.978,109.823 173.5,109.5C 174.495,121.322 174.828,133.322 174.5,145.5C 174.5,152.833 174.5,160.167 174.5,167.5C 157.5,167.5 140.5,167.5 123.5,167.5C 108.202,165.516 92.5357,164.849 76.5,165.5C 76.5564,160.611 77.5564,155.944 79.5,151.5C 108.833,151.5 138.167,151.5 167.5,151.5C 167.336,154.187 167.503,156.854 168,159.5C 168.05,153.99 168.717,148.657 170,143.5C 170.832,132.485 170.666,121.485 169.5,110.5C 168.171,130.456 167.504,130.456 167.5,110.5C 162.946,110.255 158.446,110.588 154,111.5C 152.278,111.389 152.112,110.889 153.5,110C 121.331,109.832 89.3307,109.332 57.5,108.5 Z"/></g>
<g><path style="opacity:1" fill="#7b2f2b" d="M 292.5,147.5 C 293.833,147.5 295.167,147.5 296.5,147.5C 296.833,147.5 297.167,147.5 297.5,147.5C 297.5,149.5 297.5,151.5 297.5,153.5C 297.167,153.5 296.833,153.5 296.5,153.5C 295.167,153.5 293.833,153.5 292.5,153.5C 291.167,151.5 291.167,149.5 292.5,147.5 Z"/></g>
<g><path style="opacity:1" fill="#b51a1b" d="M 292.5,148.5 C 293.5,148.5 294.5,148.5 295.5,148.5C 295.5,149.833 295.5,151.167 295.5,152.5C 294.5,152.5 293.5,152.5 292.5,152.5C 292.5,151.167 292.5,149.833 292.5,148.5 Z"/></g>
<g><path style="opacity:1" fill="#5d4a2d" d="M 174.5,145.5 C 178.824,145.927 183.158,146.261 187.5,146.5C 187.833,150.5 188.167,150.5 188.5,146.5C 189.5,146.5 190.5,146.5 191.5,146.5C 191.335,149.85 191.502,153.183 192,156.5C 192.181,153.305 192.681,150.305 193.5,147.5C 193.5,154.167 193.5,160.833 193.5,167.5C 187.167,167.5 180.833,167.5 174.5,167.5C 174.5,160.167 174.5,152.833 174.5,145.5 Z"/></g>
<g><path style="opacity:1" fill="#aba9bb" d="M 260.5,146.5 C 263.059,146.198 265.393,146.532 267.5,147.5C 266.167,147.5 264.833,147.5 263.5,147.5C 263.5,150.833 263.5,154.167 263.5,157.5C 260.167,157.5 256.833,157.5 253.5,157.5C 253.5,160.833 253.5,164.167 253.5,167.5C 250.5,167.5 247.5,167.5 244.5,167.5C 246.948,166.527 249.615,166.194 252.5,166.5C 252.5,163.167 252.5,159.833 252.5,156.5C 255.5,156.5 258.5,156.5 261.5,156.5C 261.747,153.061 261.414,149.728 260.5,146.5 Z"/></g>
<g><path style="opacity:1" fill="#d7c8cb" d="M 292.5,153.5 C 293.833,153.5 295.167,153.5 296.5,153.5C 295.659,155.379 295.325,157.379 295.5,159.5C 294.5,159.5 293.5,159.5 292.5,159.5C 292.5,157.5 292.5,155.5 292.5,153.5 Z"/></g>
<g><path style="opacity:1" fill="#767576" d="M 40.5,147.5 C 45.1667,147.5 49.8333,147.5 54.5,147.5C 54.6463,149.942 53.813,150.609 52,149.5C 50.7635,151.104 49.5968,152.771 48.5,154.5C 45.0344,153.923 41.7011,152.923 38.5,151.5C 37.6433,152.736 36.9766,154.069 36.5,155.5C 38.6079,156.944 40.9412,157.61 43.5,157.5C 43.5,158.833 43.5,160.167 43.5,161.5C 40.1746,161.494 37.8413,162.994 36.5,166C 38.7078,166.191 40.7078,166.691 42.5,167.5C 28.8333,167.5 15.1667,167.5 1.5,167.5C 1.5,160.833 1.5,154.167 1.5,147.5C 14.5,147.5 27.5,147.5 40.5,147.5 Z"/></g>
<g><path style="opacity:1" fill="#a27e85" d="M 296.5,153.5 C 296.833,153.5 297.167,153.5 297.5,153.5C 296.735,156.096 296.401,158.763 296.5,161.5C 295.167,161.5 293.833,161.5 292.5,161.5C 292.5,160.833 292.5,160.167 292.5,159.5C 293.5,159.5 294.5,159.5 295.5,159.5C 295.325,157.379 295.659,155.379 296.5,153.5 Z"/></g>
<g><path style="opacity:1" fill="#9c8151" d="M 263.5,157.5 C 272.839,157.334 282.173,157.5 291.5,158C 280.9,159.576 270.234,160.742 259.5,161.5C 265.807,162.331 272.141,162.831 278.5,163C 277.366,164.016 277.699,164.683 279.5,165C 270.773,164.859 262.44,165.692 254.5,167.5C 254.167,167.5 253.833,167.5 253.5,167.5C 253.5,164.167 253.5,160.833 253.5,157.5C 256.833,157.5 260.167,157.5 263.5,157.5 Z"/></g>
<g><path style="opacity:1" fill="#a6171b" d="M 292.5,161.5 C 293.833,161.5 295.167,161.5 296.5,161.5C 296.5,163.5 296.5,165.5 296.5,167.5C 295.167,167.5 293.833,167.5 292.5,167.5C 292.5,165.5 292.5,163.5 292.5,161.5 Z"/></g>
<g><path style="opacity:1" fill="#6c6c6d" d="M 16.5,127.5 C 24.1667,127.5 31.8333,127.5 39.5,127.5C 41.8333,127.5 44.1667,127.5 46.5,127.5C 46.5,130.833 46.5,134.167 46.5,137.5C 49.5,137.5 52.5,137.5 55.5,137.5C 55.5,140.833 55.5,144.167 55.5,147.5C 58.8333,147.5 62.1667,147.5 65.5,147.5C 65.5,150.833 65.5,154.167 65.5,157.5C 68.8333,157.5 72.1667,157.5 75.5,157.5C 75.5,160.833 75.5,164.167 75.5,167.5C 64.5,167.5 53.5,167.5 42.5,167.5C 40.7078,166.691 38.7078,166.191 36.5,166C 37.8413,162.994 40.1746,161.494 43.5,161.5C 43.5,160.167 43.5,158.833 43.5,157.5C 40.9412,157.61 38.6079,156.944 36.5,155.5C 36.9766,154.069 37.6433,152.736 38.5,151.5C 41.7011,152.923 45.0344,153.923 48.5,154.5C 49.5968,152.771 50.7635,151.104 52,149.5C 53.813,150.609 54.6463,149.942 54.5,147.5C 49.8333,147.5 45.1667,147.5 40.5,147.5C 40.0133,146.527 39.5133,145.527 39,144.5C 34.9341,145.464 30.7675,145.797 26.5,145.5C 26.2229,142.552 26.5562,139.719 27.5,137C 24.0116,135.405 20.5116,134.905 17,135.5C 16.5026,132.854 16.3359,130.187 16.5,127.5 Z"/></g>
</svg>
