<?xml version="1.0" encoding="UTF-8"?>
<!DOCTYPE svg PUBLIC "-//W3C//DTD SVG 1.1//EN" "http://www.w3.org/Graphics/SVG/1.1/DTD/svg11.dtd">
<svg xmlns="http://www.w3.org/2000/svg" version="1.1" width="1024px" height="1024px" style="shape-rendering:geometricPrecision; text-rendering:geometricPrecision; image-rendering:optimizeQuality; fill-rule:evenodd; clip-rule:evenodd" xmlns:xlink="http://www.w3.org/1999/xlink">
<g><path style="opacity:0.978" fill="#daefeb" d="M 771.5,618.5 C 770.833,603.833 770.167,589.167 769.5,574.5C 769.5,559.167 769.5,543.833 769.5,528.5C 769.158,527.662 768.492,527.328 767.5,527.5C 761.009,524.422 754.675,521.088 748.5,517.5C 755.167,514.167 761.833,510.833 768.5,507.5C 769.831,458.998 769.831,410.332 768.5,361.5C 729.171,380.831 689.838,400.164 650.5,419.5C 645.584,421.463 640.918,423.797 636.5,426.5C 635.508,426.328 634.842,426.662 634.5,427.5C 595.733,444.597 557.399,462.764 519.5,482C 518.177,482.816 517.511,483.983 517.5,485.5C 513.725,484.445 510.058,483.112 506.5,481.5C 467.833,462.5 429.167,443.5 390.5,424.5C 390.5,423.833 390.167,423.5 389.5,423.5C 384.68,421.264 379.68,419.264 374.5,417.5C 374.5,416.833 374.167,416.5 373.5,416.5C 335.356,396.928 297.023,377.595 258.5,358.5C 257.791,357.596 256.791,357.263 255.5,357.5C 255.5,359.167 255.5,360.833 255.5,362.5C 254.378,360.712 254.211,358.712 255,356.5C 255.725,354.842 256.892,354.342 258.5,355C 292.471,372.203 326.471,389.203 360.5,406C 362.167,406.667 363.833,406.667 365.5,406C 363.353,403.763 361.02,401.763 358.5,400C 330.435,386.259 302.435,372.425 274.5,358.5C 272.987,356.465 272.321,354.131 272.5,351.5C 272.602,345.667 272.936,339.834 273.5,334C 278.715,331.901 283.382,329.067 287.5,325.5C 297.846,322.996 307.512,318.829 316.5,313C 323.716,311.37 330.05,308.037 335.5,303C 338.576,302.654 341.576,301.988 344.5,301C 355.802,294.957 367.469,289.79 379.5,285.5C 387.635,287.899 395.301,291.399 402.5,296C 404.878,296.511 407.212,297.178 409.5,298C 433.385,310.047 457.385,321.881 481.5,333.5C 482.833,332.5 482.833,331.5 481.5,330.5C 456.719,318.55 432.053,306.383 407.5,294C 406.874,293.25 406.374,292.416 406,291.5C 405.333,284.5 405.333,277.5 406,270.5C 406.308,269.692 406.808,269.025 407.5,268.5C 438.891,253.057 470.891,238.224 503.5,224C 506.128,221.534 509.128,219.701 512.5,218.5C 520.45,222.873 528.783,226.373 537.5,229C 545.091,235.197 553.758,238.864 563.5,240C 566.024,243.606 569.357,246.272 573.5,248C 576.43,249.659 579.43,249.992 582.5,249C 588.499,255.24 595.832,259.24 604.5,261C 610.044,264.734 615.877,267.901 622,270.5C 622.206,276.884 622.706,283.217 623.5,289.5C 622.846,291.115 622.346,292.782 622,294.5C 610.808,299.733 599.641,305.067 588.5,310.5C 587.167,311.5 587.167,312.5 588.5,313.5C 601.402,307.427 614.402,301.594 627.5,296C 629.625,292.676 632.458,291.509 636,292.5C 639.976,289.397 644.476,287.897 649.5,288C 655.006,290.519 660.673,292.519 666.5,294C 671.82,297.957 677.653,301.124 684,303.5C 684.689,302.643 685.522,301.977 686.5,301.5C 689.024,303.19 691.024,305.357 692.5,308C 696.232,309.461 699.732,311.294 703,313.5C 706.71,312.15 709.543,313.317 711.5,317C 718.878,320.792 726.545,323.792 734.5,326C 740.026,331.43 746.692,334.763 754.5,336C 755,336.5 755.5,337 756,337.5C 756.19,343.416 756.69,349.249 757.5,355C 756.111,359.775 753.111,363.108 748.5,365C 748.833,365.333 749.167,365.667 749.5,366C 752.437,366.361 755.27,365.861 758,364.5C 761.496,362.446 765.163,360.78 769,359.5C 769.414,359.957 769.914,360.291 770.5,360.5C 771.667,409.83 771.833,459.163 771,508.5C 767.118,511.363 762.951,513.863 758.5,516C 757.14,517.938 757.473,519.604 759.5,521C 763.644,522.266 767.477,524.099 771,526.5C 771.302,557.134 771.469,587.801 771.5,618.5 Z M 740.5,368.5 C 745.236,368.885 745.569,370.219 741.5,372.5C 737.115,375.052 732.448,376.886 727.5,378C 725.641,379.692 723.641,381.192 721.5,382.5C 718.921,381.112 718.921,379.612 721.5,378C 727.753,374.558 734.086,371.391 740.5,368.5 Z M 461.5,371.5 C 465.35,371.701 466.35,373.534 464.5,377C 449.086,384.373 433.419,391.206 417.5,397.5C 417.5,396.167 417.5,394.833 417.5,393.5C 425.901,388.797 434.568,384.297 443.5,380C 446.893,379.202 450.226,378.202 453.5,377C 456.439,375.454 459.106,373.621 461.5,371.5 Z"/></g>
<g><path style="opacity:1" fill="#6cbe8d" d="M 751.5,339.5 C 717.505,355.498 683.505,371.498 649.5,387.5C 647.801,387.66 646.134,387.494 644.5,387C 610.352,371.092 576.352,354.926 542.5,338.5C 577.289,321.942 612.289,305.608 647.5,289.5C 682.258,306.214 716.925,322.881 751.5,339.5 Z"/></g>
<g><path style="opacity:0.999" fill="#6cbe8d" d="M 484.5,338.5 C 449.6,353.949 414.933,369.949 380.5,386.5C 345.164,370.606 310.164,353.94 275.5,336.5C 309.834,319.669 344.501,303.335 379.5,287.5C 414.714,304.275 449.714,321.275 484.5,338.5 Z"/></g>
<g><path style="opacity:0.998" fill="#41955f" d="M 409.5,271.5 C 441.02,287.076 472.686,302.576 504.5,318C 507.758,319.467 511.092,320.633 514.5,321.5C 513.536,328.746 513.203,336.08 513.5,343.5C 478.649,326.241 443.649,309.241 408.5,292.5C 408.167,289 407.833,285.5 407.5,282C 407.512,278.098 408.179,274.598 409.5,271.5 Z"/></g>
<g><path style="opacity:0.999" fill="#09421b" d="M 619.5,273.5 C 619.812,280.422 619.479,287.256 618.5,294C 583.478,310.512 548.478,327.012 513.5,343.5C 513.203,336.08 513.536,328.746 514.5,321.5C 549.392,305.22 584.392,289.22 619.5,273.5 Z"/></g>
<g><path style="opacity:1" fill="#6cbd8c" d="M 619.5,273.5 C 584.392,289.22 549.392,305.22 514.5,321.5C 511.092,320.633 507.758,319.467 504.5,318C 472.686,302.576 441.02,287.076 409.5,271.5C 443.728,254.414 478.395,238.081 513.5,222.5C 549.194,239.016 584.527,256.016 619.5,273.5 Z"/></g>
<g><path style="opacity:0.998" fill="#09421b" d="M 484.5,338.5 C 484.83,345.2 484.497,351.866 483.5,358.5C 449.012,375.413 414.345,391.746 379.5,407.5C 379.205,400.412 379.538,393.412 380.5,386.5C 414.933,369.949 449.6,353.949 484.5,338.5 Z"/></g>
<g><path style="opacity:1" fill="#0a421b" d="M 751.5,339.5 C 751.83,346.532 751.497,353.532 750.5,360.5C 716.266,377.118 681.933,393.451 647.5,409.5C 646.924,401.889 647.59,394.556 649.5,387.5C 683.505,371.498 717.505,355.498 751.5,339.5 Z"/></g>
<g><path style="opacity:1" fill="#419460" d="M 542.5,338.5 C 576.352,354.926 610.352,371.092 644.5,387C 646.134,387.494 647.801,387.66 649.5,387.5C 647.59,394.556 646.924,401.889 647.5,409.5C 612.495,392.664 577.495,375.831 542.5,359C 541.173,352.068 541.173,345.235 542.5,338.5 Z"/></g>
<g><path style="opacity:1" fill="#6cbd8d" d="M 617.5,407.5 C 582.844,423.494 548.178,439.494 513.5,455.5C 481.169,441.169 449.169,426.003 417.5,410C 414.242,408.533 410.908,407.367 407.5,406.5C 442.295,390.273 477.295,374.273 512.5,358.5C 547.706,374.606 582.706,390.939 617.5,407.5 Z"/></g>
<g><path style="opacity:0.999" fill="#68b888" d="M 256.5,359.5 C 256.842,358.662 257.508,358.328 258.5,358.5C 297.023,377.595 335.356,396.928 373.5,416.5C 373.5,416.833 373.5,417.167 373.5,417.5C 367.5,421.167 361.5,424.833 355.5,428.5C 327.67,415.417 300.003,402.084 272.5,388.5C 267.417,378.665 262.084,368.998 256.5,359.5 Z"/></g>
<g><path style="opacity:0.999" fill="#72c393" d="M 256.5,359.5 C 262.084,368.998 267.417,378.665 272.5,388.5C 272.826,423.573 272.493,458.573 271.5,493.5C 267.325,496.835 262.992,500.002 258.5,503C 257.748,503.671 257.414,504.504 257.5,505.5C 256.596,504.791 256.263,503.791 256.5,502.5C 256.5,454.833 256.5,407.167 256.5,359.5 Z"/></g>
<g><path style="opacity:1" fill="#073f1a" d="M 768.5,507.5 C 761.833,510.833 755.167,514.167 748.5,517.5C 716.259,532.62 684.259,548.287 652.5,564.5C 657.705,554.638 663.538,544.638 670,534.5C 670.167,499.829 670.667,465.162 671.5,430.5C 697.957,417.603 724.29,404.77 750.5,392C 756.726,383.438 762.559,374.604 768,365.5C 768.5,412.832 768.667,460.165 768.5,507.5 Z"/></g>
<g><path style="opacity:0.998" fill="#3f955e" d="M 275.5,336.5 C 310.164,353.94 345.164,370.606 380.5,386.5C 379.538,393.412 379.205,400.412 379.5,407.5C 344.733,390.95 310.066,374.117 275.5,357C 274.173,350.068 274.173,343.235 275.5,336.5 Z"/></g>
<g><path style="opacity:1" fill="#3f955e" d="M 272.5,388.5 C 300.003,402.084 327.67,415.417 355.5,428.5C 355.5,428.833 355.5,429.167 355.5,429.5C 354.833,464.002 354.167,498.669 353.5,533.5C 340.78,527.14 328.114,520.807 315.5,514.5C 301.07,506.951 286.403,499.951 271.5,493.5C 272.493,458.573 272.826,423.573 272.5,388.5 Z"/></g>
<g><path style="opacity:1" fill="#3f945e" d="M 407.5,406.5 C 410.908,407.367 414.242,408.533 417.5,410C 449.169,426.003 481.169,441.169 513.5,455.5C 512.536,462.746 512.203,470.08 512.5,477.5C 477.982,460.408 443.315,443.575 408.5,427C 407.521,420.256 407.188,413.422 407.5,406.5 Z"/></g>
<g><path style="opacity:1" fill="#09421c" d="M 617.5,407.5 C 617.812,414.422 617.479,421.256 616.5,428C 581.933,444.784 547.266,461.284 512.5,477.5C 512.203,470.08 512.536,462.746 513.5,455.5C 548.178,439.494 582.844,423.494 617.5,407.5 Z"/></g>
<g><path style="opacity:1" fill="#195e34" d="M 768.5,507.5 C 768.667,460.165 768.5,412.832 768,365.5C 762.559,374.604 756.726,383.438 750.5,392C 724.29,404.77 697.957,417.603 671.5,430.5C 670.667,465.162 670.167,499.829 670,534.5C 663.538,544.638 657.705,554.638 652.5,564.5C 652.44,565.043 652.107,565.376 651.5,565.5C 650.5,516.838 650.167,468.171 650.5,419.5C 689.838,400.164 729.171,380.831 768.5,361.5C 769.831,410.332 769.831,458.998 768.5,507.5 Z"/></g>
<g><path style="opacity:1" fill="#084019" d="M 373.5,417.5 C 373.832,466.336 373.499,515.003 372.5,563.5C 372.657,562.127 372.49,560.793 372,559.5C 366.667,551.5 361.333,543.5 356,535.5C 355.5,500.168 355.333,464.835 355.5,429.5C 355.5,429.167 355.5,428.833 355.5,428.5C 361.5,424.833 367.5,421.167 373.5,417.5 Z"/></g>
<g><path style="opacity:1" fill="#66b887" d="M 390.5,424.5 C 429.167,443.5 467.833,462.5 506.5,481.5C 506.5,481.833 506.5,482.167 506.5,482.5C 506.167,482.5 505.833,482.5 505.5,482.5C 499.772,486.892 493.772,490.892 487.5,494.5C 460.16,481.163 432.827,467.83 405.5,454.5C 400.654,445.463 395.321,436.796 389.5,428.5C 389.232,426.901 389.566,425.568 390.5,424.5 Z"/></g>
<g><path style="opacity:1" fill="#073f1a" d="M 635.5,430.5 C 635.5,477.5 635.5,524.5 635.5,571.5C 596.658,591.088 557.658,610.421 518.5,629.5C 524.811,619.667 530.978,609.667 537,599.5C 537.167,564.495 537.667,529.495 538.5,494.5C 564.617,481.186 590.95,468.352 617.5,456C 622.957,448.925 627.79,441.425 632,433.5C 633.039,432.29 634.206,431.29 635.5,430.5 Z"/></g>
<g><path style="opacity:1" fill="#bbd3d1" d="M 374.5,417.5 C 379.68,419.264 384.68,421.264 389.5,423.5C 388.503,442.993 388.17,462.66 388.5,482.5C 387.445,477.172 386.945,471.838 387,466.5C 384.667,466.5 382.333,466.5 380,466.5C 377.721,464.578 375.887,464.578 374.5,466.5C 374.5,450.167 374.5,433.833 374.5,417.5 Z"/></g>
<g><path style="opacity:1" fill="#71c492" d="M 389.5,428.5 C 395.321,436.796 400.654,445.463 405.5,454.5C 405.5,489.833 405.5,525.167 405.5,560.5C 400.167,564.167 394.833,567.833 389.5,571.5C 389.5,523.833 389.5,476.167 389.5,428.5 Z"/></g>
<g><path style="opacity:0.416" fill="#b7dfcd" d="M 258.5,358.5 C 257.508,358.328 256.842,358.662 256.5,359.5C 256.5,407.167 256.5,454.833 256.5,502.5C 255.833,502.5 255.5,502.167 255.5,501.5C 254.433,454.986 254.433,408.653 255.5,362.5C 255.5,360.833 255.5,359.167 255.5,357.5C 256.791,357.263 257.791,357.596 258.5,358.5 Z"/></g>
<g><path style="opacity:1" fill="#195c33" d="M 634.5,427.5 C 635.404,428.209 635.737,429.209 635.5,430.5C 634.206,431.29 633.039,432.29 632,433.5C 627.79,441.425 622.957,448.925 617.5,456C 590.95,468.352 564.617,481.186 538.5,494.5C 537.667,529.495 537.167,564.495 537,599.5C 530.978,609.667 524.811,619.667 518.5,629.5C 518.167,629.5 517.833,629.5 517.5,629.5C 517.5,581.5 517.5,533.5 517.5,485.5C 517.511,483.983 518.177,482.816 519.5,482C 557.399,462.764 595.733,444.597 634.5,427.5 Z"/></g>
<g><path style="opacity:1" fill="#3e955e" d="M 405.5,454.5 C 432.827,467.83 460.16,481.163 487.5,494.5C 487.5,494.833 487.5,495.167 487.5,495.5C 486.833,530.167 486.167,564.833 485.5,599.5C 459.052,585.942 432.385,572.942 405.5,560.5C 405.5,525.167 405.5,489.833 405.5,454.5 Z"/></g>
<g><path style="opacity:1" fill="#81a799" d="M 373.5,416.5 C 374.167,416.5 374.5,416.833 374.5,417.5C 374.5,433.833 374.5,450.167 374.5,466.5C 374.5,499.167 374.5,531.833 374.5,564.5C 373.508,564.672 372.842,564.338 372.5,563.5C 373.499,515.003 373.832,466.336 373.5,417.5C 373.5,417.167 373.5,416.833 373.5,416.5 Z"/></g>
<g><path style="opacity:1" fill="#08411b" d="M 505.5,482.5 C 505.667,530.501 505.5,578.501 505,626.5C 499.391,617.595 493.558,608.928 487.5,600.5C 487.5,565.5 487.5,530.5 487.5,495.5C 487.5,495.167 487.5,494.833 487.5,494.5C 493.772,490.892 499.772,486.892 505.5,482.5 Z"/></g>
<g><path style="opacity:0.999" fill="#0f4a22" d="M 271.5,493.5 C 286.403,499.951 301.07,506.951 315.5,514.5C 314.352,515.164 313.019,515.331 311.5,515C 314.096,516.797 313.763,518.131 310.5,519C 308.559,519.743 306.726,519.576 305,518.5C 302.519,519.149 302.186,520.149 304,521.5C 304.333,521.167 304.667,520.833 305,520.5C 305.863,522.749 305.363,524.582 303.5,526C 304.328,526.915 305.328,527.581 306.5,528C 305.906,528.464 305.239,528.631 304.5,528.5C 288.675,521.087 273.008,513.421 257.5,505.5C 257.414,504.504 257.748,503.671 258.5,503C 262.992,500.002 267.325,496.835 271.5,493.5 Z"/></g>
<g><path style="opacity:1" fill="#afc7c6" d="M 388.5,482.5 C 388.5,500.833 388.5,519.167 388.5,537.5C 387.086,533.68 386.253,529.68 386,525.5C 385.187,533.167 384.521,532.834 384,524.5C 383.517,525.448 383.351,526.448 383.5,527.5C 381.194,527.993 378.861,528.326 376.5,528.5C 375.726,537.309 375.059,549.309 374.5,564.5C 374.5,531.833 374.5,499.167 374.5,466.5C 375.887,464.578 377.721,464.578 380,466.5C 382.333,466.5 384.667,466.5 387,466.5C 386.945,471.838 387.445,477.172 388.5,482.5 Z"/></g>
<g><path style="opacity:1" fill="#8ac3a6" d="M 389.5,423.5 C 390.167,423.5 390.5,423.833 390.5,424.5C 389.566,425.568 389.232,426.901 389.5,428.5C 389.5,476.167 389.5,523.833 389.5,571.5C 388.505,560.346 388.172,549.012 388.5,537.5C 388.5,519.167 388.5,500.833 388.5,482.5C 388.17,462.66 388.503,442.993 389.5,423.5 Z"/></g>
<g><path style="opacity:1" fill="#93a7a8" d="M 506.5,481.5 C 510.058,483.112 513.725,484.445 517.5,485.5C 517.5,533.5 517.5,581.5 517.5,629.5C 517.5,629.833 517.5,630.167 517.5,630.5C 516.668,598.003 516.168,565.336 516,532.5C 515.461,526.954 513.128,522.288 509,518.5C 507.84,554.858 507.006,591.192 506.5,627.5C 506.5,579.167 506.5,530.833 506.5,482.5C 506.5,482.167 506.5,481.833 506.5,481.5 Z"/></g>
<g><path style="opacity:1" fill="#1c6637" d="M 487.5,495.5 C 487.5,530.5 487.5,565.5 487.5,600.5C 486.508,600.672 485.842,600.338 485.5,599.5C 486.167,564.833 486.833,530.167 487.5,495.5 Z"/></g>
<g><path style="opacity:0.999" fill="#daedea" d="M 255.5,501.5 C 255.5,502.167 255.833,502.5 256.5,502.5C 256.263,503.791 256.596,504.791 257.5,505.5C 273.008,513.421 288.675,521.087 304.5,528.5C 307.972,530.738 311.638,532.738 315.5,534.5C 316.128,539.038 314.628,542.705 311,545.5C 311.109,546.769 310.942,547.769 310.5,548.5C 293.198,539.849 275.864,531.182 258.5,522.5C 258.44,521.957 258.107,521.624 257.5,521.5C 256.505,526.792 256.172,532.125 256.5,537.5C 256.167,537.5 255.833,537.5 255.5,537.5C 255.66,534.116 255.327,530.783 254.5,527.5C 255.139,524.525 255.639,521.525 256,518.5C 258.492,516.668 260.658,514.502 262.5,512C 260.644,509.819 258.477,507.985 256,506.5C 254.546,504.756 254.379,503.089 255.5,501.5 Z"/></g>
<g><path style="opacity:1" fill="#104e25" d="M 355.5,429.5 C 355.333,464.835 355.5,500.168 356,535.5C 361.333,543.5 366.667,551.5 372,559.5C 372.49,560.793 372.657,562.127 372.5,563.5C 368.957,561.562 365.29,559.895 361.5,558.5C 346.516,550.006 331.183,542.006 315.5,534.5C 311.638,532.738 307.972,530.738 304.5,528.5C 305.239,528.631 305.906,528.464 306.5,528C 305.328,527.581 304.328,526.915 303.5,526C 305.363,524.582 305.863,522.749 305,520.5C 304.667,520.833 304.333,521.167 304,521.5C 302.186,520.149 302.519,519.149 305,518.5C 306.726,519.576 308.559,519.743 310.5,519C 313.763,518.131 314.096,516.797 311.5,515C 313.019,515.331 314.352,515.164 315.5,514.5C 328.114,520.807 340.78,527.14 353.5,533.5C 354.167,498.669 354.833,464.002 355.5,429.5 Z"/></g>
<g><path style="opacity:0.998" fill="#073f1a" d="M 769.5,528.5 C 769.5,543.833 769.5,559.167 769.5,574.5C 769.5,607.5 769.5,640.5 769.5,673.5C 744.561,684.97 719.894,696.97 695.5,709.5C 687.151,713.008 679.151,717.008 671.5,721.5C 664.833,724.5 658.167,727.5 651.5,730.5C 657.394,720.389 663.561,710.389 670,700.5C 670.167,665.829 670.667,631.162 671.5,596.5C 698.228,583.637 724.894,570.47 751.5,557C 757.939,547.586 763.939,538.086 769.5,528.5 Z"/></g>
<g><path style="opacity:1" fill="#a6c0be" d="M 388.5,537.5 C 388.172,549.012 388.505,560.346 389.5,571.5C 389.5,571.833 389.5,572.167 389.5,572.5C 387.983,572.511 386.816,573.177 386,574.5C 385.667,574.167 385.333,573.833 385,573.5C 383.54,575.422 381.873,576.089 380,575.5C 379.147,577.125 378.147,577.458 377,576.5C 373.946,577.324 373.112,578.991 374.5,581.5C 374.167,581.5 373.833,581.5 373.5,581.5C 373.047,580.542 372.381,579.708 371.5,579C 364.827,576.33 358.494,573.163 352.5,569.5C 352.264,567.951 352.264,566.451 352.5,565C 354.667,564.167 356.167,562.667 357,560.5C 357.333,560.833 357.667,561.167 358,561.5C 358.422,559.574 359.589,558.574 361.5,558.5C 365.29,559.895 368.957,561.562 372.5,563.5C 372.842,564.338 373.508,564.672 374.5,564.5C 375.059,549.309 375.726,537.309 376.5,528.5C 378.861,528.326 381.194,527.993 383.5,527.5C 383.351,526.448 383.517,525.448 384,524.5C 384.521,532.834 385.187,533.167 386,525.5C 386.253,529.68 387.086,533.68 388.5,537.5 Z"/></g>
<g><path style="opacity:1" fill="#124a2a" d="M 634.5,427.5 C 634.842,426.662 635.508,426.328 636.5,426.5C 636.832,475.003 636.499,523.336 635.5,571.5C 635.5,524.5 635.5,477.5 635.5,430.5C 635.737,429.209 635.404,428.209 634.5,427.5 Z"/></g>
<g><path style="opacity:1" fill="#50716d" d="M 650.5,419.5 C 650.167,468.171 650.5,516.838 651.5,565.5C 652.107,565.376 652.44,565.043 652.5,564.5C 684.259,548.287 716.259,532.62 748.5,517.5C 754.675,521.088 761.009,524.422 767.5,527.5C 729.045,546.894 690.379,566.06 651.5,585C 650.514,595.084 650.181,605.251 650.5,615.5C 649.67,606.676 649.17,597.676 649,588.5C 648.667,601.167 648.333,613.833 648,626.5C 647.779,623.057 646.779,622.724 645,625.5C 644.746,619.197 644.912,613.363 645.5,608C 645,607.5 644.5,607 644,606.5C 643.667,611.5 643.333,616.5 643,621.5C 643.017,615.719 642.517,612.052 641.5,610.5C 640.5,610.5 639.5,610.5 638.5,610.5C 638.082,604.331 637.415,598.331 636.5,592.5C 635.833,591.167 635.167,591.167 634.5,592.5C 595.864,611.484 557.198,630.484 518.5,649.5C 518.167,649.5 517.833,649.5 517.5,649.5C 517.5,643.167 517.5,636.833 517.5,630.5C 517.5,630.167 517.5,629.833 517.5,629.5C 517.833,629.5 518.167,629.5 518.5,629.5C 557.658,610.421 596.658,591.088 635.5,571.5C 636.499,523.336 636.832,475.003 636.5,426.5C 640.918,423.797 645.584,421.463 650.5,419.5 Z"/></g>
<g><path style="opacity:0.998" fill="#74c494" d="M 258.5,522.5 C 257.427,523.251 257.26,524.251 258,525.5C 263.111,534.06 267.944,542.726 272.5,551.5C 272.5,586.833 272.5,622.167 272.5,657.5C 266.898,660.771 261.898,664.771 257.5,669.5C 256.501,625.67 256.168,581.67 256.5,537.5C 256.172,532.125 256.505,526.792 257.5,521.5C 258.107,521.624 258.44,521.957 258.5,522.5 Z"/></g>
<g><path style="opacity:1" fill="#3f955e" d="M 272.5,551.5 C 300.296,565.231 327.962,579.231 355.5,593.5C 355.5,593.833 355.5,594.167 355.5,594.5C 354.833,628.669 354.167,663.002 353.5,697.5C 340.807,691.153 328.14,684.82 315.5,678.5C 301.263,671.214 286.93,664.214 272.5,657.5C 272.5,622.167 272.5,586.833 272.5,551.5 Z"/></g>
<g><path style="opacity:1" fill="#6bbb8b" d="M 258.5,522.5 C 275.864,531.182 293.198,539.849 310.5,548.5C 324.182,556.008 338.182,563.008 352.5,569.5C 358.494,573.163 364.827,576.33 371.5,579C 372.381,579.708 373.047,580.542 373.5,581.5C 372.833,581.5 372.5,581.833 372.5,582.5C 367.004,586.416 361.337,590.082 355.5,593.5C 327.962,579.231 300.296,565.231 272.5,551.5C 267.944,542.726 263.111,534.06 258,525.5C 257.26,524.251 257.427,523.251 258.5,522.5 Z"/></g>
<g><path style="opacity:1" fill="#b6cfcd" d="M 315.5,534.5 C 331.183,542.006 346.516,550.006 361.5,558.5C 359.589,558.574 358.422,559.574 358,561.5C 357.667,561.167 357.333,560.833 357,560.5C 356.167,562.667 354.667,564.167 352.5,565C 352.264,566.451 352.264,567.951 352.5,569.5C 338.182,563.008 324.182,556.008 310.5,548.5C 310.942,547.769 311.109,546.769 311,545.5C 314.628,542.705 316.128,539.038 315.5,534.5 Z"/></g>
<g><path style="opacity:0.25" fill="#ceebe1" d="M 255.5,537.5 C 255.833,537.5 256.167,537.5 256.5,537.5C 256.168,581.67 256.501,625.67 257.5,669.5C 266.692,673.928 275.692,678.595 284.5,683.5C 284.158,684.338 283.492,684.672 282.5,684.5C 279.228,683.242 275.894,682.075 272.5,681C 267.63,677.064 262.296,673.898 256.5,671.5C 255.831,631.933 255.164,592.433 254.5,553C 255.471,547.928 255.805,542.762 255.5,537.5 Z"/></g>
<g><path style="opacity:1" fill="#9cb5b4" d="M 389.5,572.5 C 403.818,578.992 417.818,585.992 431.5,593.5C 430.402,594.397 430.402,595.23 431.5,596C 429.667,596.5 428.5,597.667 428,599.5C 424.994,598.062 421.994,598.729 419,601.5C 417.539,600.117 416.706,600.451 416.5,602.5C 407.4,598.451 398.4,594.117 389.5,589.5C 388.501,599.478 388.168,609.478 388.5,619.5C 385.035,620.484 381.869,622.15 379,624.5C 378.667,624.167 378.333,623.833 378,623.5C 376.317,624.887 375.15,626.553 374.5,628.5C 374.5,612.833 374.5,597.167 374.5,581.5C 373.112,578.991 373.946,577.324 377,576.5C 378.147,577.458 379.147,577.125 380,575.5C 381.873,576.089 383.54,575.422 385,573.5C 385.333,573.833 385.667,574.167 386,574.5C 386.816,573.177 387.983,572.511 389.5,572.5 Z"/></g>
<g><path style="opacity:1" fill="#124e26" d="M 505.5,482.5 C 505.833,482.5 506.167,482.5 506.5,482.5C 506.5,530.833 506.5,579.167 506.5,627.5C 506.5,628.833 505.833,629.5 504.5,629.5C 480.294,617.23 455.961,605.23 431.5,593.5C 417.818,585.992 403.818,578.992 389.5,572.5C 389.5,572.167 389.5,571.833 389.5,571.5C 394.833,567.833 400.167,564.167 405.5,560.5C 432.385,572.942 459.052,585.942 485.5,599.5C 485.842,600.338 486.508,600.672 487.5,600.5C 493.558,608.928 499.391,617.595 505,626.5C 505.5,578.501 505.667,530.501 505.5,482.5 Z"/></g>
<g><path style="opacity:1" fill="#074119" d="M 372.5,582.5 C 373.833,631.167 373.833,679.833 372.5,728.5C 368.055,718.281 362.555,708.615 356,699.5C 355.5,664.502 355.333,629.502 355.5,594.5C 355.5,594.167 355.5,593.833 355.5,593.5C 361.337,590.082 367.004,586.416 372.5,582.5 Z"/></g>
<g><path style="opacity:1" fill="#8faaa8" d="M 431.5,593.5 C 455.961,605.23 480.294,617.23 504.5,629.5C 504.918,630.222 505.584,630.722 506.5,631C 502.918,631.595 502.584,632.929 505.5,635C 502.901,637.736 500.568,640.569 498.5,643.5C 470.849,630.341 443.516,616.675 416.5,602.5C 416.706,600.451 417.539,600.117 419,601.5C 421.994,598.729 424.994,598.062 428,599.5C 428.5,597.667 429.667,596.5 431.5,596C 430.402,595.23 430.402,594.397 431.5,593.5 Z"/></g>
<g><path style="opacity:0.999" fill="#073f1a" d="M 635.5,595.5 C 635.168,638.003 635.501,680.337 636.5,722.5C 636.5,727.5 636.5,732.5 636.5,737.5C 634.5,738.833 632.5,740.167 630.5,741.5C 593.094,759.036 556.094,777.37 519.5,796.5C 518.833,796.5 518.5,796.167 518.5,795.5C 524.642,785.898 530.809,776.231 537,766.5C 537.333,731.5 537.667,696.5 538,661.5C 564.33,647.918 590.83,634.751 617.5,622C 623.754,613.263 629.754,604.429 635.5,595.5 Z"/></g>
<g><path style="opacity:1" fill="#547471" d="M 650.5,615.5 C 650.5,650.5 650.5,685.5 650.5,720.5C 649.683,722.969 649.183,725.635 649,728.5C 648.581,727.328 647.915,726.328 647,725.5C 644.047,725.675 641.38,727.008 639,729.5C 638.667,727.833 638.333,726.167 638,724.5C 637.825,729.019 637.325,733.353 636.5,737.5C 636.5,732.5 636.5,727.5 636.5,722.5C 636.5,679.167 636.5,635.833 636.5,592.5C 637.415,598.331 638.082,604.331 638.5,610.5C 639.5,610.5 640.5,610.5 641.5,610.5C 642.517,612.052 643.017,615.719 643,621.5C 643.333,616.5 643.667,611.5 644,606.5C 644.5,607 645,607.5 645.5,608C 644.912,613.363 644.746,619.197 645,625.5C 646.779,622.724 647.779,623.057 648,626.5C 648.333,613.833 648.667,601.167 649,588.5C 649.17,597.676 649.67,606.676 650.5,615.5 Z"/></g>
<g><path style="opacity:1" fill="#72c493" d="M 405.5,619.5 C 405.5,654.833 405.5,690.167 405.5,725.5C 400.322,728.922 395.322,732.589 390.5,736.5C 390.167,736.5 389.833,736.5 389.5,736.5C 389.333,688.499 389.5,640.499 390,592.5C 395.178,601.527 400.345,610.527 405.5,619.5 Z"/></g>
<g><path style="opacity:1" fill="#195c34" d="M 634.5,592.5 C 635.404,593.209 635.737,594.209 635.5,595.5C 629.754,604.429 623.754,613.263 617.5,622C 590.83,634.751 564.33,647.918 538,661.5C 537.667,696.5 537.333,731.5 537,766.5C 530.809,776.231 524.642,785.898 518.5,795.5C 518.5,746.833 518.5,698.167 518.5,649.5C 557.198,630.484 595.864,611.484 634.5,592.5 Z"/></g>
<g><path style="opacity:1" fill="#195e35" d="M 767.5,527.5 C 768.492,527.328 769.158,527.662 769.5,528.5C 763.939,538.086 757.939,547.586 751.5,557C 724.894,570.47 698.228,583.637 671.5,596.5C 670.667,631.162 670.167,665.829 670,700.5C 663.561,710.389 657.394,720.389 651.5,730.5C 650.521,727.375 650.187,724.042 650.5,720.5C 650.5,685.5 650.5,650.5 650.5,615.5C 650.181,605.251 650.514,595.084 651.5,585C 690.379,566.06 729.045,546.894 767.5,527.5 Z"/></g>
<g><path style="opacity:1" fill="#3f945e" d="M 405.5,619.5 C 433.056,633.111 460.722,646.445 488.5,659.5C 488.5,660.167 488.167,660.5 487.5,660.5C 486.833,695.167 486.167,729.833 485.5,764.5C 459.078,750.956 432.412,737.956 405.5,725.5C 405.5,690.167 405.5,654.833 405.5,619.5 Z"/></g>
<g><path style="opacity:1" fill="#6ab68a" d="M 416.5,602.5 C 443.516,616.675 470.849,630.341 498.5,643.5C 501.327,644.419 503.66,646.086 505.5,648.5C 504.833,648.5 504.5,648.833 504.5,649.5C 499.167,652.833 493.833,656.167 488.5,659.5C 460.722,646.445 433.056,633.111 405.5,619.5C 400.345,610.527 395.178,601.527 390,592.5C 389.5,640.499 389.333,688.499 389.5,736.5C 388.502,701.004 388.168,665.337 388.5,629.5C 388.5,626.167 388.5,622.833 388.5,619.5C 388.168,609.478 388.501,599.478 389.5,589.5C 398.4,594.117 407.4,598.451 416.5,602.5 Z"/></g>
<g><path style="opacity:1" fill="#879f9f" d="M 388.5,619.5 C 388.5,622.833 388.5,626.167 388.5,629.5C 387.596,630.209 387.263,631.209 387.5,632.5C 384.305,634.353 381.139,636.353 378,638.5C 377.586,638.043 377.086,637.709 376.5,637.5C 375.832,639.969 375.165,642.302 374.5,644.5C 374.5,639.167 374.5,633.833 374.5,628.5C 375.15,626.553 376.317,624.887 378,623.5C 378.333,623.833 378.667,624.167 379,624.5C 381.869,622.15 385.035,620.484 388.5,619.5 Z"/></g>
<g><path style="opacity:1" fill="#859d9c" d="M 517.5,630.5 C 517.5,636.833 517.5,643.167 517.5,649.5C 517.5,660.833 517.5,672.167 517.5,683.5C 516.833,676.988 516.167,670.321 515.5,663.5C 514.416,664.665 513.583,665.998 513,667.5C 511.846,666.257 510.512,665.257 509,664.5C 508.667,663.167 508.333,661.833 508,660.5C 507.83,670.342 507.33,680.009 506.5,689.5C 506.829,675.656 506.496,661.99 505.5,648.5C 503.66,646.086 501.327,644.419 498.5,643.5C 500.568,640.569 502.901,637.736 505.5,635C 502.584,632.929 502.918,631.595 506.5,631C 505.584,630.722 504.918,630.222 504.5,629.5C 505.833,629.5 506.5,628.833 506.5,627.5C 507.006,591.192 507.84,554.858 509,518.5C 513.128,522.288 515.461,526.954 516,532.5C 516.168,565.336 516.668,598.003 517.5,630.5 Z"/></g>
<g><path style="opacity:1" fill="#114a29" d="M 634.5,592.5 C 635.167,591.167 635.833,591.167 636.5,592.5C 636.5,635.833 636.5,679.167 636.5,722.5C 635.501,680.337 635.168,638.003 635.5,595.5C 635.737,594.209 635.404,593.209 634.5,592.5 Z"/></g>
<g><path style="opacity:1" fill="#648080" d="M 388.5,629.5 C 388.168,665.337 388.502,701.004 389.5,736.5C 389.833,736.5 390.167,736.5 390.5,736.5C 390.833,737.167 391.167,737.833 391.5,738.5C 389.799,738.034 388.299,738.034 387,738.5C 386.781,737.062 386.281,735.729 385.5,734.5C 382.283,733.24 379.116,731.907 376,730.5C 375.167,704.16 375.333,677.827 376.5,651.5C 380.568,650.047 384.068,647.714 387,644.5C 387.499,640.514 387.666,636.514 387.5,632.5C 387.263,631.209 387.596,630.209 388.5,629.5 Z"/></g>
<g><path style="opacity:1" fill="#07411b" d="M 504.5,649.5 C 505.499,696.997 505.832,744.664 505.5,792.5C 499.252,783.672 493.252,774.672 487.5,765.5C 487.5,730.5 487.5,695.5 487.5,660.5C 488.167,660.5 488.5,660.167 488.5,659.5C 493.833,656.167 499.167,652.833 504.5,649.5 Z"/></g>
<g><path style="opacity:0.998" fill="#0e4922" d="M 272.5,657.5 C 286.93,664.214 301.263,671.214 315.5,678.5C 315.577,679.75 316.244,680.583 317.5,681C 316.667,681.833 315.833,682.667 315,683.5C 311.88,680.292 308.046,678.959 303.5,679.5C 301.5,679.833 299.5,680.167 297.5,680.5C 297.331,682.117 296.997,683.784 296.5,685.5C 295.614,684.675 295.281,683.675 295.5,682.5C 293.654,682.222 292.32,682.889 291.5,684.5C 296.341,687.421 301.341,690.088 306.5,692.5C 307.298,692.957 307.631,693.624 307.5,694.5C 303.957,692.562 300.29,690.895 296.5,689.5C 292.818,686.992 288.818,684.992 284.5,683.5C 275.692,678.595 266.692,673.928 257.5,669.5C 261.898,664.771 266.898,660.771 272.5,657.5 Z"/></g>
<g><path style="opacity:0.998" fill="#0f4e25" d="M 355.5,594.5 C 355.333,629.502 355.5,664.502 356,699.5C 362.555,708.615 368.055,718.281 372.5,728.5C 369.339,727.087 366.339,725.42 363.5,723.5C 353.297,717.898 342.963,712.565 332.5,707.5C 324.009,703.422 315.676,699.088 307.5,694.5C 307.631,693.624 307.298,692.957 306.5,692.5C 301.341,690.088 296.341,687.421 291.5,684.5C 292.32,682.889 293.654,682.222 295.5,682.5C 295.281,683.675 295.614,684.675 296.5,685.5C 296.997,683.784 297.331,682.117 297.5,680.5C 299.5,680.167 301.5,679.833 303.5,679.5C 308.046,678.959 311.88,680.292 315,683.5C 315.833,682.667 316.667,681.833 317.5,681C 316.244,680.583 315.577,679.75 315.5,678.5C 328.14,684.82 340.807,691.153 353.5,697.5C 354.167,663.002 354.833,628.669 355.5,594.5 Z"/></g>
<g><path style="opacity:1" fill="#226e3f" d="M 487.5,660.5 C 487.5,695.5 487.5,730.5 487.5,765.5C 486.508,765.672 485.842,765.338 485.5,764.5C 486.167,729.833 486.833,695.167 487.5,660.5 Z"/></g>
<g><path style="opacity:0.999" fill="#265b40" d="M 504.5,649.5 C 504.5,648.833 504.833,648.5 505.5,648.5C 506.496,661.99 506.829,675.656 506.5,689.5C 506.5,707.833 506.5,726.167 506.5,744.5C 506.5,761.5 506.5,778.5 506.5,795.5C 505.209,795.737 504.209,795.404 503.5,794.5C 504.833,794.5 505.5,793.833 505.5,792.5C 505.832,744.664 505.499,696.997 504.5,649.5 Z"/></g>
<g><path style="opacity:0.073" fill="#8aa29f" d="M 769.5,574.5 C 770.167,589.167 770.833,603.833 771.5,618.5C 771.667,636.836 771.5,655.17 771,673.5C 762.815,678.003 754.649,682.503 746.5,687C 738.75,689.374 731.75,693.04 725.5,698C 718.457,698.485 712.457,701.485 707.5,707C 703.417,707.53 699.417,708.363 695.5,709.5C 719.894,696.97 744.561,684.97 769.5,673.5C 769.5,640.5 769.5,607.5 769.5,574.5 Z"/></g>
<g><path style="opacity:1" fill="#768e8e" d="M 517.5,683.5 C 517.5,721.5 517.5,759.5 517.5,797.5C 516.851,770.32 516.017,742.987 515,715.5C 514.64,713.392 513.973,711.392 513,709.5C 512.667,709.833 512.333,710.167 512,710.5C 511.009,709.061 509.676,708.061 508,707.5C 507.831,720.007 507.331,732.34 506.5,744.5C 506.5,726.167 506.5,707.833 506.5,689.5C 507.33,680.009 507.83,670.342 508,660.5C 508.333,661.833 508.667,663.167 509,664.5C 510.512,665.257 511.846,666.257 513,667.5C 513.583,665.998 514.416,664.665 515.5,663.5C 516.167,670.321 516.833,676.988 517.5,683.5 Z"/></g>
<g><path style="opacity:0.887" fill="#b3c9c7" d="M 284.5,683.5 C 288.818,684.992 292.818,686.992 296.5,689.5C 296.062,689.435 295.728,689.601 295.5,690C 301.974,692.355 302.641,695.522 297.5,699.5C 292.167,697.167 286.833,694.833 281.5,692.5C 283.214,691.262 285.214,690.595 287.5,690.5C 287.251,687.256 285.584,685.256 282.5,684.5C 283.492,684.672 284.158,684.338 284.5,683.5 Z"/></g>
<g><path style="opacity:0.963" fill="#98aeac" d="M 296.5,689.5 C 300.29,690.895 303.957,692.562 307.5,694.5C 315.676,699.088 324.009,703.422 332.5,707.5C 331.718,709.451 330.384,710.951 328.5,712C 330.037,713.11 330.703,714.61 330.5,716.5C 319.309,711.072 308.309,705.405 297.5,699.5C 302.641,695.522 301.974,692.355 295.5,690C 295.728,689.601 296.062,689.435 296.5,689.5 Z"/></g>
<g><path style="opacity:1" fill="#3b6856" d="M 372.5,582.5 C 372.5,581.833 372.833,581.5 373.5,581.5C 373.833,581.5 374.167,581.5 374.5,581.5C 374.5,597.167 374.5,612.833 374.5,628.5C 374.5,633.833 374.5,639.167 374.5,644.5C 374.833,672.841 374.5,701.175 373.5,729.5C 372.893,729.376 372.56,729.043 372.5,728.5C 373.833,679.833 373.833,631.167 372.5,582.5 Z"/></g>
<g><path style="opacity:0.076" fill="#79918f" d="M 695.5,709.5 C 688.738,715.548 680.738,719.548 671.5,721.5C 679.151,717.008 687.151,713.008 695.5,709.5 Z"/></g>
<g><path style="opacity:0.065" fill="#daeeea" d="M 281.5,692.5 C 286.833,694.833 292.167,697.167 297.5,699.5C 308.309,705.405 319.309,711.072 330.5,716.5C 341.167,721.833 351.833,727.167 362.5,732.5C 393.55,748.692 424.883,764.358 456.5,779.5C 473.833,788.5 491.167,797.5 508.5,806.5C 501.597,806.029 495.597,803.529 490.5,799C 424.536,766.018 358.536,733.018 292.5,700C 288.42,697.971 284.754,695.471 281.5,692.5 Z"/></g>
<g><path style="opacity:0.988" fill="#7f9a98" d="M 332.5,707.5 C 342.963,712.565 353.297,717.898 363.5,723.5C 363.773,725.451 363.107,726.951 361.5,728C 362.38,729.356 362.714,730.856 362.5,732.5C 351.833,727.167 341.167,721.833 330.5,716.5C 330.703,714.61 330.037,713.11 328.5,712C 330.384,710.951 331.718,709.451 332.5,707.5 Z"/></g>
<g><path style="opacity:0.992" fill="#63827e" d="M 650.5,720.5 C 650.187,724.042 650.521,727.375 651.5,730.5C 658.167,727.5 664.833,724.5 671.5,721.5C 668.169,723.722 664.835,726.222 661.5,729C 654.028,731.815 647.028,735.482 640.5,740C 637.146,740.455 633.813,740.955 630.5,741.5C 632.5,740.167 634.5,738.833 636.5,737.5C 637.325,733.353 637.825,729.019 638,724.5C 638.333,726.167 638.667,727.833 639,729.5C 641.38,727.008 644.047,725.675 647,725.5C 647.915,726.328 648.581,727.328 649,728.5C 649.183,725.635 649.683,722.969 650.5,720.5 Z"/></g>
<g><path style="opacity:0.987" fill="#6f8b8a" d="M 387.5,632.5 C 387.666,636.514 387.499,640.514 387,644.5C 384.068,647.714 380.568,650.047 376.5,651.5C 375.333,677.827 375.167,704.16 376,730.5C 379.116,731.907 382.283,733.24 385.5,734.5C 386.281,735.729 386.781,737.062 387,738.5C 388.299,738.034 389.799,738.034 391.5,738.5C 410.719,746.895 429.386,756.229 447.5,766.5C 446.069,767.082 444.736,767.915 443.5,769C 444.784,769.684 445.951,769.517 447,768.5C 447.617,769.449 447.451,770.282 446.5,771C 448.275,772.439 450.275,773.439 452.5,774C 453.714,775.979 455.381,777.479 457.5,778.5C 457.376,779.107 457.043,779.44 456.5,779.5C 424.883,764.358 393.55,748.692 362.5,732.5C 362.714,730.856 362.38,729.356 361.5,728C 363.107,726.951 363.773,725.451 363.5,723.5C 366.339,725.42 369.339,727.087 372.5,728.5C 372.56,729.043 372.893,729.376 373.5,729.5C 374.5,701.175 374.833,672.841 374.5,644.5C 375.165,642.302 375.832,639.969 376.5,637.5C 377.086,637.709 377.586,638.043 378,638.5C 381.139,636.353 384.305,634.353 387.5,632.5 Z"/></g>
<g><path style="opacity:1" fill="#0f4c24" d="M 405.5,725.5 C 432.412,737.956 459.078,750.956 485.5,764.5C 485.842,765.338 486.508,765.672 487.5,765.5C 493.252,774.672 499.252,783.672 505.5,792.5C 505.5,793.833 504.833,794.5 503.5,794.5C 485.086,784.626 466.419,775.293 447.5,766.5C 429.386,756.229 410.719,746.895 391.5,738.5C 391.167,737.833 390.833,737.167 390.5,736.5C 395.322,732.589 400.322,728.922 405.5,725.5 Z"/></g>
<g><path style="opacity:1" fill="#3e6e55" d="M 517.5,649.5 C 517.833,649.5 518.167,649.5 518.5,649.5C 518.5,698.167 518.5,746.833 518.5,795.5C 518.5,796.167 518.833,796.5 519.5,796.5C 519.158,797.338 518.492,797.672 517.5,797.5C 517.5,759.5 517.5,721.5 517.5,683.5C 517.5,672.167 517.5,660.833 517.5,649.5 Z"/></g>
<g><path style="opacity:0.968" fill="#6a8683" d="M 517.5,797.5 C 518.492,797.672 519.158,797.338 519.5,796.5C 556.094,777.37 593.094,759.036 630.5,741.5C 630.631,742.376 630.298,743.043 629.5,743.5C 625.385,744.037 622.719,746.204 621.5,750C 612.919,750.78 605.252,754.114 598.5,760C 589.909,762.295 582.243,766.129 575.5,771.5C 569.427,772.622 563.761,774.789 558.5,778C 557.167,779.667 555.833,781.333 554.5,783C 545.516,783.989 538.183,787.822 532.5,794.5C 530.5,793.167 528.5,793.167 526.5,794.5C 524.505,796.11 522.339,797.443 520,798.5C 519.578,802.009 518.578,805.343 517,808.5C 515.384,809.801 513.884,809.801 512.5,808.5C 511.486,807.326 510.153,806.66 508.5,806.5C 491.167,797.5 473.833,788.5 456.5,779.5C 457.043,779.44 457.376,779.107 457.5,778.5C 455.381,777.479 453.714,775.979 452.5,774C 450.275,773.439 448.275,772.439 446.5,771C 447.451,770.282 447.617,769.449 447,768.5C 445.951,769.517 444.784,769.684 443.5,769C 444.736,767.915 446.069,767.082 447.5,766.5C 466.419,775.293 485.086,784.626 503.5,794.5C 504.209,795.404 505.209,795.737 506.5,795.5C 506.5,778.5 506.5,761.5 506.5,744.5C 507.331,732.34 507.831,720.007 508,707.5C 509.676,708.061 511.009,709.061 512,710.5C 512.333,710.167 512.667,709.833 513,709.5C 513.973,711.392 514.64,713.392 515,715.5C 516.017,742.987 516.851,770.32 517.5,797.5 Z"/></g>
<g><path style="opacity:0.043" fill="#d9edea" d="M 508.5,806.5 C 510.153,806.66 511.486,807.326 512.5,808.5C 510.517,808.843 509.183,808.176 508.5,806.5 Z"/></g>
</svg>
