<?xml version="1.0" encoding="UTF-8"?>
<!DOCTYPE svg PUBLIC "-//W3C//DTD SVG 1.1//EN" "http://www.w3.org/Graphics/SVG/1.1/DTD/svg11.dtd">
<svg xmlns="http://www.w3.org/2000/svg" version="1.1" width="800px" height="800px" style="shape-rendering:geometricPrecision; text-rendering:geometricPrecision; image-rendering:optimizeQuality; fill-rule:evenodd; clip-rule:evenodd" xmlns:xlink="http://www.w3.org/1999/xlink">
<g><path style="opacity:0.988" fill="#1e2630" d="M 457.5,208.5 C 464.107,237.274 469.94,266.274 475,295.5C 476.013,311.926 478.346,328.259 482,344.5C 498.549,361.529 518.382,373.029 541.5,379C 548.83,381.994 555.497,385.994 561.5,391C 593.018,402.006 624.684,412.506 656.5,422.5C 662.845,424.504 669.178,426.504 675.5,428.5C 675.771,430.38 675.104,431.713 673.5,432.5C 636.239,418.801 598.573,405.968 560.5,394C 549.659,385.08 537.326,379.08 523.5,376C 510.024,370.099 497.691,362.433 486.5,353C 470.804,337.638 455.471,321.971 440.5,306C 437.377,302.98 433.71,301.98 429.5,303C 422.955,310.312 420.788,318.812 423,328.5C 426.566,347.632 434.899,364.298 448,378.5C 459.667,389.5 471.333,400.5 483,411.5C 493.609,424.612 504.775,437.278 516.5,449.5C 515.635,450.583 514.635,450.749 513.5,450C 506.698,444.199 500.198,438.032 494,431.5C 496.427,439.785 499.093,448.118 502,456.5C 505.89,472.237 507.556,488.237 507,504.5C 510.55,527.154 516.55,549.154 525,570.5C 525.495,572.473 525.662,574.473 525.5,576.5C 558.674,583.637 591.674,591.304 624.5,599.5C 625.746,601.023 625.246,602.023 623,602.5C 599.528,596.64 576.028,590.973 552.5,585.5C 543.701,582.856 534.701,580.523 525.5,578.5C 525.089,585.623 526.089,592.623 528.5,599.5C 529.987,606.926 530.987,614.426 531.5,622C 529.158,647.677 515.158,662.344 489.5,666C 426.409,677.654 363.243,688.821 300,699.5C 278.984,698.66 264.984,688.326 258,668.5C 254.627,649.971 251.127,631.471 247.5,613C 238.449,606.413 231.115,598.247 225.5,588.5C 206.827,540.145 192.66,490.478 183,439.5C 182.223,430.452 182.389,421.452 183.5,412.5C 184.486,406.519 187.819,402.519 193.5,400.5C 198.833,400.5 204.167,400.5 209.5,400.5C 209.001,396.51 208.501,392.51 208,388.5C 207.722,387.584 207.222,386.918 206.5,386.5C 198.976,351.042 191.976,315.375 185.5,279.5C 186.167,278.833 186.833,278.167 187.5,277.5C 186.606,274.713 185.44,272.046 184,269.5C 182.212,249.762 179.212,230.096 175,210.5C 173.427,180.402 187.594,163.236 217.5,159C 276.52,148.441 335.52,137.775 394.5,127C 422.57,122.277 440.737,133.444 449,160.5C 452.029,176.477 454.862,192.477 457.5,208.5 Z"/></g>
<g><path style="opacity:1" fill="#fcfdfd" d="M 451.5,386.5 C 440.007,387.331 428.341,387.831 416.5,388C 412.714,389.393 409.048,391.059 405.5,393C 394.589,401.909 385.089,412.076 377,423.5C 374.63,426.039 372.13,428.372 369.5,430.5C 362.449,424.868 355.615,418.868 349,412.5C 345.742,399.713 340.742,387.713 334,376.5C 327.643,371.309 321.143,366.309 314.5,361.5C 318.044,360.234 321.044,358.234 323.5,355.5C 323,355.167 322.5,354.833 322,354.5C 318.708,356.562 315.208,358.229 311.5,359.5C 304.52,355.262 297.02,352.262 289,350.5C 287.893,350.585 286.893,350.919 286,351.5C 285.501,355.152 285.335,358.818 285.5,362.5C 263.948,359.122 249.448,347.122 242,326.5C 239.866,320.699 238.7,314.699 238.5,308.5C 238.5,303.833 238.5,299.167 238.5,294.5C 239.791,294.737 240.791,294.404 241.5,293.5C 251.108,290.862 259.775,286.362 267.5,280C 278.677,269.489 289.177,258.323 299,246.5C 302.989,261.155 312.322,270.489 327,274.5C 341.129,265.432 351.129,268.765 357,284.5C 357.667,288.5 357.667,292.5 357,296.5C 353.553,299.038 349.72,300.705 345.5,301.5C 347.959,317.159 344.959,331.659 336.5,345C 344.186,362.384 351.686,379.884 359,397.5C 359.414,397.957 359.914,398.291 360.5,398.5C 372.413,396.274 384.413,394.608 396.5,393.5C 396.5,392.5 396.5,391.5 396.5,390.5C 384.842,392.415 373.176,393.915 361.5,395C 354.016,378.716 347.016,362.216 340.5,345.5C 340.848,343.303 341.848,341.47 343.5,340C 356.485,339.947 369.151,337.947 381.5,334C 393.671,324.778 397.838,312.611 394,297.5C 390.44,258.509 372.273,228.675 339.5,208C 312.6,193.905 285.266,192.905 257.5,205C 235.22,217.064 221.886,235.564 217.5,260.5C 218.057,275.275 223.724,287.609 234.5,297.5C 234.148,320.28 242.148,339.447 258.5,355C 266.604,360.758 275.604,364.258 285.5,365.5C 287.666,378.828 289.833,392.162 292,405.5C 294.128,408.63 296.628,411.463 299.5,414C 296.459,414.576 293.792,415.742 291.5,417.5C 292.167,417.833 292.833,418.167 293.5,418.5C 296.315,417.755 299.149,417.088 302,416.5C 304.38,417.201 306.547,418.367 308.5,420C 315.211,428.598 321.544,437.432 327.5,446.5C 322.707,445.771 318.374,443.937 314.5,441C 305.015,433.093 295.349,425.426 285.5,418C 281.186,417.79 277.519,419.29 274.5,422.5C 262.969,426.624 251.803,431.624 241,437.5C 238.419,428.341 234.752,419.675 230,411.5C 217.096,341.377 204.263,271.21 191.5,201C 192.431,190.743 197.764,184.076 207.5,181C 219.011,178.887 230.511,176.72 242,174.5C 242.772,174.645 243.439,174.978 244,175.5C 245.377,186.542 251.544,191.042 262.5,189C 296.231,183.243 329.898,177.243 363.5,171C 371.748,167.339 374.748,161.172 372.5,152.5C 384.892,148.766 397.559,146.099 410.5,144.5C 420.998,145.168 427.832,150.501 431,160.5C 440.713,213.839 450.046,267.172 459,320.5C 454.053,314.43 448.553,308.93 442.5,304C 433.611,296.74 426.778,298.24 422,308.5C 420.765,316.423 420.098,324.423 420,332.5C 415.597,327.6 410.097,325.267 403.5,325.5C 399.975,338.012 391.642,344.678 378.5,345.5C 379.211,351.133 381.377,356.133 385,360.5C 395.545,370.048 407.378,377.548 420.5,383C 427.833,383.667 435.167,383.667 442.5,383C 446.613,380.891 449.613,382.058 451.5,386.5 Z"/></g>
<g><path style="opacity:1" fill="#eaebec" d="M 339.5,157.5 C 344.123,156.408 345.956,158.075 345,162.5C 339.42,164.752 337.587,163.085 339.5,157.5 Z"/></g>
<g><path style="opacity:1" fill="#f3f4f4" d="M 324.5,159.5 C 327.119,159.232 329.619,159.565 332,160.5C 332.825,162.701 332.325,164.534 330.5,166C 313.11,168.936 295.776,172.103 278.5,175.5C 275.58,174.032 274.913,171.865 276.5,169C 292.592,165.71 308.592,162.544 324.5,159.5 Z"/></g>
<g><path style="opacity:0.995" fill="#e8e7e7" d="M 656.5,422.5 C 624.684,412.506 593.018,402.006 561.5,391C 555.497,385.994 548.83,381.994 541.5,379C 518.382,373.029 498.549,361.529 482,344.5C 478.346,328.259 476.013,311.926 475,295.5C 469.94,266.274 464.107,237.274 457.5,208.5C 489.386,192.262 523.219,183.262 559,181.5C 607.088,182.204 639.088,205.204 655,250.5C 666.422,288.398 670.089,327.065 666,366.5C 664.447,385.483 661.281,404.149 656.5,422.5 Z"/></g>
<g><path style="opacity:1" fill="#1f2730" d="M 241.5,293.5 C 240.167,293.5 238.833,293.5 237.5,293.5C 237.179,298.695 237.513,303.695 238.5,308.5C 238.7,314.699 239.866,320.699 242,326.5C 249.448,347.122 263.948,359.122 285.5,362.5C 285.335,358.818 285.501,355.152 286,351.5C 286.893,350.919 287.893,350.585 289,350.5C 297.02,352.262 304.52,355.262 311.5,359.5C 315.208,358.229 318.708,356.562 322,354.5C 322.5,354.833 323,355.167 323.5,355.5C 321.044,358.234 318.044,360.234 314.5,361.5C 321.143,366.309 327.643,371.309 334,376.5C 340.742,387.713 345.742,399.713 349,412.5C 355.615,418.868 362.449,424.868 369.5,430.5C 395.093,453.983 420.76,477.483 446.5,501C 445.944,501.383 445.611,501.883 445.5,502.5C 412.375,473.416 379.375,444.083 346.5,414.5C 343.82,402.964 339.654,391.964 334,381.5C 321.483,367.985 306.317,358.652 288.5,353.5C 289.25,371.003 291.417,388.336 295,405.5C 299.526,410.506 304.693,414.673 310.5,418C 340.368,458.902 369.868,500.069 399,541.5C 400.993,543.818 402.159,546.484 402.5,549.5C 400.26,548.432 398.426,546.766 397,544.5C 374.359,511.375 351.192,478.709 327.5,446.5C 321.544,437.432 315.211,428.598 308.5,420C 306.547,418.367 304.38,417.201 302,416.5C 299.149,417.088 296.315,417.755 293.5,418.5C 292.833,418.167 292.167,417.833 291.5,417.5C 293.792,415.742 296.459,414.576 299.5,414C 296.628,411.463 294.128,408.63 292,405.5C 289.833,392.162 287.666,378.828 285.5,365.5C 275.604,364.258 266.604,360.758 258.5,355C 242.148,339.447 234.148,320.28 234.5,297.5C 223.724,287.609 218.057,275.275 217.5,260.5C 221.886,235.564 235.22,217.064 257.5,205C 285.266,192.905 312.6,193.905 339.5,208C 372.273,228.675 390.44,258.509 394,297.5C 397.838,312.611 393.671,324.778 381.5,334C 369.151,337.947 356.485,339.947 343.5,340C 341.848,341.47 340.848,343.303 340.5,345.5C 347.016,362.216 354.016,378.716 361.5,395C 373.176,393.915 384.842,392.415 396.5,390.5C 396.5,391.5 396.5,392.5 396.5,393.5C 384.413,394.608 372.413,396.274 360.5,398.5C 359.914,398.291 359.414,397.957 359,397.5C 351.686,379.884 344.186,362.384 336.5,345C 344.959,331.659 347.959,317.159 345.5,301.5C 349.72,300.705 353.553,299.038 357,296.5C 357.667,292.5 357.667,288.5 357,284.5C 351.129,268.765 341.129,265.432 327,274.5C 312.322,270.489 302.989,261.155 299,246.5C 289.177,258.323 278.677,269.489 267.5,280C 259.775,286.362 251.108,290.862 241.5,293.5 Z"/></g>
<g><path style="opacity:1" fill="#81858a" d="M 241.5,293.5 C 240.791,294.404 239.791,294.737 238.5,294.5C 238.5,299.167 238.5,303.833 238.5,308.5C 237.513,303.695 237.179,298.695 237.5,293.5C 238.833,293.5 240.167,293.5 241.5,293.5 Z"/></g>
<g><path style="opacity:0.997" fill="#fefefe" d="M 673.5,432.5 C 657.369,488.225 641.036,543.892 624.5,599.5C 591.674,591.304 558.674,583.637 525.5,576.5C 525.662,574.473 525.495,572.473 525,570.5C 516.55,549.154 510.55,527.154 507,504.5C 507.556,488.237 505.89,472.237 502,456.5C 499.093,448.118 496.427,439.785 494,431.5C 500.198,438.032 506.698,444.199 513.5,450C 514.635,450.749 515.635,450.583 516.5,449.5C 504.775,437.278 493.609,424.612 483,411.5C 471.333,400.5 459.667,389.5 448,378.5C 434.899,364.298 426.566,347.632 423,328.5C 420.788,318.812 422.955,310.312 429.5,303C 433.71,301.98 437.377,302.98 440.5,306C 455.471,321.971 470.804,337.638 486.5,353C 497.691,362.433 510.024,370.099 523.5,376C 537.326,379.08 549.659,385.08 560.5,394C 598.573,405.968 636.239,418.801 673.5,432.5 Z"/></g>
<g><path style="opacity:1" fill="#303740" d="M 397.5,320.5 C 398.5,320.5 399.5,320.5 400.5,320.5C 398.174,332.871 390.84,339.871 378.5,341.5C 378.5,340.5 378.5,339.5 378.5,338.5C 389.17,337.221 395.503,331.221 397.5,320.5 Z"/></g>
<g><path style="opacity:1" fill="#fdfdfd" d="M 445.5,502.5 C 453.063,507.224 459.563,513.224 465,520.5C 469.293,538.747 462.793,551.58 445.5,559C 434.459,563.57 423.459,563.57 412.5,559C 408.666,556.332 405.333,553.165 402.5,549.5C 402.159,546.484 400.993,543.818 399,541.5C 369.868,500.069 340.368,458.902 310.5,418C 304.693,414.673 299.526,410.506 295,405.5C 291.417,388.336 289.25,371.003 288.5,353.5C 306.317,358.652 321.483,367.985 334,381.5C 339.654,391.964 343.82,402.964 346.5,414.5C 379.375,444.083 412.375,473.416 445.5,502.5 Z"/></g>
<g><path style="opacity:0.904" fill="#dfdedf" d="M 206.5,386.5 C 207.222,386.918 207.722,387.584 208,388.5C 208.501,392.51 209.001,396.51 209.5,400.5C 204.167,400.5 198.833,400.5 193.5,400.5C 197.861,395.807 202.195,391.141 206.5,386.5 Z"/></g>
<g><path style="opacity:1" fill="#9cd4bf" d="M 451.5,386.5 C 459.462,393.292 467.296,400.292 475,407.5C 482.278,444.781 489.278,482.114 496,519.5C 494.492,538.351 486.659,554.184 472.5,567C 468.729,569.219 464.729,570.885 460.5,572C 438.688,574.798 419.022,569.631 401.5,556.5C 401.167,557 400.833,557.5 400.5,558C 403.196,561.352 406.529,564.018 410.5,566C 425.341,573.368 441.008,576.368 457.5,575C 468.009,573.663 476.509,568.83 483,560.5C 487.108,554.883 490.608,548.883 493.5,542.5C 496.068,551.337 497.734,560.337 498.5,569.5C 436.804,580.674 375.138,592.007 313.5,603.5C 313.688,597.112 313.188,590.778 312,584.5C 309.572,580.256 307.406,575.922 305.5,571.5C 306.376,571.631 307.043,571.298 307.5,570.5C 293.314,556.443 287.147,539.443 289,519.5C 291.19,509.638 292.69,499.638 293.5,489.5C 293.167,488.5 292.833,487.5 292.5,486.5C 291.914,486.709 291.414,487.043 291,487.5C 289.788,500.803 287.955,513.97 285.5,527C 285.804,533.629 286.804,540.129 288.5,546.5C 284.761,540.695 281.261,534.695 278,528.5C 272.031,533.467 266.365,538.801 261,544.5C 260.51,545.793 260.343,547.127 260.5,548.5C 255.963,512.45 249.63,476.617 241.5,441C 252.251,434.522 263.585,429.189 275.5,425C 276.883,423.539 276.549,422.706 274.5,422.5C 277.519,419.29 281.186,417.79 285.5,418C 295.349,425.426 305.015,433.093 314.5,441C 318.374,443.937 322.707,445.771 327.5,446.5C 351.192,478.709 374.359,511.375 397,544.5C 398.426,546.766 400.26,548.432 402.5,549.5C 405.333,553.165 408.666,556.332 412.5,559C 423.459,563.57 434.459,563.57 445.5,559C 462.793,551.58 469.293,538.747 465,520.5C 459.563,513.224 453.063,507.224 445.5,502.5C 445.611,501.883 445.944,501.383 446.5,501C 420.76,477.483 395.093,453.983 369.5,430.5C 372.13,428.372 374.63,426.039 377,423.5C 385.089,412.076 394.589,401.909 405.5,393C 409.048,391.059 412.714,389.393 416.5,388C 428.341,387.831 440.007,387.331 451.5,386.5 Z"/></g>
<g><path style="opacity:1" fill="#fdfdfd" d="M 195.5,402.5 C 204.872,402.623 213.872,404.457 222.5,408C 229.779,415.051 234.612,423.551 237,433.5C 250.953,486.264 258.286,539.931 259,594.5C 259.114,600.171 257.28,605.004 253.5,609C 251.833,609.667 250.167,609.667 248.5,609C 235.137,599.282 225.97,586.449 221,570.5C 209.268,535.24 198.935,499.573 190,463.5C 187.329,451.135 185.495,438.635 184.5,426C 184.504,419.429 186.004,413.262 189,407.5C 190.965,405.45 193.132,403.783 195.5,402.5 Z"/></g>
<g><path style="opacity:0.985" fill="#e8e7e7" d="M 183.5,412.5 C 182.389,421.452 182.223,430.452 183,439.5C 192.66,490.478 206.827,540.145 225.5,588.5C 203.393,584.139 182.06,577.305 161.5,568C 138.098,556.035 128.265,536.868 132,510.5C 133.595,499.12 136.595,488.12 141,477.5C 152.205,453.717 166.372,432.051 183.5,412.5 Z"/></g>
<g><path style="opacity:1" fill="#28343a" d="M 441.5,436.5 C 443.465,436.948 443.798,437.948 442.5,439.5C 434.263,444.95 427.596,451.95 422.5,460.5C 421.386,459.277 421.219,457.944 422,456.5C 426.691,447.977 433.191,441.31 441.5,436.5 Z"/></g>
<g><path style="opacity:1" fill="#28343a" d="M 305.5,571.5 C 298.09,564.345 292.423,556.012 288.5,546.5C 286.804,540.129 285.804,533.629 285.5,527C 287.955,513.97 289.788,500.803 291,487.5C 291.414,487.043 291.914,486.709 292.5,486.5C 292.833,487.5 293.167,488.5 293.5,489.5C 292.69,499.638 291.19,509.638 289,519.5C 287.147,539.443 293.314,556.443 307.5,570.5C 307.043,571.298 306.376,571.631 305.5,571.5 Z"/></g>
<g><path style="opacity:1" fill="#fdfdfd" d="M 288.5,546.5 C 292.423,556.012 298.09,564.345 305.5,571.5C 307.406,575.922 309.572,580.256 312,584.5C 313.188,590.778 313.688,597.112 313.5,603.5C 297.707,606.991 281.707,609.991 265.5,612.5C 263.095,591.246 261.428,569.913 260.5,548.5C 260.343,547.127 260.51,545.793 261,544.5C 266.365,538.801 272.031,533.467 278,528.5C 281.261,534.695 284.761,540.695 288.5,546.5 Z"/></g>
<g><path style="opacity:1" fill="#e4e5e7" d="M 497.5,537.5 C 499.045,538.23 499.878,539.563 500,541.5C 501.084,550.594 502.584,559.594 504.5,568.5C 503.5,568.5 502.5,568.5 501.5,568.5C 500.286,559.594 498.619,550.76 496.5,542C 496.773,540.467 497.106,538.967 497.5,537.5 Z"/></g>
<g><path style="opacity:0.947" fill="#e5e4e4" d="M 552.5,585.5 C 544.864,590.656 536.864,595.323 528.5,599.5C 526.089,592.623 525.089,585.623 525.5,578.5C 534.701,580.523 543.701,582.856 552.5,585.5 Z"/></g>
<g><path style="opacity:1" fill="#f3f3f4" d="M 474.5,601.5 C 476.199,601.34 477.866,601.506 479.5,602C 481.374,603.435 483.374,604.602 485.5,605.5C 487.733,604.385 489.899,604.385 492,605.5C 493.492,612.123 494.658,618.79 495.5,625.5C 489.069,626.358 482.735,627.691 476.5,629.5C 475.479,628.998 475.312,628.332 476,627.5C 478.087,626.206 480.254,625.039 482.5,624C 483.765,622.663 484.265,621.163 484,619.5C 479.314,619.765 474.48,619.432 469.5,618.5C 469.167,618.833 468.833,619.167 468.5,619.5C 470.577,622.624 471.743,625.958 472,629.5C 468.281,630.648 464.448,631.314 460.5,631.5C 459.608,624.482 458.608,617.482 457.5,610.5C 462.781,611.393 466.114,609.226 467.5,604C 469.927,603.098 472.26,602.264 474.5,601.5 Z"/></g>
<g><path style="opacity:1" fill="#29313a" d="M 477.5,603.5 C 479.868,607.067 481.868,610.9 483.5,615C 478.177,615.499 472.844,615.666 467.5,615.5C 468.239,611.592 470.572,609.092 474.5,608C 475.883,606.729 476.883,605.229 477.5,603.5 Z"/></g>
<g><path style="opacity:1" fill="#d2d4d6" d="M 389.5,605.5 C 405.131,603.729 415.964,610.063 422,624.5C 424.51,638.991 419.343,649.825 406.5,657C 390.374,661.518 378.541,656.351 371,641.5C 366.869,624.093 373.036,612.093 389.5,605.5 Z"/></g>
<g><path style="opacity:1" fill="#202832" d="M 391.5,606.5 C 408.825,606.166 418.825,614.499 421.5,631.5C 418.68,651.487 407.347,659.653 387.5,656C 371.957,648.048 367.457,635.882 374,619.5C 378.38,613.075 384.213,608.741 391.5,606.5 Z"/></g>
<g><path style="opacity:1" fill="#fbfbfb" d="M 390.5,616.5 C 407.363,615.522 413.863,623.189 410,639.5C 405.351,646.499 398.851,648.999 390.5,647C 381.97,642.774 378.803,635.941 381,626.5C 383.022,621.98 386.189,618.647 390.5,616.5 Z"/></g>
<g><path style="opacity:1" fill="#f3f4f4" d="M 320.5,632.5 C 323.119,632.232 325.619,632.565 328,633.5C 329.106,637.122 329.439,640.789 329,644.5C 327.185,642.595 325.185,640.928 323,639.5C 320.905,643.365 318.572,647.032 316,650.5C 313.861,649.764 311.861,648.764 310,647.5C 308.316,649.351 306.483,651.018 304.5,652.5C 302.85,647.306 301.85,641.973 301.5,636.5C 308.04,635.568 314.373,634.234 320.5,632.5 Z"/></g>
<g><path style="opacity:1" fill="#2e353f" d="M 311.5,639.5 C 314.91,639.384 316.244,641.05 315.5,644.5C 311.065,645.078 309.732,643.411 311.5,639.5 Z"/></g>
</svg>
